<svg width="500" height="500" viewBox="0 0 500 500" fill="none" xmlns="http://www.w3.org/2000/svg">
<path d="M251.176 429.547C355.282 429.547 439.676 419.709 439.676 407.573C439.676 395.438 355.282 385.6 251.176 385.6C147.07 385.6 62.6758 395.438 62.6758 407.573C62.6758 419.709 147.07 429.547 251.176 429.547Z" fill="#F6F9FF"/>
<path d="M59.0872 374.013L106.659 373.797L154.239 373.716L249.382 373.564L344.534 373.716L392.105 373.797L439.676 374.013L392.105 374.228L344.534 374.309L249.382 374.461L154.239 374.309L106.659 374.228L59.0872 374.013Z" fill="#263238"/>
<path d="M218.588 333.539L217.763 338.59L216.883 344.018L208.808 393.519H195.61L203.676 344.018L204.564 338.59L205.39 333.539H218.588Z" fill="#EBEBEB"/>
<path d="M216.677 333.539C215.977 338.554 215.233 343.561 214.479 348.558L212.146 363.569L209.706 378.553L208.45 386.036L207.14 393.519L208.216 386L209.338 378.49L211.698 363.488L214.138 348.504C214.937 343.507 215.78 338.518 216.677 333.539Z" fill="#C7C7C7"/>
<path d="M217.763 338.59L216.884 344.018H203.676L204.565 338.59H217.763Z" fill="#C7C7C7"/>
<path d="M283.763 333.539L284.589 338.59L285.468 344.018L293.543 393.519H306.742L298.675 344.018L297.787 338.59L296.962 333.539H283.763Z" fill="#EBEBEB"/>
<path d="M285.719 333.539C286.41 338.554 287.164 343.561 287.917 348.558L290.241 363.569L292.682 378.553L293.947 386.036L295.257 393.519L294.18 386L293.059 378.49L290.726 363.488L288.285 348.504C287.451 343.507 286.608 338.518 285.719 333.539Z" fill="#C7C7C7"/>
<path d="M284.589 338.59H297.787L298.675 344.018H285.468L284.589 338.59Z" fill="#C7C7C7"/>
<path d="M218.104 319.613H207.642L208.943 309.851H216.803L218.104 319.613Z" fill="#C7C7C7"/>
<path d="M222.484 304.591C223.42 299.287 219.879 294.228 214.575 293.291C209.27 292.355 204.211 295.896 203.275 301.201C202.339 306.505 205.88 311.564 211.184 312.5C216.489 313.437 221.548 309.896 222.484 304.591Z" fill="#DBDBDB"/>
<path d="M220.094 304.593C221.039 300.606 218.572 296.607 214.584 295.662C210.597 294.717 206.598 297.184 205.653 301.172C204.709 305.159 207.175 309.158 211.163 310.103C215.15 311.047 219.149 308.581 220.094 304.593Z" fill="white"/>
<path d="M219.073 302.449C219.004 301.565 218.753 300.704 218.336 299.922C217.919 299.139 217.345 298.451 216.65 297.9C215.95 297.357 215.147 296.961 214.29 296.737C213.432 296.514 212.538 296.467 211.662 296.599C210.792 296.736 209.96 297.055 209.221 297.534C208.483 298.013 207.853 298.642 207.373 299.38C206.866 300.17 206.534 301.059 206.4 301.988C206.265 302.916 206.331 303.863 206.592 304.764C207.038 306.321 208.079 307.639 209.49 308.434C210.867 309.215 212.482 309.464 214.03 309.133C215.528 308.813 216.87 307.99 217.835 306.801C218.787 305.625 219.337 304.176 219.405 302.664C219.405 302.602 219.405 302.539 219.342 302.539C219.279 302.539 219.279 302.593 219.279 302.664C219.245 303.276 219.127 303.879 218.929 304.459C218.722 305.028 218.448 305.57 218.113 306.074C217.759 306.562 217.349 307.008 216.892 307.402C216.423 307.794 215.908 308.128 215.358 308.398C214.568 308.77 213.71 308.973 212.837 308.995C211.964 309.017 211.096 308.856 210.289 308.523C209.479 308.18 208.753 307.666 208.162 307.015C207.57 306.365 207.126 305.593 206.861 304.755C206.589 303.894 206.506 302.983 206.617 302.087C206.729 301.19 207.032 300.328 207.507 299.56C207.966 298.831 208.576 298.208 209.296 297.735C210.016 297.261 210.828 296.947 211.68 296.814C212.83 296.632 214.008 296.763 215.089 297.194C216.171 297.625 217.116 298.34 217.826 299.264C218.167 299.74 218.444 300.259 218.651 300.807C218.851 301.363 218.984 301.942 219.046 302.53C219.046 302.53 219.073 302.476 219.073 302.449Z" fill="#EBEBEB"/>
<path d="M218.202 302.459C218.138 301.702 217.919 300.966 217.557 300.297C217.196 299.629 216.701 299.042 216.103 298.574C215.503 298.112 214.817 297.775 214.085 297.581C213.354 297.387 212.591 297.34 211.841 297.443C211.091 297.555 210.374 297.824 209.735 298.232C209.097 298.64 208.551 299.179 208.135 299.812C207.693 300.488 207.4 301.251 207.276 302.049C207.152 302.848 207.2 303.663 207.418 304.442C207.603 305.116 207.92 305.746 208.352 306.296C208.783 306.846 209.319 307.304 209.93 307.645C211.128 308.33 212.54 308.542 213.887 308.237C215.186 307.957 216.349 307.238 217.179 306.2C218.002 305.179 218.477 303.922 218.534 302.611C218.534 302.557 218.534 302.504 218.48 302.504C218.427 302.504 218.409 302.548 218.409 302.611C218.335 303.663 217.982 304.676 217.386 305.545C216.79 306.414 215.972 307.108 215.017 307.555C214.338 307.886 213.596 308.068 212.841 308.089C212.086 308.111 211.336 307.972 210.639 307.681C209.937 307.384 209.309 306.938 208.798 306.374C208.287 305.81 207.904 305.142 207.678 304.415C207.445 303.669 207.377 302.881 207.48 302.106C207.582 301.332 207.852 300.589 208.27 299.929C208.665 299.306 209.191 298.777 209.81 298.377C210.43 297.977 211.129 297.717 211.859 297.614C212.836 297.469 213.833 297.585 214.751 297.95C215.668 298.316 216.472 298.918 217.081 299.695C217.374 300.1 217.615 300.54 217.799 301.005C217.967 301.482 218.084 301.975 218.148 302.477L218.202 302.459Z" fill="#EBEBEB"/>
<path d="M217.332 302.468C217.268 301.837 217.075 301.226 216.767 300.672C216.458 300.118 216.04 299.633 215.538 299.246C214.529 298.479 213.26 298.138 212.003 298.295C211.373 298.378 210.769 298.594 210.229 298.928C209.689 299.262 209.226 299.707 208.871 300.233C208.487 300.802 208.23 301.446 208.117 302.123C208.004 302.799 208.038 303.492 208.216 304.154C208.367 304.732 208.633 305.273 208.999 305.745C209.364 306.216 209.821 306.609 210.343 306.9C211.371 307.475 212.577 307.648 213.725 307.384C214.833 307.127 215.816 306.493 216.507 305.59C217.19 304.724 217.591 303.668 217.655 302.566C217.655 302.512 217.655 302.468 217.592 302.468C217.582 302.469 217.572 302.472 217.562 302.477C217.553 302.482 217.544 302.489 217.538 302.497C217.531 302.506 217.526 302.515 217.523 302.526C217.52 302.536 217.519 302.547 217.521 302.557C217.451 303.44 217.151 304.289 216.65 305.02C216.149 305.751 215.466 306.337 214.667 306.72C214.096 307.003 213.47 307.16 212.833 307.182C212.195 307.204 211.561 307.089 210.971 306.846C210.375 306.6 209.841 306.224 209.408 305.746C208.975 305.268 208.654 304.7 208.468 304.083C208.282 303.454 208.234 302.793 208.327 302.144C208.419 301.495 208.651 300.874 209.006 300.323C209.345 299.81 209.79 299.376 210.312 299.051C210.834 298.726 211.42 298.517 212.03 298.439C212.836 298.344 213.653 298.439 214.416 298.717C215.184 299.008 215.858 299.505 216.363 300.153C216.613 300.483 216.818 300.845 216.973 301.229C217.124 301.623 217.229 302.032 217.287 302.45C217.287 302.45 217.341 302.476 217.332 302.468Z" fill="#EBEBEB"/>
<path d="M216.471 302.476C216.339 301.464 215.814 300.545 215.009 299.919C214.203 299.316 213.2 299.04 212.2 299.147C211.692 299.206 211.201 299.372 210.76 299.633C210.32 299.894 209.939 300.245 209.643 300.663C209.322 301.124 209.103 301.648 209 302.201C208.898 302.753 208.916 303.321 209.051 303.866C209.17 304.346 209.387 304.796 209.688 305.189C209.989 305.581 210.368 305.906 210.801 306.145C211.653 306.617 212.651 306.755 213.6 306.531C214.502 306.313 215.303 305.794 215.87 305.06C216.41 304.343 216.723 303.48 216.767 302.583C216.768 302.574 216.768 302.564 216.765 302.555C216.763 302.546 216.759 302.537 216.753 302.53C216.747 302.522 216.74 302.516 216.731 302.511C216.723 302.507 216.714 302.504 216.704 302.503C216.704 302.503 216.642 302.503 216.633 302.574C216.579 303.285 216.345 303.97 215.952 304.566C215.56 305.161 215.022 305.646 214.39 305.975C213.928 306.216 213.419 306.354 212.898 306.379C212.377 306.404 211.858 306.315 211.375 306.118C210.885 305.917 210.448 305.607 210.095 305.212C209.743 304.818 209.484 304.348 209.338 303.839C209.194 303.329 209.163 302.793 209.247 302.27C209.331 301.746 209.527 301.247 209.823 300.807C210.1 300.402 210.462 300.061 210.883 299.809C211.304 299.556 211.775 299.398 212.263 299.344C212.901 299.286 213.544 299.369 214.147 299.587C214.753 299.811 215.289 300.191 215.7 300.69C215.897 300.954 216.062 301.24 216.193 301.543C216.32 301.858 216.414 302.185 216.471 302.52V302.476Z" fill="#EBEBEB"/>
<path d="M294.486 319.613H284.015L285.316 309.851H293.185L294.486 319.613Z" fill="#C7C7C7"/>
<path d="M299.054 303.739C299.862 298.407 296.194 293.429 290.861 292.621C285.529 291.813 280.551 295.481 279.743 300.813C278.935 306.146 282.603 311.124 287.935 311.932C293.268 312.74 298.246 309.072 299.054 303.739Z" fill="#DBDBDB"/>
<path d="M296.579 303.997C297.197 299.946 294.413 296.161 290.362 295.543C286.311 294.925 282.526 297.709 281.908 301.76C281.291 305.811 284.074 309.596 288.125 310.214C292.176 310.831 295.961 308.048 296.579 303.997Z" fill="white"/>
<path d="M295.455 302.449C295.384 301.565 295.133 300.705 294.716 299.923C294.299 299.14 293.726 298.452 293.032 297.9C292.332 297.357 291.529 296.962 290.671 296.738C289.814 296.514 288.92 296.467 288.044 296.599C287.174 296.736 286.342 297.055 285.603 297.534C284.865 298.013 284.235 298.642 283.755 299.381C283.244 300.169 282.91 301.058 282.776 301.987C282.641 302.916 282.709 303.863 282.974 304.764C283.416 306.323 284.459 307.642 285.872 308.434C287.248 309.216 288.864 309.465 290.412 309.133C291.91 308.813 293.252 307.99 294.217 306.801C295.169 305.625 295.719 304.176 295.787 302.664C295.787 302.602 295.787 302.539 295.724 302.539C295.661 302.539 295.661 302.593 295.652 302.664C295.617 303.275 295.502 303.878 295.311 304.459C295.105 305.03 294.828 305.573 294.486 306.074C293.784 307.074 292.835 307.874 291.731 308.398C290.944 308.772 290.086 308.977 289.214 308.999C288.343 309.02 287.476 308.858 286.671 308.523C285.86 308.181 285.133 307.667 284.539 307.016C283.946 306.365 283.501 305.594 283.234 304.755C282.963 303.893 282.882 302.982 282.995 302.086C283.108 301.189 283.413 300.328 283.889 299.56C284.348 298.831 284.958 298.208 285.678 297.735C286.397 297.261 287.21 296.947 288.062 296.814C289.212 296.632 290.39 296.763 291.471 297.194C292.553 297.625 293.498 298.34 294.208 299.264C294.545 299.742 294.823 300.261 295.033 300.807C295.23 301.364 295.36 301.942 295.419 302.53C295.419 302.53 295.455 302.476 295.455 302.449Z" fill="#EBEBEB"/>
<path d="M294.584 302.459C294.516 301.703 294.294 300.968 293.933 300.301C293.572 299.633 293.079 299.045 292.484 298.574C291.884 298.112 291.198 297.775 290.467 297.581C289.735 297.387 288.972 297.34 288.222 297.443C287.471 297.554 286.752 297.822 286.112 298.23C285.472 298.638 284.925 299.177 284.508 299.812C284.065 300.488 283.772 301.251 283.648 302.049C283.525 302.848 283.573 303.663 283.79 304.442C283.975 305.116 284.293 305.746 284.724 306.296C285.156 306.846 285.692 307.304 286.302 307.645C287.501 308.329 288.913 308.54 290.259 308.237C291.562 307.959 292.728 307.239 293.561 306.2C294.38 305.177 294.854 303.921 294.916 302.611C294.916 302.557 294.916 302.504 294.853 302.504C294.79 302.504 294.79 302.548 294.781 302.611C294.71 303.662 294.358 304.675 293.764 305.544C293.169 306.413 292.352 307.108 291.399 307.555C290.72 307.886 289.978 308.068 289.223 308.089C288.468 308.111 287.717 307.972 287.02 307.681C286.317 307.386 285.687 306.94 285.174 306.376C284.661 305.812 284.277 305.143 284.05 304.415C283.821 303.668 283.754 302.881 283.857 302.107C283.959 301.333 284.227 300.59 284.642 299.929C285.039 299.308 285.565 298.78 286.185 298.38C286.804 297.981 287.502 297.719 288.231 297.614C289.211 297.464 290.213 297.578 291.134 297.944C292.054 298.31 292.861 298.914 293.471 299.695C293.768 300.098 294.009 300.539 294.189 301.005C294.365 301.48 294.483 301.974 294.539 302.477C294.547 302.477 294.555 302.475 294.563 302.472C294.571 302.469 294.578 302.465 294.584 302.459Z" fill="#EBEBEB"/>
<path d="M293.714 302.467C293.645 301.838 293.451 301.228 293.143 300.675C292.835 300.122 292.418 299.636 291.919 299.246C290.91 298.481 289.641 298.14 288.384 298.295C287.758 298.381 287.157 298.597 286.62 298.931C286.084 299.265 285.624 299.709 285.271 300.233C284.887 300.802 284.63 301.446 284.515 302.122C284.401 302.798 284.432 303.491 284.607 304.154C284.762 304.731 285.031 305.271 285.398 305.742C285.764 306.214 286.221 306.607 286.742 306.9C287.768 307.474 288.97 307.647 290.116 307.384C291.225 307.127 292.212 306.492 292.906 305.59C293.592 304.725 293.99 303.668 294.046 302.566C294.046 302.512 294.046 302.467 293.992 302.467C293.981 302.468 293.971 302.472 293.962 302.477C293.952 302.482 293.944 302.489 293.937 302.497C293.931 302.505 293.926 302.515 293.923 302.525C293.92 302.536 293.919 302.546 293.92 302.557C293.849 303.439 293.548 304.288 293.047 305.018C292.547 305.748 291.864 306.335 291.067 306.72C290.495 307.003 289.87 307.16 289.232 307.182C288.595 307.203 287.96 307.089 287.37 306.846C286.774 306.599 286.241 306.224 285.808 305.746C285.375 305.268 285.053 304.7 284.867 304.082C284.681 303.454 284.633 302.793 284.726 302.144C284.819 301.495 285.051 300.874 285.405 300.323C285.741 299.809 286.185 299.374 286.705 299.049C287.226 298.724 287.811 298.515 288.42 298.439C289.229 298.343 290.05 298.438 290.816 298.717C291.584 299.008 292.257 299.505 292.763 300.152C293.013 300.483 293.218 300.845 293.373 301.229C293.515 301.625 293.62 302.034 293.687 302.449C293.694 302.458 293.703 302.464 293.714 302.467Z" fill="#EBEBEB"/>
<path d="M292.844 302.476C292.782 301.975 292.621 301.491 292.372 301.052C292.122 300.613 291.789 300.228 291.39 299.919C290.584 299.317 289.582 299.042 288.582 299.147C288.072 299.202 287.58 299.366 287.139 299.628C286.698 299.89 286.318 300.243 286.025 300.663C285.703 301.124 285.484 301.648 285.382 302.201C285.28 302.753 285.297 303.321 285.432 303.867C285.551 304.346 285.768 304.797 286.069 305.189C286.37 305.581 286.749 305.907 287.182 306.146C288.032 306.617 289.027 306.755 289.972 306.531C290.876 306.311 291.679 305.793 292.251 305.06C292.791 304.343 293.104 303.48 293.149 302.583C293.151 302.575 293.152 302.565 293.151 302.556C293.149 302.547 293.146 302.538 293.141 302.53C293.136 302.523 293.129 302.516 293.121 302.511C293.113 302.507 293.104 302.504 293.095 302.503C293.076 302.503 293.057 302.51 293.044 302.524C293.031 302.537 293.023 302.555 293.023 302.574C292.958 303.289 292.709 303.975 292.303 304.565C291.896 305.156 291.343 305.632 290.699 305.948C290.238 306.188 289.731 306.325 289.212 306.35C288.693 306.375 288.175 306.287 287.693 306.092C287.204 305.89 286.766 305.58 286.414 305.186C286.061 304.791 285.802 304.322 285.657 303.813C285.513 303.302 285.482 302.767 285.565 302.243C285.649 301.719 285.846 301.22 286.141 300.78C286.418 300.374 286.78 300.034 287.201 299.781C287.622 299.529 288.093 299.371 288.582 299.318C289.217 299.26 289.857 299.343 290.457 299.56C291.064 299.781 291.601 300.162 292.009 300.663C292.212 300.925 292.381 301.211 292.512 301.516C292.639 301.831 292.732 302.159 292.79 302.494C292.79 302.494 292.852 302.485 292.844 302.476Z" fill="#EBEBEB"/>
<path d="M316.943 314.643H185.399V339.801H316.943V314.643Z" fill="#DBDBDB"/>
<path d="M212.443 314.643L202.896 339.801H185.902L195.449 314.643H212.443Z" fill="#EBEBEB"/>
<path d="M247.264 314.643L237.717 339.801H220.723L230.27 314.643H247.264Z" fill="#EBEBEB"/>
<path d="M282.076 314.643L272.539 339.801H255.545L265.092 314.643H282.076Z" fill="#EBEBEB"/>
<path d="M316.907 314.643L307.361 339.801H290.367L299.914 314.643H316.907Z" fill="#EBEBEB"/>
<path d="M314.288 363.067H188.065V378.993H314.288V363.067Z" fill="#DBDBDB"/>
<path d="M214.004 363.067L204.852 378.984H188.549L197.71 363.067H214.004Z" fill="#EBEBEB"/>
<path d="M247.425 363.067L238.265 378.984H221.953L231.114 363.067H247.425Z" fill="#EBEBEB"/>
<path d="M280.829 363.067L271.669 378.984H255.366L264.527 363.067H280.829Z" fill="#EBEBEB"/>
<path d="M314.242 363.067L305.082 378.984H288.779L297.94 363.067H314.242Z" fill="#EBEBEB"/>
<path d="M457.047 198.552H355.498C355.498 198.552 365.565 171.051 381.06 171.051C396.555 171.051 401.409 190.028 401.409 190.028C401.409 190.028 411.862 179.719 420.458 179.719C429.053 179.719 436.509 193.348 436.509 193.348C436.509 193.348 448.649 186.017 457.047 198.552Z" fill="#EBEBEB"/>
<path d="M147.143 134.049H99.6887C99.6887 134.049 110.285 118.688 118.647 118.688C127.01 118.688 129.468 128.926 129.468 128.926C129.468 128.926 135.363 124.153 140.827 125.005C146.291 125.857 147.143 134.049 147.143 134.049Z" fill="#EBEBEB"/>
<path d="M468.489 244.669H421.034C421.034 244.669 431.639 229.308 439.993 229.308C448.346 229.308 450.813 239.546 450.813 239.546C450.813 239.546 456.708 234.764 462.172 235.625C467.637 236.486 468.489 244.669 468.489 244.669Z" fill="#EBEBEB"/>
<path d="M117.442 172.549H25C25 172.549 37.66 144.287 51.1993 142.519C64.7385 140.751 71.2166 163.514 71.2166 163.514C71.2166 163.514 79.9556 155.439 86.8195 155.439C93.6833 155.439 98.986 166.036 98.986 166.036C98.986 166.036 112.75 158.804 117.442 172.549Z" fill="#EBEBEB"/>
<path d="M475 455.312H445.687C424.387 455.312 411.359 440.589 409.017 413.86C407.86 400.68 407.151 384.727 406.406 367.841C404.11 315.954 400.96 244.92 380.763 244.92H357.552V239.536H380.763C406.101 239.536 408.99 304.649 411.781 367.617C412.526 384.449 413.234 400.348 414.383 413.376C415.845 430.046 422.458 449.92 445.687 449.92H475V455.312Z" fill="#E8EDF8"/>
<path opacity="0.2" d="M374.599 239.518L373.451 244.901H357.552V239.518H374.599Z" fill="black"/>
<path d="M313.802 209.99H304.417V275.569H313.802V209.99Z" fill="#E8EDF8"/>
<path d="M304.426 214.835H268.743V270.051H304.426V214.835Z" fill="#E8EDF8"/>
<path opacity="0.2" d="M304.417 214.844V270.06H295.553L291.578 214.844H304.417Z" fill="black"/>
<path d="M241.36 224.75H268.734V233.004H241.36C240.422 233.004 239.523 232.632 238.86 231.969C238.197 231.306 237.825 230.407 237.825 229.469V228.294C237.824 227.829 237.914 227.368 238.091 226.938C238.268 226.508 238.529 226.117 238.857 225.788C239.185 225.459 239.575 225.198 240.005 225.019C240.434 224.841 240.895 224.75 241.36 224.75Z" fill="#DBDBDB"/>
<path d="M268.734 224.75H259.125V232.995H268.734V224.75Z" fill="#A6A6A6"/>
<path d="M241.36 251.89H268.734V260.145H241.36C240.422 260.145 239.523 259.772 238.86 259.109C238.197 258.446 237.825 257.547 237.825 256.61V255.434C237.824 254.969 237.914 254.509 238.091 254.079C238.268 253.649 238.529 253.258 238.857 252.929C239.185 252.599 239.575 252.338 240.005 252.16C240.434 251.982 240.895 251.89 241.36 251.89Z" fill="#DBDBDB"/>
<path d="M268.734 251.89H259.125V260.136H268.734V251.89Z" fill="#A6A6A6"/>
<path d="M369.26 237.176H341.383V248.185H369.26V237.176Z" fill="#E8EDF8"/>
<path d="M369.26 237.185H341.383V248.194H369.26V237.185Z" fill="#E8EDF8"/>
<path opacity="0.2" d="M351.172 237.185L350.257 248.194H341.383V237.185H351.172Z" fill="black"/>
<path d="M313.803 216.917H335.866C337.329 216.917 338.733 217.498 339.768 218.533C340.802 219.568 341.384 220.971 341.384 222.435V262.46C341.384 263.924 340.802 265.327 339.768 266.362C338.733 267.397 337.329 267.978 335.866 267.978H313.803V216.917Z" fill="#E8EDF8"/>
<path opacity="0.2" d="M325.538 216.917L321.563 267.978H313.811V216.917H325.538Z" fill="black"/>
<g opacity="0.2">
<path opacity="0.2" d="M323.484 227.234H321.725V257.65H323.484V227.234Z" fill="black"/>
<path opacity="0.2" d="M328.472 227.234H326.714V257.65H328.472V227.234Z" fill="black"/>
<path opacity="0.2" d="M333.461 227.234H331.703V257.65H333.461V227.234Z" fill="black"/>
</g>
<path d="M202.608 241.637C204.896 241.574 215.367 240.371 218.211 239.385C221.056 238.398 228.978 234.97 228.476 232.718C227.973 230.466 225.533 231.282 225.533 231.282C225.533 231.282 228.664 229.3 227.919 227.083C227.175 224.867 223.433 226.267 223.433 226.267C223.433 226.267 226.502 223.997 225.596 221.835C224.689 219.672 221.199 221.709 221.199 221.709C221.199 221.709 224.106 219.762 222.617 218.29C220.822 216.496 215.87 220.722 212.657 221.574C211.922 221.772 197.566 224.455 197.566 224.455L202.608 241.637Z" fill="#AD6359"/>
<path d="M221.567 221.539C217.915 224.607 215.789 225.325 211.141 225.962C211.125 225.968 211.112 225.978 211.102 225.992C211.092 226.005 211.087 226.022 211.087 226.038C211.087 226.055 211.092 226.071 211.102 226.085C211.112 226.099 211.125 226.109 211.141 226.115C215.744 225.899 218.543 225.388 221.72 221.709C221.854 221.53 221.711 221.395 221.567 221.539Z" fill="#263238"/>
<path d="M223.747 226.016C219.683 228.924 217.386 229.668 212.595 230.718C212.532 230.718 212.55 230.853 212.595 230.844C217.404 230.225 220.185 229.65 223.873 226.259C224.025 226.088 223.936 225.882 223.747 226.016Z" fill="#263238"/>
<path d="M225.282 231.328C221.146 233.813 218.66 234.791 213.851 235.195C213.827 235.195 213.805 235.204 213.788 235.221C213.771 235.238 213.761 235.261 213.761 235.285C213.761 235.308 213.771 235.331 213.788 235.348C213.805 235.365 213.827 235.374 213.851 235.374C218.044 235.627 222.169 234.222 225.336 231.462C225.578 231.274 225.542 231.175 225.282 231.328Z" fill="#263238"/>
<path d="M194.246 222.571C196.663 221.009 199.191 219.626 201.81 218.434C204.34 217.537 215.017 217.537 215.134 219.852C215.295 222.831 209.131 224.024 206.036 224.222C206.036 224.222 206.422 231.103 202.178 232.925C197.934 234.746 194.246 222.571 194.246 222.571Z" fill="#AD6359"/>
<path d="M214.919 220.687C213.124 223.504 209.024 223.495 206.036 223.908C205.991 223.91 205.947 223.924 205.909 223.948C205.87 223.971 205.838 224.004 205.816 224.044C205.793 224.083 205.781 224.127 205.781 224.173C205.78 224.218 205.791 224.263 205.812 224.303C205.812 227.201 204.915 231.274 202.358 232.988C202.277 233.042 202.358 233.158 202.42 233.113C205.39 231.642 206.593 227.73 206.422 224.527C209.491 224.159 213.6 223.989 214.946 220.696C214.955 220.678 214.928 220.669 214.919 220.687Z" fill="#263238"/>
<path d="M181.192 218.38C180.602 220.112 180.114 221.877 179.729 223.665C179.29 225.46 178.832 227.254 178.464 229.048C177.665 232.568 177.066 236.13 176.67 239.717C176.67 239.738 176.678 239.759 176.693 239.774C176.708 239.789 176.729 239.797 176.75 239.797C176.772 239.797 176.792 239.789 176.808 239.774C176.823 239.759 176.831 239.738 176.831 239.717C177.8 236.199 178.518 232.602 179.254 229.031C179.622 227.236 179.954 225.495 180.321 223.737C180.689 221.978 181.129 220.148 181.326 218.407C181.33 218.389 181.326 218.371 181.316 218.356C181.306 218.341 181.29 218.33 181.272 218.327C181.255 218.323 181.236 218.327 181.221 218.337C181.206 218.347 181.195 218.363 181.192 218.38Z" fill="#263238"/>
<path d="M56.1799 455.313H26.8672V449.93H56.1799C79.4003 449.93 86.0219 430.056 87.4844 413.385C88.6328 400.331 89.3327 384.432 90.0774 367.626C92.8678 304.658 95.7569 239.546 121.095 239.546H144.315V244.93H121.077C100.889 244.93 97.7488 315.982 95.4429 367.851C94.6892 384.746 93.9804 400.699 92.8319 413.879C90.4991 440.59 77.4802 455.313 56.1799 455.313Z" fill="#E8EDF8"/>
<path opacity="0.2" d="M144.315 239.519V244.903H125.796L124.648 239.519H144.315Z" fill="black"/>
<path d="M224.869 276.988H234.756V207.919H224.869V276.988Z" fill="#E8EDF8"/>
<path d="M224.869 211.194H187.293V272.995H224.869V211.194Z" fill="#E8EDF8"/>
<path opacity="0.2" d="M224.869 211.194V272.995H215.538L211.348 211.194H224.869Z" fill="black"/>
<path d="M130.372 247.711H158.25V236.702H130.372V247.711Z" fill="#E8EDF8"/>
<path d="M158.25 236.711H130.373V247.72H158.25V236.711Z" fill="#E8EDF8"/>
<path opacity="0.2" d="M148.461 247.711L149.376 236.711H158.25V247.711H148.461Z" fill="black"/>
<path d="M187.293 269.334H163.767C162.304 269.334 160.9 268.753 159.865 267.718C158.831 266.683 158.249 265.28 158.249 263.816V221.072C158.249 219.609 158.831 218.205 159.865 217.17C160.9 216.136 162.304 215.554 163.767 215.554H187.293V269.334Z" fill="#E8EDF8"/>
<path opacity="0.2" d="M174.929 269.335L179.119 215.563H187.293V269.335H174.929Z" fill="black"/>
<g opacity="0.2">
<path opacity="0.2" d="M177.091 258.46H178.948V226.428H177.091V258.46Z" fill="black"/>
<path opacity="0.2" d="M171.842 258.46H173.699V226.428H171.842V258.46Z" fill="black"/>
<path opacity="0.2" d="M166.584 258.46H168.442V226.428H166.584V258.46Z" fill="black"/>
</g>
<path d="M251.32 196.362C251.201 196.362 251.087 196.314 251.003 196.23C250.919 196.146 250.872 196.032 250.872 195.913V183.289C250.872 183.17 250.919 183.056 251.003 182.972C251.087 182.888 251.201 182.84 251.32 182.84C251.439 182.84 251.553 182.888 251.637 182.972C251.722 183.056 251.769 183.17 251.769 183.289V195.913C251.769 196.032 251.722 196.146 251.637 196.23C251.553 196.314 251.439 196.362 251.32 196.362Z" fill="#263238"/>
<path d="M228.477 202.409C228.397 202.409 228.319 202.388 228.249 202.349C228.18 202.31 228.122 202.253 228.082 202.184L221.801 191.247C221.764 191.196 221.738 191.138 221.725 191.077C221.712 191.016 221.712 190.952 221.725 190.891C221.738 190.829 221.764 190.771 221.8 190.72C221.837 190.67 221.884 190.627 221.938 190.595C221.993 190.564 222.053 190.544 222.115 190.537C222.178 190.531 222.241 190.537 222.301 190.556C222.361 190.575 222.416 190.607 222.462 190.648C222.509 190.69 222.547 190.741 222.573 190.799L228.853 201.736C228.884 201.786 228.904 201.842 228.912 201.901C228.92 201.959 228.917 202.018 228.902 202.075C228.887 202.132 228.86 202.185 228.824 202.232C228.788 202.278 228.743 202.317 228.692 202.346C228.627 202.386 228.553 202.408 228.477 202.409Z" fill="#263238"/>
<path d="M221.909 292.42C221.829 292.42 221.752 292.399 221.684 292.357C221.634 292.324 221.591 292.282 221.558 292.232C221.525 292.183 221.502 292.127 221.491 292.068C221.48 292.009 221.481 291.949 221.494 291.891C221.508 291.832 221.532 291.777 221.568 291.729L227.848 280.801C227.878 280.749 227.917 280.704 227.964 280.668C228.011 280.632 228.064 280.606 228.121 280.59C228.178 280.575 228.238 280.571 228.297 280.578C228.355 280.586 228.412 280.605 228.463 280.635C228.514 280.664 228.559 280.703 228.595 280.75C228.631 280.797 228.658 280.85 228.673 280.907C228.689 280.965 228.693 281.024 228.685 281.083C228.677 281.141 228.658 281.198 228.629 281.249L222.348 292.177C222.307 292.257 222.244 292.323 222.166 292.366C222.087 292.409 221.998 292.428 221.909 292.42Z" fill="#263238"/>
<path d="M251.033 300.297C250.914 300.297 250.8 300.25 250.716 300.166C250.631 300.082 250.584 299.967 250.584 299.848V287.242C250.584 287.123 250.631 287.009 250.716 286.925C250.8 286.841 250.914 286.794 251.033 286.794C251.151 286.796 251.264 286.844 251.348 286.928C251.431 287.011 251.479 287.124 251.481 287.242V299.866C251.477 299.982 251.428 300.092 251.344 300.172C251.26 300.252 251.149 300.297 251.033 300.297Z" fill="#263238"/>
<path d="M280.193 292.563C280.115 292.563 280.038 292.542 279.97 292.502C279.902 292.463 279.846 292.407 279.807 292.339L273.526 281.411C273.497 281.359 273.478 281.303 273.47 281.244C273.463 281.186 273.467 281.126 273.482 281.069C273.498 281.012 273.524 280.958 273.56 280.912C273.596 280.865 273.641 280.825 273.692 280.796C273.744 280.766 273.8 280.747 273.859 280.74C273.917 280.732 273.977 280.736 274.034 280.752C274.091 280.767 274.145 280.794 274.191 280.83C274.238 280.866 274.278 280.911 274.307 280.962L280.588 291.89C280.618 291.941 280.638 291.997 280.646 292.055C280.655 292.113 280.651 292.173 280.636 292.229C280.621 292.286 280.595 292.34 280.559 292.386C280.523 292.433 280.477 292.472 280.426 292.5C280.356 292.544 280.275 292.565 280.193 292.563Z" fill="#263238"/>
<path d="M274.128 202.552C274.049 202.553 273.971 202.531 273.903 202.489C273.852 202.461 273.807 202.422 273.771 202.375C273.735 202.329 273.709 202.276 273.694 202.219C273.679 202.162 273.675 202.102 273.683 202.044C273.692 201.986 273.712 201.93 273.742 201.879L280.023 190.942C280.088 190.852 280.184 190.79 280.293 190.767C280.402 190.744 280.515 190.762 280.611 190.818C280.707 190.874 280.779 190.963 280.813 191.069C280.846 191.175 280.84 191.289 280.794 191.391L274.514 202.328C274.473 202.395 274.417 202.45 274.349 202.489C274.282 202.528 274.206 202.55 274.128 202.552Z" fill="#263238"/>
<path d="M327.994 60.1114C327.559 82.3626 314.184 91.5717 314.184 91.5717C314.512 90.3399 314.792 89.1493 315.024 87.9996C315.118 87.5432 315.198 87.1012 315.278 86.6592C315.357 86.2172 315.43 85.7752 315.495 85.3477C315.582 84.8116 315.647 84.2826 315.713 83.761L315.799 82.9857C315.838 82.6717 315.867 82.3674 315.886 82.0727C315.886 81.8047 315.93 81.5438 315.944 81.283C315.959 81.0221 315.988 80.6019 316.002 80.2686C316.017 79.9353 316.002 79.602 316.039 79.2759C315.665 81.5848 314.916 83.817 313.821 85.8839C313.916 70.4798 302.091 66.1035 302.091 66.1035L305.561 63.582L312.387 58.6333C313.022 59.8487 313.593 61.0966 314.097 62.372L315.053 62.2199L324.929 60.6113L327.994 60.1114Z" fill="#939AA6"/>
<path opacity="0.2" d="M316.038 79.2767C316.086 77.4498 316.006 75.6219 315.799 73.8062C315.594 76.4429 315.056 79.0429 314.198 81.5445C313.506 78.534 312.535 75.5941 311.3 72.7629C313.201 73.4487 315.248 73.6333 317.241 73.2991C319.743 72.9104 322.05 71.7175 323.813 69.9009L323.994 69.9444C321.9 80.1969 316.835 86.1382 315.01 88.0003C315.104 87.5439 315.191 87.1019 315.263 86.6599C315.336 86.2179 315.415 85.7832 315.48 85.3485C315.546 84.9137 315.633 84.2834 315.698 83.7617C315.734 83.5008 315.763 83.24 315.785 82.9864C315.807 82.7328 315.85 82.3705 315.872 82.0735C315.893 81.7764 315.915 81.5445 315.93 81.2837C315.944 81.0228 315.98 80.6026 315.988 80.2693C315.995 79.936 316.031 79.5737 316.038 79.2767Z" fill="white"/>
<path d="M341.304 56.0328C341.094 54.9376 340.584 53.9221 339.832 53.0985C339.08 52.275 338.115 51.6755 337.044 51.3666C336.065 46.4469 330.769 43.2371 325.045 44.1718C323.781 44.3833 322.558 44.7942 321.422 45.389C319.828 44.3696 317.911 43.982 316.046 44.3022C315.188 44.4478 314.359 44.7291 313.59 45.1354C311.666 44.4283 309.591 44.2336 307.569 44.5703C302.873 45.3383 299.33 48.6568 298.555 52.5404C295.468 53.62 293.483 56.4603 293.947 59.402C294.107 60.355 294.514 61.2494 295.128 61.9959C294.818 63.131 294.754 64.3191 294.94 65.481C295.766 70.5529 301.164 73.9076 307.003 72.9585C308.634 72.696 310.194 72.0991 311.583 71.205C313.827 72.3199 316.366 72.6981 318.838 72.2857C321.31 71.8733 323.588 70.6913 325.349 68.9082C326.987 69.3459 328.699 69.4275 330.37 69.1473C335.029 68.4227 338.551 65.1187 339.362 61.2424C340.089 60.6006 340.647 59.7894 340.985 58.8807C341.324 57.972 341.434 56.9939 341.304 56.0328Z" fill="#939AA6"/>
<path opacity="0.2" d="M339.369 61.2783C338.558 65.1547 335.022 68.4297 330.378 69.1833C328.706 69.4635 326.994 69.3819 325.356 68.9442C323.596 70.7273 321.317 71.9093 318.845 72.3217C316.373 72.7341 313.834 72.3559 311.59 71.241C310.201 72.135 308.642 72.732 307.011 72.9944C301.171 73.9436 295.773 70.5962 294.947 65.517C294.761 64.3551 294.825 63.167 295.135 62.0319C294.521 61.2853 294.114 60.391 293.954 59.438C293.476 56.4963 295.476 53.6415 298.562 52.5764C298.799 51.4226 299.257 50.3254 299.91 49.3449C300.789 48.0707 301.919 46.9898 303.231 46.1686C304.543 45.3475 306.009 44.8034 307.54 44.57C309.562 44.2333 311.636 44.4281 313.561 45.1352C314.329 44.7277 315.159 44.4487 316.017 44.3092C317.881 43.9833 319.799 44.3685 321.393 45.3888C322.529 44.7939 323.751 44.3831 325.016 44.1715C327.851 43.6752 330.769 44.265 333.189 45.8235C334.158 46.4471 334.993 47.2569 335.646 48.2059C336.299 49.155 336.757 50.2244 336.993 51.3519C338.064 51.6608 339.03 52.2602 339.781 53.0838C340.533 53.9073 341.043 54.9229 341.253 56.0181C341.398 56.9823 341.302 57.9674 340.974 58.8854C340.645 59.8034 340.094 60.6256 339.369 61.2783Z" fill="white"/>
<path opacity="0.2" d="M337.101 56.2137C337.101 60.3654 333.044 63.7346 328.037 63.7346C327.307 63.7337 326.579 63.6585 325.864 63.51C325.139 67.0603 321.422 69.7629 316.937 69.7629C313.314 69.7629 310.199 67.995 308.75 65.4156C307.562 65.8567 306.306 66.0824 305.04 66.0822C300.04 66.0822 295.976 62.713 295.976 58.554C296.015 57.3275 296.369 56.1317 297.004 55.0812C297.638 54.0308 298.531 53.1608 299.598 52.5547C299.396 51.4689 299.497 50.3486 299.888 49.3159C300.772 48.0446 301.907 46.9677 303.223 46.1516C304.539 45.3354 306.008 44.7972 307.54 44.57C309.562 44.2333 311.636 44.4281 313.561 45.1352C314.329 44.7277 315.159 44.4487 316.017 44.3092C317.881 43.9833 319.799 44.3685 321.393 45.3888C322.529 44.7939 323.751 44.3831 325.016 44.1715C327.851 43.6752 330.769 44.265 333.189 45.8235C333.966 46.4576 334.595 47.2535 335.033 48.1557C335.471 49.0579 335.707 50.0448 335.725 51.0476C335.72 51.4168 335.686 51.7851 335.623 52.1489C336.558 53.2997 337.079 54.7313 337.101 56.2137Z" fill="white"/>
<path d="M307.322 62.0322L307.467 62.9162L303.192 63.6335L302.265 57.9457L306.416 57.2646L306.561 58.1559L303.467 58.6558L303.707 60.1411L306.453 59.6919L306.598 60.5614L303.844 61.0106L304.105 62.5756L307.322 62.0322Z" fill="white"/>
<path d="M312.365 62.1192L310.916 60.6701L310.698 60.7136L309.416 60.9237L309.684 62.5829L308.626 62.7568L307.698 57.0618L310.046 56.685C311.539 56.4387 312.589 57.0546 312.792 58.3153C312.874 58.7014 312.829 59.1035 312.665 59.4623C312.5 59.821 312.225 60.1175 311.879 60.3078L313.488 61.9671L312.365 62.1192ZM310.155 57.5545L308.916 57.7574L309.285 60.0252L310.524 59.8224C311.452 59.6775 311.865 59.1703 311.742 58.4602C311.618 57.7501 311.082 57.4023 310.155 57.5545Z" fill="white"/>
<path d="M318.306 61.1554L316.857 59.7063L316.64 59.7498L315.357 59.9599L315.625 61.6191L314.568 61.7858L313.64 56.098L315.988 55.714C317.48 55.4749 318.531 56.0835 318.734 57.3442C318.816 57.7314 318.771 58.1347 318.607 58.4947C318.443 58.8547 318.167 59.1524 317.821 59.344L319.429 60.996L318.306 61.1554ZM316.096 56.5907L314.857 56.7936L315.227 59.0614L316.466 58.8586C317.393 58.7064 317.799 58.2065 317.683 57.4891C317.567 56.7718 317.024 56.4385 316.096 56.5907Z" fill="white"/>
<path d="M319.654 58.0107C319.526 57.4032 319.583 56.7714 319.818 56.1965C320.052 55.6217 320.453 55.1302 320.969 54.7854C321.486 54.4407 322.093 54.2584 322.714 54.262C323.335 54.2657 323.94 54.4551 324.452 54.806C324.965 55.1569 325.36 55.653 325.588 56.2306C325.815 56.8081 325.865 57.4406 325.73 58.0465C325.595 58.6525 325.281 59.2041 324.83 59.6303C324.378 60.0565 323.81 60.3378 323.197 60.438C322.804 60.5216 322.399 60.5246 322.004 60.4466C321.61 60.3686 321.236 60.2113 320.905 59.9843C320.574 59.7573 320.292 59.4653 320.077 59.126C319.862 58.7867 319.718 58.4073 319.654 58.0107ZM324.726 57.1847C324.662 56.7884 324.482 56.42 324.208 56.1262C323.934 55.8323 323.58 55.6263 323.189 55.5341C322.798 55.4419 322.389 55.4677 322.013 55.6082C321.637 55.7488 321.311 55.9977 321.077 56.3236C320.842 56.6495 320.71 57.0376 320.696 57.4388C320.682 57.8401 320.787 58.2364 320.999 58.5776C321.21 58.9188 321.519 59.1896 321.884 59.3557C322.25 59.5217 322.656 59.5756 323.052 59.5105C323.318 59.474 323.573 59.3839 323.802 59.2455C324.031 59.1072 324.23 58.9236 324.386 58.706C324.542 58.4883 324.652 58.2412 324.709 57.9796C324.766 57.7181 324.769 57.4476 324.719 57.1847H324.726Z" fill="white"/>
<path d="M331.095 59.069L329.646 57.6199L329.428 57.6633L328.138 57.8662L328.414 59.5255L327.356 59.6994L326.428 54.0116L328.769 53.6276C330.269 53.3885 331.319 53.9971 331.522 55.2578C331.602 55.6447 331.556 56.0469 331.39 56.4055C331.224 56.7641 330.948 57.0602 330.602 57.2503L332.218 58.9096L331.095 59.069ZM328.885 54.5115L327.646 54.7071L328.015 56.975L329.247 56.7794C330.174 56.6272 330.587 56.1273 330.471 55.41C330.356 54.6927 329.805 54.3594 328.885 54.5115Z" fill="white"/>
<path d="M200.91 182.957L197.393 169.123L169.645 176.184L165.975 161.744L188.129 111.162L199.155 108.393L209.858 150.503L218.743 148.238L222.441 162.757L213.556 165.023L217.067 178.857L200.91 182.957ZM181.899 157.587L195.638 154.093L191.108 136.221L181.899 157.587Z" fill="#939AA6"/>
<path d="M280.435 136.777C280.48 141.085 279.775 145.368 278.351 149.434C277.075 153.094 275.132 156.487 272.62 159.44C270.244 162.209 267.311 164.446 264.013 166.004C260.646 167.58 256.97 168.381 253.253 168.348C249.511 168.381 245.808 167.58 242.414 166.004C239.1 164.451 236.153 162.214 233.766 159.44C231.265 156.492 229.344 153.097 228.103 149.434C226.711 145.361 226.023 141.081 226.07 136.777C226.023 132.471 226.71 128.189 228.103 124.115C229.345 120.454 231.266 117.061 233.766 114.114C236.159 111.333 239.104 109.08 242.414 107.499C245.799 105.891 249.505 105.072 253.253 105.104C256.975 105.072 260.655 105.891 264.013 107.499C267.304 109.087 270.231 111.339 272.609 114.114C275.119 117.066 277.062 120.456 278.34 124.115C279.768 128.182 280.477 132.467 280.435 136.777ZM263.661 136.777C263.661 131.914 262.689 127.973 260.745 124.953C258.801 121.933 256.3 120.422 253.242 120.422C250.048 120.422 247.495 121.933 245.585 124.953C243.675 127.973 242.72 131.914 242.72 136.777C242.72 141.64 243.675 145.564 245.585 148.551C247.495 151.537 250.051 153.03 253.253 153.03C256.311 153.03 258.812 151.537 260.756 148.551C262.701 145.564 263.673 141.64 263.673 136.777H263.661Z" fill="#939AA6"/>
<path d="M310.36 180.314L312.625 166.224L284.361 161.626L286.745 146.902L327.235 109.339L338.448 111.157L331.5 154.049L340.561 155.516L338.165 170.324L329.104 168.858L326.839 182.947L310.36 180.314ZM302.998 149.467L316.985 151.733L319.936 133.526L302.998 149.467Z" fill="#939AA6"/>
<path d="M229.854 95.0629C228.743 95.0765 227.643 94.8383 226.637 94.3664C225.692 93.9201 224.846 93.2907 224.146 92.5146C222.753 90.9553 221.976 88.9421 221.96 86.8516C221.955 85.7836 222.161 84.7253 222.566 83.7369C222.958 82.7665 223.524 81.876 224.236 81.1093C224.949 80.3418 225.808 79.7238 226.762 79.2915C227.76 78.8355 228.847 78.6054 229.945 78.6176C231.056 78.603 232.156 78.8493 233.156 79.3368C234.088 79.797 234.923 80.4335 235.613 81.2112C236.305 81.9915 236.848 82.8916 237.216 83.8672C237.994 85.8317 237.994 88.0187 237.216 89.9832C236.832 90.9473 236.273 91.8323 235.568 92.5939C234.858 93.3566 234.003 93.9707 233.054 94.4004C232.048 94.8525 230.956 95.0787 229.854 95.0629ZM225.137 86.8289C225.135 87.5195 225.244 88.2059 225.46 88.8619C225.66 89.4935 225.975 90.0829 226.388 90.6005C226.79 91.1067 227.296 91.5201 227.872 91.8124C228.493 92.1257 229.181 92.2831 229.877 92.2711C230.579 92.2862 231.274 92.1245 231.898 91.801C232.478 91.4968 232.986 91.072 233.388 90.5552C233.795 90.0318 234.104 89.4389 234.299 88.8053C234.73 87.5015 234.73 86.094 234.299 84.7902C234.092 84.1605 233.776 83.572 233.365 83.0517C232.96 82.5501 232.452 82.1407 231.876 81.8511C231.25 81.5491 230.563 81.3923 229.868 81.3923C229.173 81.3923 228.487 81.5491 227.861 81.8511C227.281 82.1506 226.773 82.5717 226.371 83.0857C225.971 83.6076 225.666 84.1961 225.471 84.8242C225.256 85.4711 225.144 86.1474 225.137 86.8289Z" fill="#939AA6"/>
<path d="M245.455 95.1753C244.552 95.1921 243.655 95.0205 242.822 94.6713C242.076 94.3595 241.404 93.8968 240.846 93.3122C240.304 92.7411 239.879 92.0698 239.594 91.3358C239.02 89.808 239.02 88.1237 239.594 86.5959C239.877 85.8579 240.303 85.1826 240.846 84.6082C241.404 84.0236 242.076 83.5609 242.822 83.249C243.655 82.8999 244.552 82.7283 245.455 82.745C246.353 82.7281 247.244 82.8998 248.072 83.249C248.813 83.5625 249.482 84.0251 250.037 84.6082C250.578 85.1792 251.004 85.8506 251.288 86.5846C251.862 88.1124 251.862 89.7966 251.288 91.3245C251.005 92.0554 250.586 92.7261 250.054 93.3009C249.498 93.8853 248.827 94.3481 248.083 94.66C247.252 95.0126 246.357 95.1881 245.455 95.1753ZM242.318 88.98C242.311 89.474 242.393 89.9652 242.561 90.4297C242.709 90.8456 242.934 91.2298 243.224 91.5623C243.49 91.8758 243.82 92.1287 244.192 92.3042C244.581 92.4798 245.003 92.5706 245.43 92.5706C245.856 92.5706 246.278 92.4798 246.667 92.3042C247.047 92.1314 247.385 91.8783 247.658 91.5623C247.948 91.2287 248.175 90.8449 248.326 90.4297C248.49 89.9583 248.57 89.462 248.564 88.963C248.569 88.4734 248.488 87.9867 248.326 87.5246C248.175 87.1095 247.948 86.7256 247.658 86.392C247.385 86.076 247.047 85.8229 246.667 85.6502C246.28 85.4727 245.859 85.3819 245.433 85.384C245.003 85.3797 244.579 85.4747 244.192 85.6615C243.814 85.8422 243.477 86.0986 243.201 86.4147C242.911 86.7472 242.687 87.1315 242.539 87.5473C242.381 88.008 242.306 88.4931 242.318 88.98Z" fill="#939AA6"/>
<path d="M260.961 95.1758C260.096 95.1964 259.242 94.979 258.492 94.5472C257.799 94.14 257.23 93.553 256.844 92.8483V99.8195H253.78V82.9607H256.459V85.0221C256.879 84.337 257.463 83.7669 258.158 83.3628C258.907 82.9431 259.756 82.7337 260.615 82.7569C261.398 82.7469 262.173 82.9154 262.88 83.2495C263.553 83.5695 264.156 84.0199 264.653 84.5747C265.16 85.1522 265.555 85.8184 265.82 86.5397C266.102 87.3046 266.244 88.1142 266.239 88.9295C266.244 89.7623 266.114 90.5905 265.854 91.3816C265.614 92.1045 265.246 92.778 264.766 93.3693C264.315 93.9249 263.749 94.3768 263.107 94.6945C262.441 95.0258 261.705 95.1909 260.961 95.1758ZM259.936 92.5708C260.376 92.5732 260.811 92.4703 261.204 92.2707C261.586 92.0763 261.924 91.8043 262.195 91.4722C262.479 91.1256 262.698 90.7303 262.841 90.3056C262.993 89.8629 263.07 89.3977 263.067 88.9295C263.07 88.4502 262.985 87.9743 262.818 87.5251C262.659 87.1061 262.42 86.7217 262.116 86.3925C261.82 86.0723 261.461 85.816 261.063 85.6393C260.651 85.451 260.202 85.3562 259.749 85.3618C259.446 85.3644 259.146 85.416 258.86 85.5147C258.557 85.6105 258.271 85.7518 258.01 85.9338C257.752 86.1168 257.518 86.3318 257.314 86.5737C257.112 86.8131 256.953 87.085 256.844 87.3779V90.2094C257.109 90.8745 257.542 91.4598 258.101 91.9083C258.618 92.334 259.266 92.5681 259.936 92.5708Z" fill="#939AA6"/>
<path d="M272.813 95.1753C271.81 95.1771 270.814 95.0145 269.863 94.6939C268.963 94.4028 268.13 93.9371 267.411 93.3235L268.543 91.4037C269.207 91.8812 269.926 92.2767 270.684 92.5816C271.345 92.84 272.047 92.9744 272.757 92.978C273.259 93.0041 273.758 92.8862 274.195 92.6382C274.361 92.5335 274.496 92.3877 274.588 92.215C274.681 92.0423 274.727 91.8486 274.722 91.6529C274.727 91.4527 274.67 91.2558 274.56 91.0888C274.45 90.9217 274.291 90.7925 274.105 90.7185C273.454 90.4355 272.781 90.2045 272.094 90.0276C271.313 89.8181 270.65 89.6085 270.101 89.4103C269.628 89.2534 269.181 89.0262 268.776 88.7364C268.463 88.5142 268.211 88.216 268.045 87.87C267.883 87.4989 267.804 87.0969 267.813 86.6921C267.804 86.1226 267.926 85.5587 268.17 85.0441C268.403 84.5585 268.744 84.1324 269.166 83.7983C269.612 83.4439 270.118 83.1751 270.661 83.0055C271.265 82.8198 271.893 82.7281 272.525 82.7336C273.383 82.7282 274.238 82.8581 275.056 83.1187C275.854 83.3865 276.589 83.8164 277.214 84.3816L275.979 86.2334C275.44 85.8142 274.843 85.4747 274.206 85.2254C273.664 85.016 273.089 84.9066 272.508 84.9026C272.052 84.887 271.601 84.9987 271.205 85.2254C271.033 85.3339 270.893 85.487 270.8 85.6683C270.707 85.8497 270.665 86.0527 270.678 86.256C270.673 86.4395 270.716 86.6211 270.803 86.7827C270.905 86.9351 271.043 87.0597 271.205 87.1451C271.434 87.272 271.675 87.3763 271.924 87.4566C272.224 87.5529 272.593 87.6605 273.057 87.7624C273.884 87.9776 274.586 88.1928 275.175 88.408C275.674 88.5828 276.145 88.8289 276.574 89.1385C276.922 89.3814 277.206 89.7061 277.4 90.0842C277.588 90.4981 277.677 90.9497 277.661 91.4037C277.681 91.9375 277.574 92.4684 277.347 92.9522C277.121 93.4359 276.782 93.8583 276.358 94.1842C275.32 94.9001 274.072 95.2489 272.813 95.1753Z" fill="#939AA6"/>
<path d="M280.249 88.8388V78.5435H283.312V88.8388H280.249ZM280.249 94.9492V91.4948H283.312V94.9492H280.249Z" fill="#939AA6"/>
</svg>
