<svg width="138" height="123" viewBox="0 0 138 123" fill="none" xmlns="http://www.w3.org/2000/svg">
	<path d="M133.222 86.3256C135.712 86.3256 137.731 84.3069 137.731 81.8168C137.731 79.3267 135.712 77.3081 133.222 77.3081C130.732 77.3081 128.713 79.3267 128.713 81.8168C128.713 84.3069 130.732 86.3256 133.222 86.3256Z" fill="#EAEEF9" />
	<path d="M124.564 98.9053C126.264 98.9053 127.643 97.5268 127.643 95.8262C127.643 94.1256 126.264 92.7471 124.564 92.7471C122.863 92.7471 121.484 94.1256 121.484 95.8262C121.484 97.5268 122.863 98.9053 124.564 98.9053Z" fill="#F1F3F9" />
	<path d="M24.7925 23.6431C26.4931 23.6431 27.8716 22.2646 27.8716 20.564C27.8716 18.8634 26.4931 17.4849 24.7925 17.4849C23.092 17.4849 21.7134 18.8634 21.7134 20.564C21.7134 22.2646 23.092 23.6431 24.7925 23.6431Z" fill="#EAEEF9" />
	<path d="M5.98792 83.0266C9.1461 83.0266 11.7063 80.4664 11.7063 77.3082C11.7063 74.1501 9.1461 71.5898 5.98792 71.5898C2.82974 71.5898 0.269531 74.1501 0.269531 77.3082C0.269531 80.4664 2.82974 83.0266 5.98792 83.0266Z" fill="#EAEEF9" />
	<path d="M75.4335 111.729C106.225 111.729 131.188 86.7656 131.188 55.8643C131.188 24.963 106.225 0 75.4335 0C44.6422 0 19.6792 24.963 19.6792 55.8643C19.6792 86.7656 44.6422 111.729 75.4335 111.729Z" fill="#EAEEF9" />
	<path d="M110.182 7.24854C111.854 7.24854 113.269 8.52865 113.269 10.3208V100.953C113.269 102.617 111.983 104.025 110.182 104.025H43.1578C41.4854 104.025 40.0703 102.745 40.0703 100.953V10.3208C40.0703 8.65666 41.3568 7.24854 43.1578 7.24854H110.182Z" fill="#CED7E2" />
	<path d="M113.27 16.7214V100.825C113.27 102.489 111.983 103.897 110.182 103.897H48.947L43.5439 98.5206L104.393 15.1853L109.667 13.2651L113.27 16.7214Z" fill="#BCC4CF" />
	<path d="M109.925 14.2892C109.925 13.7772 109.539 13.2651 108.896 13.2651H44.5731C44.0585 13.2651 43.5439 13.6492 43.5439 14.2892V97.4965C43.5439 98.0086 43.9299 98.5206 44.5731 98.5206H108.767C109.282 98.5206 109.796 98.1366 109.796 97.4965L109.925 14.2892Z" fill="#D9DFEE" />
	<path d="M109.924 14.2887C109.924 13.7767 109.538 13.2646 108.895 13.2646H44.5728C44.0582 13.2646 43.5436 13.6487 43.5436 14.2887C44.3155 47.4437 44.5728 84.951 40.9707 94.6798L102.592 93.7837C106.322 76.8862 109.153 46.5476 109.924 14.2887Z" fill="#EFF3FB" />
	<g filter="url(#filter0_d_3751_59547)">
		<path d="M109.796 13.3931C109.796 13.3931 109.667 18.3855 108.123 50.2603C108.123 50.5163 108.123 50.6443 108.123 50.9004C106.194 82.1351 78.4063 88.6637 75.0616 89.0477C73.5178 89.1757 70.559 89.4318 65.2845 89.4318C58.7236 89.6878 48.6893 89.8158 32.9947 89.9438C32.4801 89.9438 32.0941 89.4318 32.3514 88.9197C43.1576 67.2858 43.2862 13.5211 43.2862 13.5211L109.796 13.3931Z" fill="white" />
	</g>
	<path d="M107.995 50.7725C106.194 82.0072 78.278 88.5358 74.9333 88.9198C73.3895 89.0478 70.4307 89.3038 65.1562 89.3038C79.0499 82.9033 86.5113 71.3823 86.3827 62.4215C93.0722 62.9335 104.65 62.4215 107.995 50.7725Z" fill="#EAEEF9" />
	<path d="M92.3004 7.50448C92.3004 7.37647 92.3004 7.37647 92.3004 7.50448L91.6572 6.86443C91.6572 6.86443 91.2712 6.99244 91.1426 7.24846H81.1083C81.1083 6.99244 81.1083 6.86443 81.1083 6.6084C81.1083 4.56022 79.3073 2.76807 77.249 2.76807C75.1906 2.76807 73.3896 4.56022 73.3896 6.6084C73.3896 6.86443 73.3896 6.99244 73.5182 7.12045H63.098C62.5834 7.12045 62.0688 7.50448 62.0688 8.27255V11.6008C62.0688 14.1611 63.8699 15.6972 66.3141 15.6972H87.6692C90.2421 15.6972 92.4291 14.1611 92.4291 11.6008V8.14454C92.5577 7.88852 92.4291 7.63249 92.3004 7.50448Z" fill="#636F84" />
	<path d="M91.9146 7.50448V10.8328C91.9146 11.0888 91.9146 11.2168 91.9146 11.4728C91.5287 13.649 89.7277 15.4412 87.4121 15.4412H65.9284C63.6127 15.4412 61.8117 13.649 61.4258 11.4728C61.4258 11.2168 61.4258 11.0888 61.4258 10.8328V7.50448C61.4258 6.99244 61.8117 6.35238 62.4549 6.35238H73.0038C73.0038 6.09636 73.0038 5.96835 73.0038 5.84034C73.0038 3.79216 74.8049 2 76.8632 2C78.9215 2 80.7225 3.79216 80.7225 5.84034C80.7225 6.09636 80.7225 6.22437 80.7225 6.35238H91.2714C91.5287 6.48039 91.9146 6.86443 91.9146 7.50448Z" fill="url(#paint0_linear_3751_59547)" />
	<path d="M76.6057 7.63266C77.6349 7.63266 78.4067 6.86459 78.4067 5.8405C78.4067 4.81641 77.6349 4.04834 76.6057 4.04834C75.5766 4.04834 74.8047 4.81641 74.8047 5.8405C74.8047 6.86459 75.7052 7.63266 76.6057 7.63266Z" fill="#EAEEF9" />
	<path d="M91.786 11.4727C91.4001 13.6488 89.599 15.441 87.2834 15.441H65.9284C63.6127 15.441 61.8117 13.6488 61.4258 11.4727H91.786Z" fill="#9AA1B2" />
	<path d="M90.7971 68.6923H61.0938C60.8897 68.6923 60.6855 68.382 60.6855 67.8647C60.6855 67.4509 60.8897 67.0371 61.0938 67.0371H90.8992C91.1033 67.0371 91.3075 67.3475 91.3075 67.8647C91.3075 68.2785 91.1033 68.6923 90.7971 68.6923Z" fill="#AAB2C5" />
	<path d="M75.1907 73.6582H61.0776C60.8816 73.6582 60.6855 73.3478 60.6855 72.8305C60.6855 72.4167 60.8816 72.0029 61.0776 72.0029H75.1907C75.3867 72.0029 75.5827 72.3133 75.5827 72.8305C75.5827 73.2444 75.3867 73.6582 75.1907 73.6582Z" fill="#AAB2C5" />
	<path d="M95.8539 31.4497H65.2431C65.0334 31.4497 64.8237 31.1393 64.8237 30.6221C64.8237 30.2082 65.0334 29.7944 65.2431 29.7944H95.8539C96.0636 29.7944 96.2733 30.1048 96.2733 30.6221C96.2733 31.1393 96.0636 31.4497 95.8539 31.4497Z" fill="#AAB2C5" />
	<path d="M95.0451 35.5879H83.4317C83.2315 35.5879 83.0312 35.2775 83.0312 34.7602C83.0312 34.3464 83.2315 33.9326 83.4317 33.9326H95.0451C95.2453 33.9326 95.4455 34.243 95.4455 34.7602C95.4455 35.2775 95.2453 35.5879 95.0451 35.5879Z" fill="#AAB2C5" />
	<path d="M80.1347 35.5879H65.2375C65.0306 35.5879 64.8237 35.2775 64.8237 34.7602C64.8237 34.3464 65.0306 33.9326 65.2375 33.9326H80.1347C80.3416 33.9326 80.5485 34.243 80.5485 34.7602C80.5485 35.2775 80.3416 35.5879 80.1347 35.5879Z" fill="#AAB2C5" />
	<path d="M53.1679 36.4154C52.9494 36.4154 52.731 36.3078 52.5125 36.0927L49.3449 33.081C49.0172 32.7583 49.0172 32.1129 49.3449 31.7903C49.6726 31.4676 50.3279 31.4676 50.6556 31.7903L53.1679 34.2642L58.3017 29.2088C58.6293 28.8861 59.2847 28.8861 59.6124 29.2088C59.9401 29.5315 59.9401 30.1769 59.6124 30.4995L53.8233 36.2003C53.6048 36.3078 53.3864 36.4154 53.1679 36.4154Z" fill="#AAB2C5" />
	<path d="M94.2097 49.6572H64.4044C64.2002 49.6572 63.9961 49.3468 63.9961 48.8296C63.9961 48.4158 64.2002 48.002 64.4044 48.002H94.2097C94.4139 48.002 94.618 48.3123 94.618 48.8296C94.618 49.2434 94.4139 49.6572 94.2097 49.6572Z" fill="#AAB2C5" />
	<path d="M78.4764 54.623H64.3875C64.1918 54.623 63.9961 54.3127 63.9961 53.7954C63.9961 53.3816 64.1918 52.9678 64.3875 52.9678H78.4764C78.6721 52.9678 78.8678 53.2781 78.8678 53.7954C78.9656 54.2092 78.7699 54.623 78.4764 54.623Z" fill="#AAB2C5" />
	<path d="M51.9265 54.6229C51.7248 54.6229 51.5231 54.5153 51.3215 54.3002L48.4983 51.2885C48.1959 50.9658 48.1959 50.3205 48.4983 49.9978C48.8008 49.6751 49.4058 49.6751 49.7083 49.9978L52.0273 52.4717L56.7661 47.4163C57.0686 47.0936 57.6736 47.0936 57.9761 47.4163C58.2785 47.739 58.2785 48.3844 57.9761 48.7071L52.5314 54.3002C52.4306 54.5153 52.2289 54.6229 51.9265 54.6229Z" fill="#AAB2C5" />
	<path d="M48.6159 73.658C48.4143 73.658 48.2126 73.5505 48.0109 73.3354L45.1878 70.3237C44.8853 70.001 44.8853 69.3556 45.1878 69.0329C45.4903 68.7103 46.0952 68.7103 46.3977 69.0329L48.7167 71.5068L53.4556 66.4515C53.7581 66.1288 54.363 66.1288 54.6655 66.4515C54.968 66.7742 54.968 67.4195 54.6655 67.7422L49.2209 73.3354C49.12 73.5505 48.9184 73.658 48.6159 73.658Z" fill="#AAB2C5" />
	<path d="M125.804 95.4587C125.38 97.2643 124.742 99.1761 123.999 100.769C121.981 104.699 118.794 107.779 114.865 109.797C110.829 111.815 106.049 112.665 101.27 111.603C90.0113 109.266 82.7889 98.2202 85.1256 86.9619C87.4622 75.7035 98.4019 68.3749 109.66 70.8178C113.696 71.6675 117.201 73.6855 120.175 76.447C125.167 81.4389 127.291 88.6612 125.804 95.4587Z" fill="url(#paint1_linear_3751_59547)" />
	<path d="M112.103 89.4044H107.323V84.6249C107.323 83.669 106.58 82.8193 105.518 82.8193C104.562 82.8193 103.712 83.5628 103.712 84.6249V89.4044H98.9325C97.9766 89.4044 97.127 90.1479 97.127 91.21C97.127 92.2721 97.8704 93.0156 98.9325 93.0156H103.712V97.7951C103.712 98.751 104.456 99.6007 105.518 99.6007C106.474 99.6007 107.323 98.8572 107.323 97.7951V93.0156H112.103C113.059 93.0156 113.908 92.2721 113.908 91.21C113.908 90.1479 113.059 89.4044 112.103 89.4044Z" fill="white" />
	<defs>
		<filter id="filter0_d_3751_59547" x="10.2695" y="2.39307" width="121.526" height="120.551" filterUnits="userSpaceOnUse" color-interpolation-filters="sRGB">
			<feFlood flood-opacity="0" result="BackgroundImageFix" />
			<feColorMatrix in="SourceAlpha" type="matrix" values="0 0 0 0 0 0 0 0 0 0 0 0 0 0 0 0 0 0 127 0" result="hardAlpha" />
			<feOffset dy="11" />
			<feGaussianBlur stdDeviation="11" />
			<feColorMatrix type="matrix" values="0 0 0 0 0.397708 0 0 0 0 0.47749 0 0 0 0 0.575 0 0 0 0.27 0" />
			<feBlend mode="normal" in2="BackgroundImageFix" result="effect1_dropShadow_3751_59547" />
			<feBlend mode="normal" in="SourceGraphic" in2="effect1_dropShadow_3751_59547" result="shape" />
		</filter>
		<linearGradient id="paint0_linear_3751_59547" x1="61.4626" y1="8.72226" x2="91.944" y2="8.72226" gradientUnits="userSpaceOnUse">
			<stop stop-color="#B0BACC" />
			<stop offset="1" stop-color="#969EAE" />
		</linearGradient>
		<linearGradient id="paint1_linear_3751_59547" x1="84.6675" y1="91.2097" x2="126.278" y2="91.2097" gradientUnits="userSpaceOnUse">
			<stop stop-color="#B0BACC" />
			<stop offset="1" stop-color="#969EAE" />
		</linearGradient>
	</defs>
</svg>
