<svg width="56" height="57" viewBox="0 0 56 57" fill="none" xmlns="http://www.w3.org/2000/svg">
<path d="M5.25 51.4534V22.5784C5.25 21.8822 5.52656 21.2145 6.01884 20.7222C6.51113 20.2299 7.17881 19.9534 7.875 19.9534H48.125C48.8212 19.9534 49.4889 20.2299 49.9812 20.7222C50.4734 21.2145 50.75 21.8822 50.75 22.5784V51.4534H5.25Z" fill="#383838"/>
<path d="M50.75 22.5784C50.7462 22.3229 50.7049 22.0694 50.6275 21.8259C50.384 21.7484 50.1305 21.7072 49.875 21.7034H9.625C8.92881 21.7034 8.26113 21.9799 7.76884 22.4722C7.27656 22.9645 7 23.6322 7 24.3284V35.7034C7 37.1972 7.29422 38.6763 7.86587 40.0564C8.43752 41.4365 9.27539 42.6904 10.3317 43.7467C12.4649 45.8799 15.3582 47.0784 18.375 47.0784H50.75V22.5784Z" fill="#4C4C4C"/>
<path d="M8.75 51.4534V23.4534H47.25V51.4534" fill="#66C3E9"/>
<path d="M47.25 23.4534H8.75V41.7461C9.77108 43.3777 11.19 44.7229 12.8736 45.6557C14.5573 46.5884 16.4503 47.0779 18.375 47.0784H47.25V23.4534Z" fill="#8ADEF9"/>
<path d="M12.25 35.7034H43.75V46.2034H12.25V35.7034Z" fill="#0059BE"/>
<path d="M24.5 44.4534H43.75V35.7034H14.1575C14.5697 38.1487 15.8346 40.369 17.7278 41.9707C19.621 43.5724 22.0202 44.4519 24.5 44.4534Z" fill="#006BDB"/>
<path d="M35.875 35.7034H43.75V46.2034H35.875V35.7034Z" fill="#F2B129"/>
<path d="M35.875 35.7034H43.75V44.4534H35.875V35.7034Z" fill="#EED05F"/>
<path d="M14.875 38.3284H21.875V40.0784H14.875V38.3284Z" fill="#D7E0EF"/>
<path d="M14.875 41.8284H26.25V43.5784H14.875V41.8284Z" fill="#D7E0EF"/>
<path d="M40.25 38.3284H43.75V40.0784H40.25V38.3284Z" fill="white"/>
<path d="M38.5 41.8284H43.75V43.5784H38.5V41.8284Z" fill="white"/>
<path d="M28 32.2034C36.2152 32.2034 42.875 25.5436 42.875 17.3284C42.875 9.11313 36.2152 2.45337 28 2.45337C19.7848 2.45337 13.125 9.11313 13.125 17.3284C13.125 25.5436 19.7848 32.2034 28 32.2034Z" fill="#F2B129"/>
<path d="M28 2.45338C24.4826 2.45021 21.079 3.69932 18.3986 5.977C15.9865 8.82337 14.7328 12.4727 14.8864 16.2005C15.04 19.9284 16.5898 23.4622 19.228 26.1004C21.8662 28.7386 25.4 30.2884 29.1279 30.442C32.8557 30.5956 36.505 29.3419 39.3514 26.9298C41.1851 24.7655 42.3614 22.1217 42.7413 19.3106C43.1212 16.4995 42.6889 13.6384 41.4954 11.065C40.302 8.49163 38.3972 6.31341 36.0059 4.78749C33.6146 3.26158 30.8367 2.45167 28 2.45338Z" fill="#EED05F"/>
<path d="M30.0414 17.912L34.125 26.0784L35.875 23.4534L33.4355 14.51L30.8184 11.8929L21.875 9.45337L19.25 11.2034L27.4164 15.287L30.0414 17.912Z" fill="#0059BE"/>
<path d="M21.8749 38.3284H14.9624C15.2458 38.9435 15.5884 39.5296 15.9853 40.0784H21.8749V38.3284Z" fill="white"/>
<path d="M26.25 41.8284H17.5718C18.3924 42.5522 19.3216 43.1427 20.3254 43.5784H26.25V41.8284Z" fill="white"/>
<path d="M36.75 9.92149C36.7499 10.1868 36.6714 10.4462 36.5243 10.667C35.5107 12.1878 34.3491 13.6046 33.0566 14.8967L26.25 21.7034L27.125 26.0784L25.375 27.8284L22.75 22.5784L17.5 19.9534L19.25 18.2034L23.625 19.0784L30.4316 12.2717C31.7238 10.9792 33.1406 9.81772 34.6614 8.80412C34.8822 8.65698 35.1415 8.57843 35.4069 8.57837C35.7631 8.57837 36.1047 8.71988 36.3566 8.97176C36.6085 9.22365 36.75 9.56528 36.75 9.92149Z" fill="#006BDB"/>
<path d="M54.25 49.7034C54.25 51.0958 53.6969 52.4311 52.7123 53.4157C51.7277 54.4002 50.3924 54.9534 49 54.9534H7C5.60825 54.9513 4.2741 54.3975 3.28999 53.4134C2.30588 52.4293 1.75208 51.0951 1.75 49.7034H21.875L24.5 51.4534H31.5L34.125 49.7034H54.25Z" fill="#383838"/>
<path d="M34.1249 49.7034L31.4999 51.4534H24.4999L21.8749 49.7034H2.92944C3.29109 50.7263 3.96077 51.612 4.84637 52.2388C5.73197 52.8655 6.79 53.2025 7.87494 53.2034H49.8749C50.6838 53.2029 51.4815 53.0151 52.2057 52.6547C52.9298 52.2943 53.5606 51.7711 54.0487 51.1261C54.1809 50.6634 54.2486 50.1846 54.2499 49.7034H34.1249Z" fill="#4C4C4C"/>
</svg>
