<svg width="148" height="149" viewBox="0 0 148 149" fill="none" xmlns="http://www.w3.org/2000/svg">
	<path d="M91.4891 17.8512H57.6783V11.1779C57.6783 5.00502 62.8502 0 69.0231 0H80.1444C86.4841 0 91.4891 5.17185 91.4891 11.1779V17.8512Z" fill="url(#paint0_linear_200_7966)" />
	<path d="M114.874 37.7044L106.199 28.3617L114.541 20.6873C115.709 19.5195 117.544 19.6863 118.545 20.8541L123.383 26.026C124.551 27.1938 124.384 29.029 123.216 30.03L114.874 37.7044Z" fill="url(#paint1_linear_200_7966)" />
	<path d="M32.9589 37.7044L41.6343 28.3617L33.2926 20.6873C32.1247 19.5195 30.2895 19.6863 29.2885 20.8541L24.4504 26.026C23.2825 27.1938 23.4494 29.029 24.6172 30.03L32.9589 37.7044Z" fill="url(#paint2_linear_200_7966)" />
	<g filter="url(#filter0_d_200_7966)">
		<path d="M74 115.95C102.656 115.95 125.885 92.9439 125.885 64.5648C125.885 36.1857 102.656 13.1799 74 13.1799C45.3445 13.1799 22.1146 36.1857 22.1146 64.5648C22.1146 92.9439 45.3445 115.95 74 115.95Z" fill="#E9EDF8" />
	</g>
	<path d="M73.9999 108.275C98.3248 108.275 118.044 88.7054 118.044 64.5648C118.044 40.4241 98.3248 20.8542 73.9999 20.8542C49.6749 20.8542 29.9557 40.4241 29.9557 64.5648C29.9557 88.7054 49.6749 108.275 73.9999 108.275Z" fill="white" />
	<path opacity="0.3" d="M118.044 64.5648C118.044 65.399 118.044 66.0664 117.877 66.9005C116.71 43.7106 97.5237 25.5257 74.0001 25.5257C50.4765 25.5257 31.2906 43.8774 29.9559 66.7337C29.9559 65.8995 29.7891 65.2322 29.7891 64.398C29.7891 40.2071 49.6423 20.6875 73.8332 20.6875C98.3578 20.8543 118.044 40.3739 118.044 64.5648Z" fill="#D2DFF8" />
	<path opacity="0.7" d="M109.369 64.5648C109.369 65.8994 109.202 67.0673 109.202 68.2351C109.035 70.9044 106.032 72.406 103.53 71.2381L85.011 61.5617C83.6763 60.8944 82.8422 59.5597 82.8422 58.0582V36.203C82.8422 33.3668 85.6783 31.3648 88.3477 32.5326C100.693 38.0381 109.369 50.217 109.369 64.5648Z" fill="#D6DCE8" />
	<path d="M76.5024 62.7297H71.6642L71.831 41.0412C71.831 39.7066 72.9989 38.7056 74.1667 38.7056C75.5014 38.7056 76.5024 39.8734 76.5024 41.0412V62.7297Z" fill="#AAB2C5" />
	<path d="M70.8301 65.7326C70.8301 64.0643 72.1647 62.5627 73.9999 62.5627C75.8351 62.5627 77.0029 63.8974 77.0029 65.5658C77.0029 67.2341 75.6683 68.7356 73.8331 68.7356C72.1647 68.7356 70.8301 67.5678 70.8301 65.7326Z" fill="#AAB2C5" />
	<path d="M105.031 81.7488C104.864 81.9156 104.364 81.9156 104.197 81.9156L73.4995 66.5669C73.1658 66.4 72.999 65.8995 73.1658 65.5659C73.3326 65.2322 73.8331 65.0654 74.1668 65.2322L104.864 80.5809C105.198 80.7478 105.365 81.2483 105.198 81.5819C105.365 81.7488 105.198 81.7488 105.031 81.7488Z" fill="#AAB2C5" />
	<path d="M68.4945 65.7326C68.4945 62.8964 70.8302 60.5607 73.8332 60.3939C76.8362 60.227 79.005 62.7296 79.005 65.5657C79.005 68.4019 76.6694 70.7376 73.6664 70.9044C70.8302 71.2381 68.4945 68.7356 68.4945 65.7326Z" fill="white" />
	<path fill-rule="evenodd" clip-rule="evenodd" d="M73.4076 67.9142L73.4999 67.909C75.068 67.8219 76.005 66.6592 76.005 65.5657C76.005 64.1542 74.9996 63.3337 73.9996 63.3893C72.4316 63.4764 71.4945 64.6391 71.4945 65.7326C71.4945 66.464 71.7811 67.0832 72.1614 67.4719C72.524 67.8425 72.9217 67.9713 73.3158 67.925L73.4076 67.9142ZM73.6664 70.9044C76.6694 70.7376 79.005 68.4019 79.005 65.5657C79.005 62.7296 76.8362 60.227 73.8332 60.3939C70.8302 60.5607 68.4945 62.8964 68.4945 65.7326C68.4945 68.7356 70.8302 71.2381 73.6664 70.9044Z" fill="#AAB2C5" />
	<path d="M75.3346 95.0955H72.4984C71.9979 95.0955 71.4974 95.4291 71.4974 96.0965V103.103C71.4974 103.604 71.8311 104.104 72.4984 104.104H75.3346C75.8351 104.104 76.3356 103.771 76.3356 103.103V96.0965C76.1688 95.596 75.8351 95.0955 75.3346 95.0955Z" fill="#D6DCE8" />
	<path d="M75.3346 24.1909H72.4984C71.9979 24.1909 71.4974 24.5246 71.4974 25.1919V32.1989C71.4974 32.6995 71.8311 33.2 72.4984 33.2H75.3346C75.8351 33.2 76.3356 32.8663 76.3356 32.1989V25.1919C76.1688 24.6914 75.8351 24.1909 75.3346 24.1909Z" fill="#D6DCE8" />
	<path d="M42.4684 61.395H35.4613C34.9608 61.395 34.4603 61.7287 34.4603 62.396V65.2322C34.4603 65.7327 34.794 66.2332 35.4613 66.2332H42.4684C42.9689 66.2332 43.4694 65.8995 43.4694 65.2322V62.396C43.4694 61.7287 42.9689 61.395 42.4684 61.395Z" fill="#D6DCE8" />
	<path d="M88.1982 101.286C89.4025 100.824 90.004 99.473 89.5417 98.2687C89.0793 97.0644 87.7283 96.4629 86.524 96.9252C85.3197 97.3876 84.7182 98.7386 85.1805 99.9429C85.6428 101.147 86.9939 101.749 88.1982 101.286Z" fill="#D6DCE8" />
	<path d="M102.551 91.8182C103.447 90.8903 103.422 89.4116 102.494 88.5155C101.566 87.6193 100.087 87.6451 99.1913 88.5729C98.2952 89.5008 98.3209 90.9795 99.2487 91.8756C100.177 92.7718 101.655 92.7461 102.551 91.8182Z" fill="#D6DCE8" />
	<path d="M39.3673 77.4735C40.5877 77.0558 41.2384 75.7278 40.8208 74.5074C40.4031 73.287 39.0751 72.6362 37.8547 73.0539C36.6343 73.4716 35.9835 74.7995 36.4012 76.02C36.8189 77.2404 38.1468 77.8911 39.3673 77.4735Z" fill="#D6DCE8" />
	<path d="M48.8941 91.1056C49.8237 90.2112 49.8524 88.7326 48.9581 87.8029C48.0637 86.8733 46.5851 86.8446 45.6554 87.7389C44.7257 88.6333 44.697 90.1119 45.5914 91.0416C46.4857 91.9712 47.9644 91.9999 48.8941 91.1056Z" fill="#D6DCE8" />
	<path d="M62.882 98.9197C63.3465 97.7163 62.7475 96.3642 61.5441 95.8996C60.3407 95.4351 58.9886 96.0341 58.5241 97.2375C58.0595 98.4409 58.6585 99.793 59.8619 100.258C61.0653 100.722 62.4174 100.123 62.882 98.9197Z" fill="#D6DCE8" />
	<path d="M63.3835 31.5677C64.608 31.1617 65.2714 29.8399 64.8653 28.6155C64.4592 27.391 63.1374 26.7276 61.913 27.1337C60.6885 27.5398 60.0251 28.8615 60.4312 30.086C60.8373 31.3104 62.1591 31.9738 63.3835 31.5677Z" fill="#D6DCE8" />
	<path d="M50.0612 39.4064C50.9993 38.5209 51.0419 37.0427 50.1565 36.1047C49.2711 35.1666 47.7928 35.124 46.8548 36.0094C45.9167 36.8948 45.874 38.373 46.7595 39.3111C47.6449 40.2491 49.1232 40.2918 50.0612 39.4064Z" fill="#D6DCE8" />
	<path d="M41.2698 52.0204C41.7118 50.9072 41.1676 49.6464 40.0544 49.2044C38.9411 48.7625 37.6803 49.3066 37.2383 50.4199C36.7963 51.5331 37.3405 52.7939 38.4537 53.2359C39.567 53.6778 40.8278 53.1337 41.2698 52.0204Z" fill="#D6DCE8" />
	<defs>
		<filter id="filter0_d_200_7966" x="0.114624" y="2.17993" width="147.771" height="146.77" filterUnits="userSpaceOnUse" color-interpolation-filters="sRGB">
			<feFlood flood-opacity="0" result="BackgroundImageFix" />
			<feColorMatrix in="SourceAlpha" type="matrix" values="0 0 0 0 0 0 0 0 0 0 0 0 0 0 0 0 0 0 127 0" result="hardAlpha" />
			<feOffset dy="11" />
			<feGaussianBlur stdDeviation="11" />
			<feColorMatrix type="matrix" values="0 0 0 0 0.397708 0 0 0 0 0.47749 0 0 0 0 0.575 0 0 0 0.27 0" />
			<feBlend mode="normal" in2="BackgroundImageFix" result="effect1_dropShadow_200_7966" />
			<feBlend mode="normal" in="SourceGraphic" in2="effect1_dropShadow_200_7966" result="shape" />
		</filter>
		<linearGradient id="paint0_linear_200_7966" x1="74.5864" y1="0.620131" x2="74.5864" y2="10.6399" gradientUnits="userSpaceOnUse">
			<stop stop-color="#B0BACC" />
			<stop offset="1" stop-color="#969EAE" />
		</linearGradient>
		<linearGradient id="paint1_linear_200_7966" x1="115.191" y1="20.5092" x2="115.191" y2="30.508" gradientUnits="userSpaceOnUse">
			<stop stop-color="#B0BACC" />
			<stop offset="1" stop-color="#969EAE" />
		</linearGradient>
		<linearGradient id="paint2_linear_200_7966" x1="32.6453" y1="20.5092" x2="32.6453" y2="30.508" gradientUnits="userSpaceOnUse">
			<stop stop-color="#B0BACC" />
			<stop offset="1" stop-color="#969EAE" />
		</linearGradient>
	</defs>
</svg>
