<svg width="162" height="160" viewBox="0 0 162 160" fill="none" xmlns="http://www.w3.org/2000/svg">
<path d="M83.0666 124.081C113.526 124.081 138.218 99.2334 138.218 68.5828C138.218 37.9323 113.526 13.0851 83.0666 13.0851C52.6075 13.0851 27.9155 37.9323 27.9155 68.5828C27.9155 99.2334 52.6075 124.081 83.0666 124.081Z" fill="#F2F2F2"/>
<path d="M151.438 73.9388C153.158 72.3578 153.278 69.6738 151.707 67.9439C150.135 66.2139 147.468 66.0931 145.749 67.674C144.03 69.2549 143.91 71.9389 145.481 73.6689C147.052 75.3989 149.719 75.5197 151.438 73.9388Z" fill="#F2F2F2"/>
<path d="M38.8713 26.4164C40.3284 25.9398 41.1257 24.3649 40.6521 22.8987C40.1785 21.4324 38.6134 20.6301 37.1563 21.1067C35.6993 21.5833 34.902 23.1582 35.3756 24.6244C35.8492 26.0907 37.4143 26.893 38.8713 26.4164Z" fill="#CCCCCC"/>
<path d="M21.7971 38.4717C22.7879 38.1476 23.3301 37.0767 23.0081 36.0796C22.686 35.0826 21.6217 34.537 20.6309 34.8611C19.6401 35.1852 19.098 36.2561 19.42 37.2532C19.7421 38.2502 20.8063 38.7958 21.7971 38.4717Z" fill="#F2F2F2"/>
<path d="M147.543 35.0808C148.266 34.4152 148.317 33.2851 147.655 32.5567C146.994 31.8283 145.871 31.7774 145.147 32.443C144.423 33.1087 144.373 34.2388 145.034 34.9672C145.696 35.6956 146.819 35.7465 147.543 35.0808Z" fill="#EAEEF9"/>
<path d="M102.75 8.97023C103.248 8.51239 103.283 7.73509 102.828 7.23409C102.373 6.73308 101.601 6.69809 101.103 7.15593C100.605 7.61377 100.57 8.39107 101.025 8.89208C101.48 9.39308 102.252 9.42807 102.75 8.97023Z" fill="#999999"/>
<g filter="url(#filter0_d_3318_9598)">
<path d="M116.636 116.848C116.636 122.324 112.126 126.673 106.81 126.673H59.1334C53.657 126.673 49.147 122.163 49.147 116.848V21.8159C49.147 16.3395 53.657 11.9905 59.1334 11.9905H106.81C112.287 11.9905 116.636 16.5005 116.636 21.8159V116.848Z" fill="url(#paint0_linear_3318_9598)"/>
</g>
<path d="M111.481 102.513C111.481 105.573 109.065 107.828 106.166 107.828H60.0995C57.0392 107.828 54.7842 105.412 54.7842 102.513V23.5879C54.7842 20.5275 57.2002 18.2725 60.0995 18.2725H106.166C109.226 18.2725 111.481 20.6886 111.481 23.5879V102.513Z" fill="#D5DDEA" stroke="#D6DCE8" stroke-width="1.9781" stroke-miterlimit="10"/>
<path d="M82.9717 122.163C85.7294 122.163 87.9649 119.928 87.9649 117.17C87.9649 114.413 85.7294 112.177 82.9717 112.177C80.214 112.177 77.9785 114.413 77.9785 117.17C77.9785 119.928 80.214 122.163 82.9717 122.163Z" fill="#C4CFDD"/>
<g filter="url(#filter1_d_3318_9598)">
<path d="M100.045 71.2647V87.8551C100.045 90.2711 97.9514 92.204 95.6965 92.204H26.758C24.1809 92.204 22.248 90.1101 22.248 87.5329V71.1037C22.248 68.5265 24.342 66.4326 26.758 66.4326H95.3743C97.7904 66.5937 100.045 68.5265 100.045 71.2647Z" fill="url(#paint1_linear_3318_9598)"/>
</g>
<path d="M90.3809 76.2582C90.3809 76.5804 90.2199 76.9025 89.7367 76.9025H54.301C53.9789 76.9025 53.6567 76.5804 53.6567 76.2582V74.1643C53.6567 73.8422 53.9789 73.52 54.301 73.52H89.8977C90.2199 73.52 90.542 73.8422 90.542 74.1643V76.2582H90.3809Z" fill="#D6DCE8"/>
<path d="M76.0456 85.6003H54.301C53.9789 85.6003 53.6567 85.2782 53.6567 84.956V83.0232C53.6567 82.7011 53.9789 82.3789 54.301 82.3789H76.0456C76.3678 82.3789 76.6899 82.7011 76.6899 83.0232V85.1171C76.851 85.4393 76.5288 85.6003 76.0456 85.6003Z" fill="#D6DCE8"/>
<g filter="url(#filter2_d_3318_9598)">
<path d="M139.346 48.876C139.346 51.131 137.574 52.9028 135.158 52.9028H72.1795C69.7634 52.9028 67.8306 50.9699 67.8306 48.5539V34.3796C67.8306 32.1246 69.6023 30.3528 72.0184 30.3528H135.319C137.574 30.3528 139.507 32.1246 139.507 34.3796L139.346 48.876Z" fill="url(#paint2_linear_3318_9598)"/>
</g>
<path d="M107.455 39.5338H76.0457C75.7235 39.5338 75.4014 39.3727 75.4014 39.0506V37.1177C75.4014 36.9567 75.7235 36.6345 76.0457 36.6345H107.455C107.616 36.6345 108.099 36.7956 108.099 37.1177V39.0506C108.099 39.3727 107.777 39.5338 107.455 39.5338Z" fill="#D6DCE8"/>
<path d="M95.3742 47.2653H76.0457C75.7235 47.2653 75.4014 47.1042 75.4014 46.7821V44.8492C75.4014 44.6882 75.7235 44.366 76.0457 44.366H95.3742C95.5353 44.366 96.0185 44.5271 96.0185 44.8492V46.7821C95.8574 46.9432 95.6963 47.2653 95.3742 47.2653Z" fill="#D6DCE8"/>
<path d="M143.373 40.9836C143.373 45.0104 141.601 48.554 139.185 51.4533C139.024 51.6143 138.702 51.9365 138.541 52.0975C135.803 54.6747 132.098 56.1243 128.232 56.1243C125.172 56.1243 122.112 55.1579 119.535 53.5472C118.89 53.064 118.246 52.4197 117.441 51.9365C114.702 49.3593 112.77 45.4936 112.77 41.1447C112.77 32.769 119.535 26.004 127.91 26.004C136.447 26.004 143.373 32.769 143.373 40.9836Z" fill="#E9F0F8"/>
<path d="M143.373 40.9834C143.373 45.4934 141.44 49.3591 138.38 52.2584C135.642 54.8355 131.937 56.2851 128.071 56.2851C125.011 56.2851 121.951 55.3187 119.373 53.708C115.347 51.1309 112.77 46.4598 112.77 41.3055C112.77 32.9298 119.535 26.1649 127.91 26.1649C136.447 26.1649 143.373 32.7688 143.373 40.9834Z" fill="#F1F3F9"/>
<path d="M139.347 51.6143C139.186 51.7754 138.863 52.0976 138.702 52.2586C135.964 54.8358 132.26 56.2854 128.394 56.2854C125.333 56.2854 122.273 55.319 119.696 53.7083C119.052 53.2251 118.407 52.5808 117.602 52.0976C117.924 51.6143 118.568 51.2922 119.696 50.809L120.179 50.6479C121.146 50.3258 122.434 49.8426 124.045 49.0372C124.206 48.8761 124.528 48.8761 124.689 48.554C124.85 48.3929 124.85 48.3929 124.85 48.2319C125.011 48.0708 125.011 47.7486 125.011 47.5876V44.5272C124.85 44.3662 124.85 44.3662 124.85 44.3662C124.689 44.044 124.367 43.5608 124.367 43.0776L124.206 42.9165C123.401 43.0776 123.562 42.2722 123.24 40.6615C123.078 40.0172 123.24 39.8562 123.562 39.8562L123.723 39.534C123.078 38.2455 122.917 37.118 122.917 36.1515C122.917 34.5408 123.562 33.5744 124.528 33.0912C123.884 31.9637 123.884 31.6415 123.884 31.6415C123.884 31.6415 126.944 32.1248 128.072 31.9637C129.36 31.8026 131.615 32.1248 132.421 33.8965C133.709 34.3797 134.192 35.1851 134.515 36.1515C134.676 37.6012 133.87 39.2119 133.709 39.8562V40.0172C133.87 40.1783 133.87 40.1783 133.87 40.8226C133.709 42.4333 133.709 43.2387 132.904 43.0776L132.098 44.3662C132.098 44.5272 132.098 44.5272 131.937 44.5272C131.937 44.6883 131.937 45.3326 131.937 47.7486C131.937 47.9097 132.098 48.3929 132.098 48.554C132.26 48.7151 132.26 48.7151 132.26 48.7151C132.421 48.8761 132.582 49.0372 132.904 49.0372C134.676 49.8426 135.964 50.3258 137.092 50.6479C138.219 51.1311 138.863 51.2922 139.347 51.6143Z" fill="white"/>
<path d="M139.347 51.6144C139.186 51.7754 138.863 52.0976 138.702 52.2586C135.964 54.8358 132.26 56.2854 128.394 56.2854C125.333 56.2854 122.273 55.319 119.696 53.7083C119.052 53.2251 118.407 52.5808 117.602 52.0976C117.924 51.6144 118.568 51.2922 119.696 50.809L120.179 50.6479C121.146 50.3258 122.434 49.8426 124.045 49.0372C124.206 48.8762 124.528 48.8762 124.689 48.554C125.656 49.8426 127.105 50.6479 128.877 50.6479C130.649 50.6479 131.937 49.8426 132.904 48.7151C133.065 48.8762 133.226 49.0372 133.548 49.0372C135.32 49.8426 136.608 50.3258 137.736 50.6479C138.863 50.9701 139.025 51.2922 139.347 51.6144Z" fill="#D6DCE8"/>
<path d="M133.548 39.534C133.709 39.2119 133.387 38.7287 133.387 38.2455C133.387 38.0844 133.226 38.0844 133.226 38.0844C132.581 36.7958 131.132 36.4737 130.004 36.3126C126.622 36.1515 126.3 36.7958 125.333 35.8294C125.655 36.3126 125.655 37.118 125.172 38.0844C124.85 38.7287 124.206 39.0508 123.4 39.3729C121.79 35.9905 122.756 33.7355 124.045 33.0912C123.4 31.9637 123.4 31.6415 123.4 31.6415C123.4 31.6415 126.461 32.1248 127.588 31.9637C128.877 31.8026 131.132 32.1248 131.937 33.8965C133.226 34.3797 133.709 35.1851 134.031 36.1515C134.514 37.4401 133.87 39.0508 133.548 39.534Z" fill="#AAB2C5"/>
<path d="M46.5695 80.124C46.5695 84.4729 44.7977 88.3386 41.7374 91.0768C40.932 91.8821 39.9656 92.3654 38.9992 93.0096C36.9052 94.2982 34.167 94.9425 31.4288 94.9425C28.6906 94.9425 26.1135 94.2982 23.8585 93.1707C23.3753 93.0096 23.2142 92.6875 22.8921 92.5264C19.0264 89.9493 16.4492 85.2782 16.4492 80.285C16.4492 71.9093 23.2142 65.4665 31.4288 65.4665C39.9656 65.1444 46.5695 71.9093 46.5695 80.124Z" fill="#F1F3F9"/>
<path d="M28.3687 83.3451C28.6908 83.5062 28.6908 83.8283 29.013 83.9894C29.3351 84.1505 29.3351 84.1505 29.6573 84.4726C29.8183 84.6337 29.9794 84.6337 29.9794 84.6337C29.9794 84.6337 30.1405 84.6337 30.1405 84.7947L30.3015 84.9558V86.2444C30.3015 86.2444 30.3015 86.2444 30.1405 86.0833C29.9794 85.9222 29.8183 85.9222 29.8183 85.9222C29.4962 85.7612 29.4962 85.7612 29.174 85.6001C29.013 85.6001 29.013 85.439 28.8519 85.439C28.2076 84.9558 27.7244 84.4726 27.7244 83.9894C27.7244 83.9894 28.0465 83.6672 28.3687 83.3451ZM41.2544 90.4322C40.6101 89.1437 39.9658 88.1772 38.5162 87.3719C37.8719 87.2108 37.2276 86.8887 36.4222 86.8887C36.1001 86.8887 35.939 86.8887 35.778 86.8887C35.6169 86.8887 35.4558 86.8887 35.4558 86.8887C34.4894 86.7276 34.3283 86.7276 34.3283 86.7276V84.6337C34.9726 84.1505 35.6169 83.3451 36.1001 82.8619C36.5833 82.3787 36.9055 81.5733 37.0665 80.6069C37.8719 80.4458 38.3551 79.8015 38.3551 78.8351C38.3551 78.513 38.033 78.0298 38.033 77.7076C38.033 77.5465 38.033 77.3855 38.033 77.2244C38.033 77.0633 38.033 77.0633 38.033 76.9023C38.033 76.7412 38.033 76.7412 38.033 76.5801C37.8719 75.9358 37.7108 75.2915 37.3887 74.6473C36.2612 72.7144 34.3283 71.2648 31.9123 71.2648C31.429 71.2648 30.9458 71.4258 30.6237 71.4258C30.1405 71.4258 29.3351 71.748 28.6908 72.3923C28.5298 72.5533 28.3687 72.5533 28.3687 72.7144L28.2076 72.8755C27.5633 73.6808 26.9191 74.4862 26.4358 75.4526C26.1137 76.419 26.1137 77.3855 26.2748 78.513C26.2748 78.513 26.2748 78.513 26.2748 78.674V78.8351C26.2748 78.9962 26.4358 78.9962 26.2748 78.9962C26.2748 79.1573 26.1137 79.1572 26.1137 79.1572C25.7916 79.3183 25.7916 79.8015 25.9526 80.4458C26.2748 81.2512 26.9191 81.2512 27.5633 81.7344C27.5633 81.7344 27.4023 81.7344 27.4023 81.8955L26.758 82.0565C23.6976 82.8619 22.7312 85.439 24.0198 87.0497C24.503 87.2108 25.3083 87.694 26.4358 87.8551C26.1137 87.8551 25.7916 88.0162 25.7916 88.1772C24.503 89.1437 23.6976 90.7544 23.3755 92.204C23.3755 92.3651 23.3755 92.3651 23.3755 92.3651C23.6976 92.5261 24.0198 92.8483 24.3419 93.0094L38.8383 92.6872C39.8047 92.204 40.1269 91.7208 40.9322 91.0765C40.9322 90.7544 41.4154 90.5933 41.2544 90.4322Z" fill="white"/>
<path d="M41.7374 91.0768C40.9321 91.8821 39.9656 92.3653 38.9992 93.0096C36.9053 94.2982 34.1671 94.9425 31.4289 94.9425C28.6906 94.9425 26.1135 94.1371 23.8585 93.0096C23.3753 92.8485 23.2142 92.6875 22.8921 92.3653C22.8921 92.2043 22.8921 92.2043 22.8921 92.2043C23.2142 90.7546 23.8585 89.1439 25.3082 88.1775C25.4692 87.8553 25.7914 87.8553 25.9524 87.6943C24.8249 87.5332 24.1807 87.05 23.5364 86.4057H27.0799C28.0464 87.6943 29.8181 88.6607 31.5899 88.6607C33.2006 88.6607 34.6503 88.0164 35.6167 87.05C35.7778 87.05 35.9388 87.05 35.9388 87.05C36.261 87.05 36.261 87.05 36.5831 87.05C37.2274 87.05 38.0328 87.2111 38.6771 87.5332C39.9656 88.1775 40.771 89.1439 41.5763 90.5936C41.7374 90.7546 41.7374 90.7546 41.7374 91.0768Z" fill="#D6DCE8"/>
<path d="M38.5158 76.7413C37.3883 77.0634 36.0998 77.2245 34.9723 77.2245C33.0394 77.0635 31.1066 76.4192 29.6569 74.9695C29.1737 76.2581 27.8851 77.3856 26.5966 78.0299C26.2744 78.1909 26.2744 78.1909 25.9523 78.1909C25.9523 78.1909 25.9523 78.1909 25.9523 78.0299C25.7912 77.0635 25.7912 76.097 26.2744 74.9695C26.5966 74.0031 27.2409 73.1977 28.0462 72.3924L28.2073 72.2313C28.3684 72.0702 28.5294 72.0702 28.5294 71.9092C29.1737 71.426 29.9791 71.1038 30.9455 70.7817C31.4287 70.6206 31.9119 70.6206 32.2341 70.6206C34.6501 70.6206 36.7441 71.9092 37.7105 74.0031C38.0326 74.8085 38.3548 75.4527 38.3548 75.9359C38.5158 76.2581 38.5158 76.5802 38.5158 76.7413Z" fill="#AAB2C5"/>
<path d="M31.107 90.2712C30.4627 90.9155 29.6573 90.9155 28.6909 90.9155C29.4962 90.1101 29.013 87.3719 25.9527 87.6941C21.7648 86.8887 22.248 82.7009 26.2748 81.5734L26.9191 81.4123H27.0802C27.4023 82.2176 27.7245 83.023 28.3687 83.5062C26.597 84.7948 29.013 85.1169 30.1405 86.4055C31.107 86.8887 31.9123 89.1437 31.107 90.2712Z" fill="#AAB2C5"/>
<defs>
<filter id="filter0_d_3318_9598" x="27.147" y="0.99054" width="111.489" height="158.683" filterUnits="userSpaceOnUse" color-interpolation-filters="sRGB">
<feFlood flood-opacity="0" result="BackgroundImageFix"/>
<feColorMatrix in="SourceAlpha" type="matrix" values="0 0 0 0 0 0 0 0 0 0 0 0 0 0 0 0 0 0 127 0" result="hardAlpha"/>
<feOffset dy="11"/>
<feGaussianBlur stdDeviation="11"/>
<feColorMatrix type="matrix" values="0 0 0 0 0.397708 0 0 0 0 0.47749 0 0 0 0 0.575 0 0 0 0.27 0"/>
<feBlend mode="normal" in2="BackgroundImageFix" result="effect1_dropShadow_3318_9598"/>
<feBlend mode="normal" in="SourceGraphic" in2="effect1_dropShadow_3318_9598" result="shape"/>
</filter>
<filter id="filter1_d_3318_9598" x="0.248047" y="55.4326" width="121.797" height="69.7714" filterUnits="userSpaceOnUse" color-interpolation-filters="sRGB">
<feFlood flood-opacity="0" result="BackgroundImageFix"/>
<feColorMatrix in="SourceAlpha" type="matrix" values="0 0 0 0 0 0 0 0 0 0 0 0 0 0 0 0 0 0 127 0" result="hardAlpha"/>
<feOffset dy="11"/>
<feGaussianBlur stdDeviation="11"/>
<feColorMatrix type="matrix" values="0 0 0 0 0.397708 0 0 0 0 0.47749 0 0 0 0 0.575 0 0 0 0.27 0"/>
<feBlend mode="normal" in2="BackgroundImageFix" result="effect1_dropShadow_3318_9598"/>
<feBlend mode="normal" in="SourceGraphic" in2="effect1_dropShadow_3318_9598" result="shape"/>
</filter>
<filter id="filter2_d_3318_9598" x="45.8306" y="19.3528" width="115.677" height="66.5499" filterUnits="userSpaceOnUse" color-interpolation-filters="sRGB">
<feFlood flood-opacity="0" result="BackgroundImageFix"/>
<feColorMatrix in="SourceAlpha" type="matrix" values="0 0 0 0 0 0 0 0 0 0 0 0 0 0 0 0 0 0 127 0" result="hardAlpha"/>
<feOffset dy="11"/>
<feGaussianBlur stdDeviation="11"/>
<feColorMatrix type="matrix" values="0 0 0 0 0.397708 0 0 0 0 0.47749 0 0 0 0 0.575 0 0 0 0.27 0"/>
<feBlend mode="normal" in2="BackgroundImageFix" result="effect1_dropShadow_3318_9598"/>
<feBlend mode="normal" in="SourceGraphic" in2="effect1_dropShadow_3318_9598" result="shape"/>
</filter>
<linearGradient id="paint0_linear_3318_9598" x1="82.8694" y1="9.33782" x2="82.8694" y2="127.909" gradientUnits="userSpaceOnUse">
<stop stop-color="#FDFEFF"/>
<stop offset="0.9964" stop-color="#ECF0F5"/>
</linearGradient>
<linearGradient id="paint1_linear_3318_9598" x1="61.1214" y1="65.8365" x2="61.1214" y2="92.4818" gradientUnits="userSpaceOnUse">
<stop stop-color="#FDFEFF"/>
<stop offset="0.9964" stop-color="#ECF0F5"/>
</linearGradient>
<linearGradient id="paint2_linear_3318_9598" x1="103.646" y1="29.8312" x2="103.646" y2="53.1459" gradientUnits="userSpaceOnUse">
<stop stop-color="#FDFEFF"/>
<stop offset="0.9964" stop-color="#ECF0F5"/>
</linearGradient>
</defs>
</svg>
