<svg width="112" height="140" viewBox="0 0 112 140" fill="none" xmlns="http://www.w3.org/2000/svg">
	<path d="M0.994629 60.9994C0.994629 30.5519 25.6832 6 56 6C86.2759 6 111.005 30.5338 111.005 60.9994C111.005 73.9238 106.545 85.8091 99.0756 95.1941C88.7697 108.191 73.0367 116 55.9989 116C38.8565 116 23.2076 108.142 12.9142 95.1941C5.4463 85.8091 0.994629 73.9249 0.994629 60.9994Z" fill="#BEBFC1" />
	<g filter="url(#filter0_d_3400_4234)">
		<g filter="url(#filter1_dd_3400_4234)">
			<path d="M98.7942 33.242V107.774C98.7942 112.321 95.1159 115.999 90.5689 115.999H22.9205C18.3734 115.999 14.6951 112.321 14.6951 107.774V14.2245C14.6951 9.67791 18.3734 6 22.9205 6H69.8482C70.2774 6 70.6987 6.03407 71.111 6.09425C72.7009 6.34292 74.1965 7.05716 75.3991 8.16541L96.1289 27.1829C97.3667 28.3173 98.2173 29.7957 98.5785 31.4024C98.725 32.0043 98.7942 32.6152 98.7942 33.242Z" fill="white" />
		</g>
		<path d="M98.577 31.4039H75.091C72.8925 31.4039 71.1095 29.6211 71.1095 27.4228V6.0957C72.6994 6.34438 74.195 7.05861 75.3977 8.16687L96.1275 27.1843C97.3653 28.3187 98.2159 29.796 98.577 31.4039Z" fill="url(#paint0_linear_3400_4234)" />
		<path d="M59.1641 18.2789V15.2778C59.1641 15.1063 59.0255 14.9678 58.8541 14.9678H29.9046C29.7331 14.9678 29.5946 15.1063 29.5946 15.2778V18.2789C29.5946 18.4504 29.7331 18.5889 29.9046 18.5889H58.8541C59.0255 18.5889 59.1641 18.4504 59.1641 18.2789Z" fill="#DFDFE0" />
		<path d="M47.3229 26.8639V23.8627C47.3229 23.6913 47.1843 23.5527 47.0129 23.5527H29.9046C29.7331 23.5527 29.5946 23.6913 29.5946 23.8627V26.8639C29.5946 27.0353 29.7331 27.1739 29.9046 27.1739H47.0129C47.1832 27.1739 47.3229 27.0353 47.3229 26.8639Z" fill="#DFDFE0" />
		<path d="M65.8501 100.369V102.788C65.8501 103.132 65.5707 103.412 65.2266 103.412H30.2242C29.8801 103.412 29.6007 103.132 29.6007 102.788V100.369C29.6007 100.025 29.8801 99.7461 30.2242 99.7461H65.2266C65.5707 99.7461 65.8501 100.025 65.8501 100.369Z" fill="#DFDFE0" />
	</g>
	<path d="M58.2134 82.7784C69.7123 82.7784 79.034 73.4577 79.034 61.96C79.034 50.4623 69.7123 41.1416 58.2134 41.1416C46.7145 41.1416 37.3927 50.4623 37.3927 61.96C37.3927 73.4577 46.7145 82.7784 58.2134 82.7784Z" fill="url(#paint1_linear_3400_4234)" />
	<path d="M39.1892 42.9379C28.6824 53.4436 28.6824 70.4739 39.1892 80.9796C49.6961 91.4854 66.7282 91.4854 77.2351 80.9796C87.7419 70.4739 87.7419 53.4436 77.2351 42.9379C66.7271 32.4322 49.6961 32.4322 39.1892 42.9379ZM71.9533 75.6984C64.3627 83.2881 52.0605 83.2881 44.471 75.6984C36.8805 68.1087 36.8805 55.8089 44.471 48.2191C52.0616 40.6294 64.3627 40.6294 71.9533 48.2191C79.5438 55.8089 79.5438 68.1087 71.9533 75.6984Z" fill="#939598" />
	<path d="M85.4889 84.1422L80.4013 89.2293L74.5142 83.3507C76.4731 81.8723 78.2356 80.085 79.6109 78.2637L85.4889 84.1422Z" fill="#939598" />
	<path d="M89.3033 83.2788L100.69 94.6646C103.387 97.3614 103.387 101.735 100.69 104.432C97.9931 107.129 93.6187 107.129 90.9216 104.432L79.5346 93.0465C78.7226 92.2346 78.7226 90.9174 79.5346 90.1055L86.362 83.2788C87.174 82.4669 88.4913 82.4669 89.3033 83.2788Z" fill="#939598" />
	<path d="M60.6514 66.6362C60.1767 66.6362 59.7917 66.2512 59.7917 65.7766C59.7917 63.8712 56.9106 63.8712 56.9106 65.7766C56.9106 66.2512 56.5267 66.6362 56.0509 66.6362C55.5751 66.6362 55.1912 66.2512 55.1912 65.7766C55.1912 61.5956 61.511 61.6002 61.511 65.7766C61.511 66.2512 61.1261 66.6362 60.6514 66.6362Z" fill="#939598" />
	<path d="M67.9747 59.3363H64.4077C63.933 59.3363 63.548 58.9514 63.548 58.4768C63.548 58.0021 63.9319 57.6172 64.4077 57.6172H67.9747C68.4494 57.6172 68.8344 58.0021 68.8344 58.4768C68.8344 58.9514 68.4505 59.3363 67.9747 59.3363Z" fill="#939598" />
	<path d="M52.2932 59.3363H48.7273C48.2527 59.3363 47.8677 58.9514 47.8677 58.4768C47.8677 58.0021 48.2527 57.6172 48.7273 57.6172H52.2932C52.7679 57.6172 53.1529 58.0021 53.1529 58.4768C53.1529 58.9514 52.7691 59.3363 52.2932 59.3363Z" fill="#939598" />
	<defs>
		<filter id="filter0_d_3400_4234" x="6.69514" y="0" width="100.099" height="125.999" filterUnits="userSpaceOnUse" color-interpolation-filters="sRGB">
			<feFlood flood-opacity="0" result="BackgroundImageFix" />
			<feColorMatrix in="SourceAlpha" type="matrix" values="0 0 0 0 0 0 0 0 0 0 0 0 0 0 0 0 0 0 127 0" result="hardAlpha" />
			<feOffset dy="2" />
			<feGaussianBlur stdDeviation="4" />
			<feComposite in2="hardAlpha" operator="out" />
			<feColorMatrix type="matrix" values="0 0 0 0 0 0 0 0 0 0 0 0 0 0 0 0 0 0 0.05 0" />
			<feBlend mode="normal" in2="BackgroundImageFix" result="effect1_dropShadow_3400_4234" />
			<feBlend mode="normal" in="SourceGraphic" in2="effect1_dropShadow_3400_4234" result="shape" />
		</filter>
		<filter id="filter1_dd_3400_4234" x="2.69514" y="6" width="108.099" height="133.999" filterUnits="userSpaceOnUse" color-interpolation-filters="sRGB">
			<feFlood flood-opacity="0" result="BackgroundImageFix" />
			<feColorMatrix in="SourceAlpha" type="matrix" values="0 0 0 0 0 0 0 0 0 0 0 0 0 0 0 0 0 0 127 0" result="hardAlpha" />
			<feMorphology radius="2" operator="erode" in="SourceAlpha" result="effect1_dropShadow_3400_4234" />
			<feOffset dy="4" />
			<feGaussianBlur stdDeviation="3" />
			<feColorMatrix type="matrix" values="0 0 0 0 0.0627451 0 0 0 0 0.0941176 0 0 0 0 0.156863 0 0 0 0.05 0" />
			<feBlend mode="normal" in2="BackgroundImageFix" result="effect1_dropShadow_3400_4234" />
			<feColorMatrix in="SourceAlpha" type="matrix" values="0 0 0 0 0 0 0 0 0 0 0 0 0 0 0 0 0 0 127 0" result="hardAlpha" />
			<feMorphology radius="4" operator="erode" in="SourceAlpha" result="effect2_dropShadow_3400_4234" />
			<feOffset dy="12" />
			<feGaussianBlur stdDeviation="8" />
			<feColorMatrix type="matrix" values="0 0 0 0 0.0627451 0 0 0 0 0.0941176 0 0 0 0 0.156863 0 0 0 0.1 0" />
			<feBlend mode="normal" in2="effect1_dropShadow_3400_4234" result="effect2_dropShadow_3400_4234" />
			<feBlend mode="normal" in="SourceGraphic" in2="effect2_dropShadow_3400_4234" result="shape" />
		</filter>
		<linearGradient id="paint0_linear_3400_4234" x1="71.1092" y1="18.7493" x2="98.5774" y2="18.7493" gradientUnits="userSpaceOnUse">
			<stop stop-color="#DFDFE0" />
			<stop offset="1" stop-color="white" />
		</linearGradient>
		<linearGradient id="paint1_linear_3400_4234" x1="37.3922" y1="61.9592" x2="79.0347" y2="61.9592" gradientUnits="userSpaceOnUse">
			<stop stop-color="#DFDFE0" />
			<stop offset="1" stop-color="white" />
		</linearGradient>
	</defs>
</svg>
