<svg width="157" height="127" viewBox="0 0 157 127" fill="none" xmlns="http://www.w3.org/2000/svg">
	<path d="M123.306 23.5791H19.6356C17.3549 23.5791 15.3506 25.5834 15.3506 27.8641V99.1894C15.3506 101.47 17.3549 100.641 19.6356 100.641H123.03C125.31 100.641 127.315 101.47 127.315 99.1894V27.8641C127.591 25.5834 125.587 23.5791 123.306 23.5791Z" fill="#D5DDEA" />
	<path d="M140.654 96.6318V98.9126C140.654 101.47 138.373 103.751 135.816 103.751H7.19513C4.63793 103.751 2.35718 101.47 2.35718 98.9126V96.6318H140.654V96.6318Z" fill="#D5DDEA" />
	<path d="M84.7406 96.6318V97.4612C84.7406 98.9126 83.6348 100.295 81.907 100.295H60.8273C59.3759 100.295 57.9937 99.189 57.9937 97.4612V96.6318H84.7406V96.6318Z" fill="#E9EFF8" />
	<g filter="url(#filter0_d_2737_27689)">
		<path d="M115.22 32.9091V89.444C115.082 91.7939 113.216 93.7291 110.797 93.7291H27.0308C24.5427 93.7291 22.6075 91.7939 22.6075 89.444V32.9091C22.6075 30.5592 24.5427 28.624 27.0308 28.624H110.866C113.354 28.624 115.22 30.5592 115.22 32.9091Z" fill="url(#paint0_linear_2737_27689)" />
	</g>
	<path d="M27.6528 35.1211C28.4822 35.1211 29.1733 34.4299 29.1733 33.6006C29.1733 32.7712 28.4822 32.0801 27.6528 32.0801C26.8235 32.0801 26.1323 32.7712 26.1323 33.6006C26.1323 34.4299 26.8235 35.1211 27.6528 35.1211Z" fill="#D6DCE8" />
	<path d="M32.1453 35.1211C32.9746 35.1211 33.6658 34.4299 33.6658 33.6006C33.6658 32.7712 32.9746 32.0801 32.1453 32.0801C31.3159 32.0801 30.6248 32.7712 30.6248 33.6006C30.6248 34.4299 31.3159 35.1211 32.1453 35.1211Z" fill="#D6DCE8" />
	<path d="M36.7759 35.1211C37.6052 35.1211 38.2964 34.4299 38.2964 33.6006C38.2964 32.7712 37.6052 32.0801 36.7759 32.0801C35.9465 32.0801 35.2554 32.7712 35.2554 33.6006C35.2554 34.4299 35.9465 35.1211 36.7759 35.1211Z" fill="#F1F3F9" />
	<g filter="url(#filter1_d_2737_27689)">
		<path d="M124.758 23.4403V79.9753C124.758 80.0444 124.758 80.1826 124.758 80.2517C124.55 82.5325 122.684 84.2603 120.403 84.2603H36.5685C34.0804 84.2603 32.1453 82.3251 32.1453 79.9753V23.4403C32.1453 21.0905 34.0804 19.1553 36.5685 19.1553H120.403C122.891 19.1553 124.758 21.0213 124.758 23.4403Z" fill="url(#paint1_linear_2737_27689)" />
	</g>
	<path d="M37.1907 25.6523C38.02 25.6523 38.7112 24.9612 38.7112 24.1318C38.7112 23.3025 38.02 22.6113 37.1907 22.6113C36.3613 22.6113 35.6702 23.3025 35.6702 24.1318C35.6702 24.9612 36.3613 25.6523 37.1907 25.6523Z" fill="#D6DCE8" />
	<path d="M41.6831 25.6523C42.5125 25.6523 43.2036 24.9612 43.2036 24.1318C43.2036 23.3025 42.5125 22.6113 41.6831 22.6113C40.8537 22.6113 40.1626 23.3025 40.1626 24.1318C40.1626 24.9612 40.8537 25.6523 41.6831 25.6523Z" fill="#D6DCE8" />
	<path d="M46.3137 25.6523C47.1431 25.6523 47.8342 24.9612 47.8342 24.1318C47.8342 23.3025 47.1431 22.6113 46.3137 22.6113C45.4843 22.6113 44.7932 23.3025 44.7932 24.1318C44.7932 24.9612 45.4843 25.6523 46.3137 25.6523Z" fill="#F1F3F9" />
	<g filter="url(#filter2_d_2737_27689)">
		<path d="M134.572 71.82C134.433 74.1699 132.567 76.1051 130.148 76.1051H46.3825C43.8944 76.1051 41.9592 74.1699 41.9592 71.82V15.285C41.9592 12.9352 43.8944 11 46.3825 11H130.217C132.705 11 134.641 12.9352 134.641 15.285V71.82H134.572Z" fill="url(#paint2_linear_2737_27689)" />
	</g>
	<path d="M47.0046 17.5652C47.834 17.5652 48.5251 16.8741 48.5251 16.0447C48.5251 15.2153 47.834 14.4551 47.0046 14.4551C46.1753 14.4551 45.4841 15.1462 45.4841 15.9756C45.4841 16.8049 46.1753 17.5652 47.0046 17.5652Z" fill="#AAB2C5" />
	<path d="M51.4969 17.5652C52.3263 17.5652 53.0174 16.8741 53.0174 16.0447C53.0174 15.2153 52.3263 14.4551 51.4969 14.4551C50.6676 14.4551 49.9764 15.1462 49.9764 15.9756C49.9764 16.8049 50.6676 17.5652 51.4969 17.5652Z" fill="#AAB2C5" />
	<path d="M56.1274 17.5652C56.9568 17.5652 57.6479 16.8741 57.6479 16.0447C57.6479 15.2153 56.9568 14.4551 56.1274 14.4551C55.2981 14.4551 54.6069 15.1462 54.6069 15.9756C54.6069 16.8049 55.229 17.5652 56.1274 17.5652Z" fill="#AAB2C5" />
	<path d="M82.1673 36.5033C82.1673 38.1739 80.813 39.5281 79.1425 39.5281C77.4719 39.5281 76.1177 38.1739 76.1177 36.5033C76.1177 34.8328 77.4719 33.4785 79.1425 33.4785C80.813 33.4785 82.1673 34.8328 82.1673 36.5033Z" fill="#AAB2C5" stroke="white" />
	<path d="M99.031 36.5033C99.031 38.1739 97.6768 39.5281 96.0062 39.5281C94.3357 39.5281 92.9814 38.1739 92.9814 36.5033C92.9814 34.8328 94.3357 33.4785 96.0062 33.4785C97.6768 33.4785 99.031 34.8328 99.031 36.5033Z" fill="#AAB2C5" stroke="white" />
	<path d="M94.9695 54.6107H80.1791C77.8293 54.6107 76.5161 51.9844 77.8984 50.0492C78.9351 48.5978 80.2483 47.4229 81.7688 46.5244C83.4966 45.5568 85.5009 45.0039 87.5743 45.0039C90.0624 45.0039 92.3432 45.7642 94.2783 47.0773C95.4533 47.9067 96.49 48.8743 97.3193 50.0492C98.6325 51.9844 97.3193 54.6107 94.9695 54.6107Z" fill="#D6DCE8" stroke="#D6DCE8" stroke-width="1.7035" stroke-miterlimit="10" />
	<path d="M92.7577 54.6109H82.4598C82.3907 54.4727 82.3907 54.3345 82.4598 54.1962C83.22 52.0537 85.2243 50.5332 87.6433 50.5332C90.0623 50.5332 92.0666 52.0537 92.8268 54.1962C92.8268 54.3345 92.8268 54.4727 92.7577 54.6109Z" fill="#AAB2C5" />
	<path d="M94.2783 47.7687V48.3216C94.2783 48.7363 93.9328 49.0128 93.5872 49.0128H82.529C82.1143 49.0128 81.8379 48.6672 81.8379 48.3216V47.2158C83.5657 46.2482 85.57 45.6953 87.6434 45.6953C90.0624 45.6953 92.3432 46.4556 94.2783 47.7687Z" fill="white" />
	<path d="M61.795 35.4625C61.795 36.8471 60.7199 37.9548 59.376 37.9548C58.0321 37.9548 56.957 36.8471 56.957 35.4625C56.957 34.4102 58.4084 31.2534 59.0535 29.8688C59.161 29.5919 59.5373 29.5919 59.6985 29.8688C60.3436 31.198 61.795 34.3549 61.795 35.4625Z" fill="#D6DCE8" />
	<path d="M147.565 22.5424C148.671 23.5791 148.809 25.3069 147.772 26.4819C146.736 27.5877 145.008 27.7259 143.833 26.6892C142.934 25.929 141.414 22.3351 140.792 20.7454C140.654 20.469 140.93 20.1234 141.276 20.1925C142.934 20.6072 146.667 21.713 147.565 22.5424Z" fill="#D6DCE8" />
	<path d="M147.15 34.7755C147.98 36.0887 147.634 37.7474 146.321 38.5768C145.008 39.4061 143.349 39.0606 142.52 37.7474C141.898 36.7798 141.345 32.9095 141.137 31.1816C141.068 30.836 141.483 30.6287 141.759 30.7669C143.211 31.6654 146.528 33.7388 147.15 34.7755Z" fill="#D6DCE8" />
	<path d="M56.2658 41.6823C56.2658 43.0668 55.1907 44.1745 53.8468 44.1745C52.503 44.1745 51.4279 43.0668 51.4279 41.6823C51.4279 40.63 52.8792 37.4731 53.5243 36.0885C53.6318 35.8116 54.0081 35.8116 54.1694 36.0885C54.8144 37.4731 56.2658 40.63 56.2658 41.6823Z" fill="#D6DCE8" />
	<path d="M123.306 54.6104H137.958C138.857 54.6104 139.686 54.9559 140.308 55.5779L150.675 65.945C151.297 66.567 151.643 67.3964 151.643 68.2949V82.8778C151.643 83.7763 151.297 84.6057 150.675 85.2277L140.446 95.4565C139.824 96.0785 138.995 96.4241 138.096 96.4241H123.306C122.408 96.4241 121.578 96.0785 120.956 95.4565L110.451 84.9512C109.829 84.3292 109.483 83.4999 109.483 82.6014V68.2949C109.483 67.3964 109.829 66.567 110.451 65.945L120.887 55.5779C121.578 54.9559 122.408 54.6104 123.306 54.6104Z" fill="url(#paint3_linear_2737_27689)" />
	<path d="M133.051 62.9339V69.8697C133.051 70.3321 133.051 70.7945 132.982 71.323L132.222 76.2771C132.153 76.6735 131.807 77.0037 131.323 77.0037H129.803C129.388 77.0037 128.973 76.6735 128.904 76.2771L128.144 71.323C128.075 70.8606 128.075 70.3982 128.075 69.8697V62.9339C128.075 62.4715 128.49 62.0752 128.973 62.0752H132.222C132.636 62.1413 133.051 62.4715 133.051 62.9339Z" fill="white" />
	<path d="M132.222 87.4404H128.835C128.282 87.4404 127.798 86.9567 127.798 86.4037V83.0172C127.798 82.4643 128.282 81.9805 128.835 81.9805H132.222C132.775 81.9805 133.258 82.4643 133.258 83.0172V86.4037C133.258 86.9567 132.775 87.4404 132.222 87.4404Z" fill="white" />
	<defs>
		<filter id="filter0_d_2737_27689" x="0.607544" y="17.624" width="136.612" height="109.105" filterUnits="userSpaceOnUse" color-interpolation-filters="sRGB">
			<feFlood flood-opacity="0" result="BackgroundImageFix" />
			<feColorMatrix in="SourceAlpha" type="matrix" values="0 0 0 0 0 0 0 0 0 0 0 0 0 0 0 0 0 0 127 0" result="hardAlpha" />
			<feOffset dy="11" />
			<feGaussianBlur stdDeviation="11" />
			<feColorMatrix type="matrix" values="0 0 0 0 0.397708 0 0 0 0 0.47749 0 0 0 0 0.575 0 0 0 0.27 0" />
			<feBlend mode="normal" in2="BackgroundImageFix" result="effect1_dropShadow_2737_27689" />
			<feBlend mode="normal" in="SourceGraphic" in2="effect1_dropShadow_2737_27689" result="shape" />
		</filter>
		<filter id="filter1_d_2737_27689" x="10.1453" y="8.15527" width="136.612" height="109.105" filterUnits="userSpaceOnUse" color-interpolation-filters="sRGB">
			<feFlood flood-opacity="0" result="BackgroundImageFix" />
			<feColorMatrix in="SourceAlpha" type="matrix" values="0 0 0 0 0 0 0 0 0 0 0 0 0 0 0 0 0 0 127 0" result="hardAlpha" />
			<feOffset dy="11" />
			<feGaussianBlur stdDeviation="11" />
			<feColorMatrix type="matrix" values="0 0 0 0 0.397708 0 0 0 0 0.47749 0 0 0 0 0.575 0 0 0 0.27 0" />
			<feBlend mode="normal" in2="BackgroundImageFix" result="effect1_dropShadow_2737_27689" />
			<feBlend mode="normal" in="SourceGraphic" in2="effect1_dropShadow_2737_27689" result="shape" />
		</filter>
		<filter id="filter2_d_2737_27689" x="19.9592" y="0" width="136.681" height="109.105" filterUnits="userSpaceOnUse" color-interpolation-filters="sRGB">
			<feFlood flood-opacity="0" result="BackgroundImageFix" />
			<feColorMatrix in="SourceAlpha" type="matrix" values="0 0 0 0 0 0 0 0 0 0 0 0 0 0 0 0 0 0 127 0" result="hardAlpha" />
			<feOffset dy="11" />
			<feGaussianBlur stdDeviation="11" />
			<feColorMatrix type="matrix" values="0 0 0 0 0.397708 0 0 0 0 0.47749 0 0 0 0 0.575 0 0 0 0.27 0" />
			<feBlend mode="normal" in2="BackgroundImageFix" result="effect1_dropShadow_2737_27689" />
			<feBlend mode="normal" in="SourceGraphic" in2="effect1_dropShadow_2737_27689" result="shape" />
		</filter>
		<linearGradient id="paint0_linear_2737_27689" x1="68.8835" y1="27.1181" x2="68.8835" y2="94.431" gradientUnits="userSpaceOnUse">
			<stop stop-color="#FDFEFF" />
			<stop offset="0.9964" stop-color="#ECF0F5" />
		</linearGradient>
		<linearGradient id="paint1_linear_2737_27689" x1="78.4212" y1="17.6493" x2="78.4212" y2="84.9622" gradientUnits="userSpaceOnUse">
			<stop stop-color="#FDFEFF" />
			<stop offset="0.9964" stop-color="#ECF0F5" />
		</linearGradient>
		<linearGradient id="paint2_linear_2737_27689" x1="88.2697" y1="9.49406" x2="88.2697" y2="76.8069" gradientUnits="userSpaceOnUse">
			<stop stop-color="#FDFEFF" />
			<stop offset="0.9964" stop-color="#ECF0F5" />
		</linearGradient>
		<linearGradient id="paint3_linear_2737_27689" x1="109.464" y1="75.5218" x2="151.65" y2="75.5218" gradientUnits="userSpaceOnUse">
			<stop stop-color="#B0BACC" />
			<stop offset="1" stop-color="#969EAE" />
		</linearGradient>
	</defs>
</svg>
