<svg width="193" height="173" viewBox="0 0 193 173" fill="none" xmlns="http://www.w3.org/2000/svg">
	<path d="M103.014 0L108.762 1.7122L105.95 26.1722L102.892 25.0715L103.014 0Z" fill="#CCCCCC" />
	<path d="M102.648 27.8844L105.461 28.9851L105.094 31.3088L102.281 30.3304L102.648 27.8844Z" fill="#CCCCCC" />
	<path d="M113.288 13.0861L119.036 14.676L116.345 30.3304L113.166 29.2297L113.288 13.0861Z" fill="#CCCCCC" />
	<path d="M112.921 31.9203L115.734 33.021L115.367 35.2224L112.554 34.244L112.921 31.9203Z" fill="#CCCCCC" />
	<path d="M142.884 121.322H67.6694C67.6694 121.322 71.8276 119.976 64.6119 121.322C57.2739 122.667 57.2739 122.422 57.8854 117.775C58.4969 113.128 62.8997 108.358 66.3241 103.221C65.9572 98.3293 67.5471 93.1927 73.2952 88.423C73.2952 88.3007 73.2952 88.1784 73.2952 88.0561C70.4823 60.0493 85.2806 69.2219 97.6329 64.5745L96.043 63.4738L114.143 55.6465C114.143 55.6465 119.28 56.9918 124.05 59.6824C127.596 61.7616 130.899 64.4522 131.388 67.8766C131.999 71.7902 131.388 76.9268 130.532 81.6965C129.798 85.977 128.942 89.8906 128.697 92.4589C128.697 92.9481 128.575 93.315 128.575 93.6819C129.431 97.7178 135.057 103.71 134.323 107.624C136.28 109.703 138.726 115.941 139.093 118.631C139.582 121.322 142.884 121.322 142.884 121.322Z" fill="#CCCCCC" />
	<path opacity="0.1" d="M130.532 81.6965C129.798 85.977 128.942 89.8906 128.697 92.5812C126.863 95.8833 123.561 97.9624 119.036 100.531C118.057 101.142 116.834 101.631 115.734 101.998C114.144 102.488 112.554 102.977 110.964 103.221C106.072 104.2 101.058 104.444 96.0433 103.466C91.8851 102.61 87.7269 101.265 83.9356 99.0631C82.7126 98.3293 81.3673 97.4732 80.2666 96.4948C76.9645 93.6819 74.3962 91.2359 73.0509 88.3007C71.8279 85.8547 71.5833 83.0418 72.1948 79.2505C73.6624 71.1787 75.6192 65.0637 75.6192 65.0637C75.7415 64.4522 76.7199 63.5961 77.0868 63.1069C77.6983 62.4954 78.0652 61.7616 78.6767 61.1501C79.6551 59.9271 80.8781 58.5818 81.8565 57.3588C84.3025 54.9128 86.9931 52.956 90.1729 51.733C95.3095 49.8985 100.813 50.1431 106.072 50.8769C109.863 51.3661 113.899 52.2222 117.324 54.179C119.892 55.6466 121.971 57.4811 123.805 59.8048C124.172 60.1717 124.417 60.6609 124.784 61.0278C126.863 64.0853 128.331 67.5097 130.043 70.8118C130.165 70.8118 130.532 75.3369 130.532 81.6965Z" fill="#CCCCCC" />
	<path d="M27.7998 121.444H186.912" stroke="#CCCCCC" stroke-width="1.5905" stroke-miterlimit="10" stroke-linecap="round" stroke-linejoin="round" />
	<path d="M9.08789 121.444H19.2388" stroke="#CCCCCC" stroke-width="1.5905" stroke-miterlimit="10" stroke-linecap="round" stroke-linejoin="round" />
	<path d="M119.647 90.869C118.669 91.4805 117.446 91.9697 116.345 92.3366C114.877 92.8258 113.165 93.315 111.575 93.5596C106.683 94.538 101.669 94.7826 96.6546 93.6819C92.4964 92.8258 88.3382 91.4805 84.5469 89.2791C83.2016 88.5453 81.9786 87.6892 80.8779 86.7108C74.6406 81.4519 71.3385 77.5382 72.8061 69.4664C74.2737 61.3946 76.1082 55.4019 76.1082 55.4019C76.2305 54.7904 77.2089 53.9343 77.5758 53.4451C78.1873 52.8336 78.5542 52.0998 79.1657 51.4883C80.1441 50.2653 81.2448 48.92 82.3455 47.697C84.7915 45.251 87.4821 43.2942 90.6619 42.0712C95.7985 40.2367 101.302 40.4813 106.561 41.2151C110.475 41.7043 114.388 42.5604 117.813 44.5172C120.87 46.2294 123.194 48.5531 125.151 51.366C127.23 54.4235 128.697 57.8479 130.409 61.2723C130.409 61.2723 131.021 67.6319 130.776 75.826C130.776 84.0202 126.74 86.9554 119.647 90.869Z" fill="#F2F2F2" />
	<path d="M93.2303 70.078C92.0073 70.9341 90.1728 74.2362 85.0362 71.5456C77.8205 67.632 79.655 57.8479 84.1801 55.1573C92.2519 50.3876 99.5899 53.812 99.9568 61.2723C100.324 69.2219 95.7986 68.4881 93.2303 70.078Z" fill="#CCCCCC" />
	<path d="M133.956 116.797C132.978 118.02 133.223 119.854 134.568 120.832C135.302 121.322 136.036 121.811 136.402 123.034C137.259 125.48 145.086 131.228 149.122 130.005C153.28 128.782 157.805 125.724 156.704 120.71C155.726 115.696 151.323 113.25 149.122 113.128C146.92 112.883 139.215 112.027 136.647 113.984C135.669 114.84 134.69 115.94 133.956 116.797Z" fill="#F2F2F2" />
	<path d="M69.6263 116.797C70.6047 118.02 70.3601 119.854 69.0148 120.833C68.281 121.322 67.5472 121.811 67.1803 123.034C66.3242 125.48 58.497 131.228 54.4611 130.005C50.4252 128.782 45.7778 125.725 46.8785 120.71C47.8569 115.696 52.2597 113.25 54.4611 113.128C56.6625 113.005 64.3674 112.027 66.9357 113.984C68.0364 114.84 69.0148 115.941 69.6263 116.797Z" fill="#F2F2F2" />
	<path d="M89.0722 68.4881C92.252 68.855 95.0649 66.5313 95.4318 63.3515C95.7987 60.1717 93.475 57.3588 90.2952 56.9919C87.1154 56.625 84.3025 58.9487 83.9356 62.1285C83.5687 65.3083 85.8924 68.1212 89.0722 68.4881Z" fill="white" />
	<path d="M94.6978 63.963C94.4532 66.409 92.2518 68.2435 89.8058 67.9989C87.3598 67.7543 85.5253 65.5529 85.7699 63.1069C86.1368 63.4738 86.626 63.8407 87.1152 63.963C88.2159 64.0853 89.1943 63.3515 89.3166 62.1285C89.4389 61.0278 88.7051 60.0494 87.6044 59.9271C88.4605 59.3156 89.5612 59.071 90.6619 59.1933C93.2302 59.3156 94.9424 61.3947 94.6978 63.963Z" fill="#999999" />
	<path d="M116.956 71.4233C120.136 71.7902 122.949 69.4665 123.316 66.2866C123.683 63.1068 121.359 60.2939 118.179 59.927C115 59.5601 112.187 61.8838 111.82 65.0636C111.453 68.3658 113.777 71.1787 116.956 71.4233Z" fill="white" />
	<path d="M112.309 65.7975C112.064 68.2435 113.899 70.4449 116.345 70.6895C118.791 70.9341 120.992 69.0996 121.237 66.6536C120.87 67.0205 120.259 67.2651 119.769 67.1428C118.669 67.0205 117.813 66.0421 117.935 64.9414C118.057 63.8406 119.036 63.1068 120.136 63.1068C119.402 62.373 118.424 61.8838 117.323 61.7615C114.877 61.5169 112.676 63.2292 112.309 65.7975Z" fill="#999999" />
	<path d="M92.6188 49.0424C90.5397 49.4093 88.7052 49.7762 87.2376 50.7546C85.77 51.733 84.3024 53.3229 83.5686 55.1574C83.5686 55.2797 83.4463 55.2797 83.324 55.2797C83.2017 55.2797 83.2017 55.1574 83.2017 55.1574C83.324 54.179 83.8132 53.0783 84.4247 52.2222C84.9139 51.2438 85.77 50.51 86.7484 49.8985C87.7268 49.287 88.5829 48.7978 89.6836 48.4309C90.7843 48.3086 91.885 48.1863 92.8634 48.6755C92.7411 48.6755 92.9857 48.9201 92.6188 49.0424C92.7411 49.0424 92.7411 49.0424 92.6188 49.0424Z" fill="#999999" />
	<path d="M117.69 53.4451C119.525 54.1789 121.115 54.9128 122.46 56.1358C123.683 57.3588 124.661 59.1933 125.028 61.0278C125.028 61.1501 125.151 61.1501 125.273 61.1501C125.395 61.1501 125.395 61.0278 125.395 61.0278C125.517 60.0494 125.151 58.9487 124.906 58.0926C124.539 57.1142 124.05 56.1357 123.194 55.4019C122.46 54.6681 121.726 53.9343 120.748 53.4451C119.769 53.0782 118.669 52.8336 117.69 52.9559C117.568 53.0782 117.568 53.2005 117.69 53.4451C117.446 53.4451 117.69 53.4451 117.69 53.4451Z" fill="#999999" />
	<path d="M128.575 48.0639C126.374 45.1287 123.194 45.9848 124.417 49.4092C126.374 54.7904 130.043 57.3587 131.021 77.416C131.266 80.9627 143.129 73.3801 143.129 60.7831C143.129 58.4594 140.316 57.6033 140.316 57.6033C138.604 57.1141 132.122 52.589 128.575 48.0639Z" fill="#999999" />
	<path d="M27.7995 57.6034C27.7995 57.6034 14.8356 53.8121 16.9148 58.0926C18.9939 62.3731 24.742 70.9341 33.9145 73.0132C43.087 74.97 37.5835 66.8982 37.7058 67.0205C37.7058 67.0205 27.7995 57.6034 27.7995 57.6034Z" fill="#EEEEEE" />
	<g filter="url(#filter0_d_2630_23437)">
		<path d="M14.102 49.2869C17.4041 52.9559 31.2241 58.3371 42.4757 57.8479C44.0656 69.5887 45.2886 73.1354 47.3677 74.603C41.7419 76.0706 26.5766 74.8476 24.4975 63.4737C13.8574 63.9629 14.102 49.2869 14.102 49.2869Z" fill="url(#paint0_linear_2630_23437)" />
	</g>
	<g filter="url(#filter1_d_2630_23437)">
		<path d="M160.251 92.7035C163.92 90.2575 170.524 78.8836 171.503 69.0996C181.898 69.0996 185.078 68.6104 186.79 66.8982C187.279 72.0348 186.301 84.6317 177.495 92.092C167.711 93.0704 160.251 92.7035 160.251 92.7035Z" fill="url(#paint1_linear_2630_23437)" />
	</g>
	<g filter="url(#filter2_d_2630_23437)">
		<path d="M132.733 132.696C115.733 135.508 112.676 135.998 106.194 135.142C99.7121 134.285 90.6619 133.185 87.6044 139.055C86.2591 131.35 83.2016 124.257 77.5758 118.876C77.9427 118.386 78.1873 117.653 78.1873 116.919C78.1873 115.451 77.3312 114.228 75.9859 113.739C76.2305 113.25 76.3528 112.761 76.3528 112.271C76.3528 110.437 74.8852 108.847 72.9284 108.847C71.8277 108.847 70.8493 109.336 70.2378 110.192C70.3601 109.581 70.4824 109.092 70.4824 108.847C70.4824 107.013 69.0148 105.423 67.058 105.423C66.0796 105.423 65.1012 105.912 64.4897 106.646C64.0005 105.912 63.2667 105.423 62.2883 105.423C60.8207 105.423 59.72 106.523 59.72 107.991C59.72 108.236 59.72 108.847 59.72 109.581C51.0367 106.768 49.2021 106.646 49.2021 106.646C54.4611 96.2501 79.4103 81.0849 97.3884 83.8978C108.885 85.61 121.848 88.7898 128.453 101.387C128.086 101.264 127.719 101.142 127.352 101.142C127.23 101.142 126.985 101.142 126.74 101.264C126.129 100.408 125.151 99.9191 124.05 99.9191C122.338 99.9191 120.992 101.142 120.748 102.732C120.625 102.732 120.136 102.732 119.769 102.732C117.935 102.732 116.467 104.2 116.467 106.034C116.467 107.379 117.323 108.602 118.546 109.092C117.935 109.703 117.568 110.437 117.568 111.415C117.568 113.25 119.036 114.717 120.87 114.717C122.093 114.717 123.071 114.106 123.683 113.25C124.294 114.106 125.273 114.717 126.496 114.717C128.33 114.717 129.798 113.25 129.798 111.415C129.798 111.293 129.798 111.293 129.798 111.171C130.654 110.804 131.388 110.07 131.632 109.214C133.222 115.329 133.834 123.034 132.733 132.696Z" fill="url(#paint2_linear_2630_23437)" />
	</g>
	<path d="M90.0503 123.768C94.82 122.3 115.122 117.775 126.74 119.12Z" fill="white" />
	<path fill-rule="evenodd" clip-rule="evenodd" d="M105.953 121.174C98.8529 122.317 92.6232 123.808 90.2841 124.528L89.8164 123.008C92.247 122.26 98.5531 120.754 105.701 119.604C112.835 118.456 120.907 117.644 126.832 118.33L126.649 119.91C120.955 119.251 113.066 120.029 105.953 121.174Z" fill="#CCCCCC" />
	<path d="M85.2808 117.286C89.1944 115.573 108.029 111.66 117.568 111.293Z" fill="white" />
	<path fill-rule="evenodd" clip-rule="evenodd" d="M90.8271 116.451C88.358 117.065 86.5084 117.617 85.5994 118.014L84.9619 116.557C86.0097 116.099 87.982 115.52 90.4431 114.907C92.9243 114.29 95.9574 113.626 99.1633 113.004C105.563 111.764 112.705 110.684 117.537 110.499L117.598 112.088C112.891 112.269 105.846 113.329 99.4659 114.566C96.2816 115.183 93.2762 115.841 90.8271 116.451Z" fill="#CCCCCC" />
	<path d="M80.7559 110.07C96.288 101.387 108.518 105.056 118.547 97.3508Z" fill="white" />
	<path fill-rule="evenodd" clip-rule="evenodd" d="M101.857 104.126C95.6071 105.257 88.7836 106.493 81.1438 110.764L80.3677 109.376C88.2439 104.973 95.2888 103.698 101.535 102.568L101.573 102.561C107.852 101.425 113.224 100.438 118.062 96.7202L119.031 97.9815C113.86 101.954 108.125 102.992 101.925 104.114L101.857 104.126Z" fill="#CCCCCC" />
	<path d="M75.7412 104.567C82.3454 100.041 87.9712 97.9623 95.5538 97.3508Z" fill="white" />
	<path fill-rule="evenodd" clip-rule="evenodd" d="M95.6175 98.1435C88.1836 98.743 82.6893 100.77 76.1905 105.223L75.2915 103.91C82.0012 99.3131 87.7584 97.1816 95.4897 96.5581L95.6175 98.1435Z" fill="#CCCCCC" />
	<path d="M116.712 86.7108C116.712 86.8331 116.712 87.0777 116.712 87.2V87.3223C116.712 87.4446 116.712 87.5669 116.59 87.6892C115.856 89.646 112.676 91.9697 109.374 92.3366C106.072 92.7035 102.648 91.3582 101.18 85.8547C97.6333 89.2791 94.2089 89.7683 91.396 89.0345C87.727 88.0561 85.281 85.1209 85.1587 84.2648C85.1587 83.8979 85.1587 83.531 85.281 83.1641C86.1371 75.2146 93.842 69.5888 102.525 70.5672C111.209 71.6679 117.568 78.8836 116.712 86.7108Z" fill="#CCCCCC" />
	<path d="M102.525 71.7902C101.792 71.6679 100.935 71.6679 100.202 71.7902C99.2232 72.0348 97.7556 72.2793 97.511 73.5023C97.3887 75.0923 100.813 76.9268 101.792 77.0491C102.77 77.1714 106.561 76.193 106.806 74.6031C106.928 73.0132 105.583 72.4017 104.36 72.0348C103.748 71.9125 103.015 71.6679 102.525 71.7902Z" fill="#999999" />
	<path fill-rule="evenodd" clip-rule="evenodd" d="M101.513 79.9801C101.456 78.3498 101.258 76.6447 101.094 75.576L102.082 75.424C102.251 76.522 102.453 78.2669 102.513 79.9449C102.542 80.7836 102.536 81.6156 102.47 82.3466C102.405 83.0643 102.278 83.7371 102.035 84.2236L101.141 83.7764C101.297 83.4629 101.412 82.9441 101.474 82.2565C101.535 81.5823 101.542 80.7956 101.513 79.9801Z" fill="#999999" />
	<path d="M82.1008 47.4524L81.9785 48.7977C81.367 49.4092 80.8778 50.143 80.2663 50.8768C77.0865 55.1573 74.1513 60.7831 73.2952 67.8765C73.0506 67.0204 70.4823 57.8479 69.9931 56.1357C69.8708 55.7688 69.7485 55.5242 69.7485 55.5242V52.9559L72.0722 47.8193L78.0649 44.7618L82.1008 47.4524Z" fill="#999999" />
	<path d="M87.4819 43.6612C85.7697 44.8842 83.8129 46.5964 81.9784 48.7978C81.3669 49.4093 80.8777 50.1431 80.2662 50.8769C80.0216 47.4525 75.9857 46.9633 75.9857 46.9633C75.4965 50.0208 72.8059 53.4452 69.8707 56.1358C67.4247 58.3372 64.7341 59.9271 63.0219 60.0494C62.5327 60.0494 62.1658 59.6825 62.4104 59.1933C63.6334 56.0135 63.2665 51.3661 63.6334 49.0424C64.1226 46.4741 71.4606 42.5605 75.2519 41.0929C78.1871 39.9922 85.892 41.5821 87.4819 43.6612Z" fill="#999999" />
	<defs>
		<filter id="filter0_d_2630_23437" x="0.101562" y="39.2869" width="53.2661" height="45.8157" filterUnits="userSpaceOnUse" color-interpolation-filters="sRGB">
			<feFlood flood-opacity="0" result="BackgroundImageFix" />
			<feColorMatrix in="SourceAlpha" type="matrix" values="0 0 0 0 0 0 0 0 0 0 0 0 0 0 0 0 0 0 127 0" result="hardAlpha" />
			<feOffset dx="-4" />
			<feGaussianBlur stdDeviation="5" />
			<feColorMatrix type="matrix" values="0 0 0 0 0.397708 0 0 0 0 0.47749 0 0 0 0 0.575 0 0 0 0.15 0" />
			<feBlend mode="normal" in2="BackgroundImageFix" result="effect1_dropShadow_2630_23437" />
			<feBlend mode="normal" in="SourceGraphic" in2="effect1_dropShadow_2630_23437" result="shape" />
		</filter>
		<filter id="filter1_d_2630_23437" x="146.251" y="56.8982" width="46.6416" height="45.8727" filterUnits="userSpaceOnUse" color-interpolation-filters="sRGB">
			<feFlood flood-opacity="0" result="BackgroundImageFix" />
			<feColorMatrix in="SourceAlpha" type="matrix" values="0 0 0 0 0 0 0 0 0 0 0 0 0 0 0 0 0 0 127 0" result="hardAlpha" />
			<feOffset dx="-4" />
			<feGaussianBlur stdDeviation="5" />
			<feColorMatrix type="matrix" values="0 0 0 0 0.397708 0 0 0 0 0.47749 0 0 0 0 0.575 0 0 0 0.15 0" />
			<feBlend mode="normal" in2="BackgroundImageFix" result="effect1_dropShadow_2630_23437" />
			<feBlend mode="normal" in="SourceGraphic" in2="effect1_dropShadow_2630_23437" result="shape" />
		</filter>
		<filter id="filter2_d_2630_23437" x="27.2021" y="72.5559" width="128.089" height="99.4992" filterUnits="userSpaceOnUse" color-interpolation-filters="sRGB">
			<feFlood flood-opacity="0" result="BackgroundImageFix" />
			<feColorMatrix in="SourceAlpha" type="matrix" values="0 0 0 0 0 0 0 0 0 0 0 0 0 0 0 0 0 0 127 0" result="hardAlpha" />
			<feOffset dy="11" />
			<feGaussianBlur stdDeviation="11" />
			<feColorMatrix type="matrix" values="0 0 0 0 0.397708 0 0 0 0 0.47749 0 0 0 0 0.575 0 0 0 0.27 0" />
			<feBlend mode="normal" in2="BackgroundImageFix" result="effect1_dropShadow_2630_23437" />
			<feBlend mode="normal" in="SourceGraphic" in2="effect1_dropShadow_2630_23437" result="shape" />
		</filter>
		<linearGradient id="paint0_linear_2630_23437" x1="30.7238" y1="48.6897" x2="30.7238" y2="75.3808" gradientUnits="userSpaceOnUse">
			<stop stop-color="#FDFEFF" />
			<stop offset="0.9964" stop-color="#ECF0F5" />
		</linearGradient>
		<linearGradient id="paint1_linear_2630_23437" x1="173.563" y1="66.2997" x2="173.563" y2="93.0498" gradientUnits="userSpaceOnUse">
			<stop stop-color="#FDFEFF" />
			<stop offset="0.9964" stop-color="#ECF0F5" />
		</linearGradient>
		<linearGradient id="paint2_linear_2630_23437" x1="91.2192" y1="82.2722" x2="91.2192" y2="139.653" gradientUnits="userSpaceOnUse">
			<stop stop-color="#FDFEFF" />
			<stop offset="0.9964" stop-color="#ECF0F5" />
		</linearGradient>
	</defs>
</svg>
