<svg width="1440" height="507" viewBox="0 0 1440 507" fill="none" xmlns="http://www.w3.org/2000/svg">
	<g opacity="0.24" clip-path="url(#clip0_4235_61464)">
		<path d="M456.895 151.704H393.353V404.502H456.895V151.704Z" fill="#EEF5FF" />
		<path d="M446.518 133.583H403.739V239.814H446.518V133.583Z" fill="#EEF5FF" />
		<path d="M436.991 122.082H413.262V181.006H436.991V122.082Z" fill="#EEF5FF" />
		<path d="M433.214 152.364H417.039V112.208H422.874H428.655H433.214V152.364Z" fill="#EEF5FF" />
		<path d="M424.061 134.878H422.306V94.7168H422.941H423.565H424.061V134.878Z" fill="#EEF5FF" />
		<path d="M427.948 120.993H426.192V80.8374H426.822H427.451H427.948V120.993Z" fill="#EEF5FF" />
		<path d="M458.589 151.057H391.657V153.749H458.589V151.057Z" fill="#EEF5FF" />
		<path d="M448.074 132.283H402.178V134.872H448.074V132.283Z" fill="#EEF5FF" />
		<path d="M437.983 120.993H411.53V122.984H437.983V120.993Z" fill="#EEF5FF" />
		<path opacity="0.29" d="M409.66 137.892H407.668V149.024H409.66V137.892Z" fill="#EEF5FF" />
		<path opacity="0.29" d="M415.162 137.892H413.171V149.024H415.162V137.892Z" fill="#EEF5FF" />
		<path opacity="0.29" d="M420.664 137.892H418.673V149.024H420.664V137.892Z" fill="#EEF5FF" />
		<path opacity="0.29" d="M426.167 137.892H424.176V149.024H426.167V137.892Z" fill="#EEF5FF" />
		<path opacity="0.29" d="M431.67 137.892H429.679V149.024H431.67V137.892Z" fill="#EEF5FF" />
		<path opacity="0.29" d="M437.172 137.892H435.181V149.024H437.172V137.892Z" fill="#EEF5FF" />
		<path opacity="0.29" d="M442.675 137.892H440.684V149.024H442.675V137.892Z" fill="#EEF5FF" />
		<path d="M403.74 161.784H398.934V174.991H403.74V161.784Z" fill="#EEF5FF" />
		<path opacity="0.29" d="M413.256 161.784H408.449V174.991H413.256V161.784Z" fill="#EEF5FF" />
		<path d="M422.771 161.784H417.965V174.991H422.771V161.784Z" fill="#EEF5FF" />
		<path d="M432.287 161.784H427.48V174.991H432.287V161.784Z" fill="#EEF5FF" />
		<path d="M441.803 161.784H436.997V174.991H441.803V161.784Z" fill="#EEF5FF" />
		<path d="M451.319 161.784H446.513V174.991H451.319V161.784Z" fill="#EEF5FF" />
		<path d="M403.74 182.367H398.934V195.574H403.74V182.367Z" fill="#EEF5FF" />
		<path d="M413.256 182.367H408.449V195.574H413.256V182.367Z" fill="#EEF5FF" />
		<path d="M422.771 182.367H417.965V195.574H422.771V182.367Z" fill="#EEF5FF" />
		<path opacity="0.29" d="M432.287 182.367H427.48V195.574H432.287V182.367Z" fill="#EEF5FF" />
		<path d="M441.803 182.367H436.997V195.574H441.803V182.367Z" fill="#EEF5FF" />
		<path d="M451.319 182.367H446.513V195.574H451.319V182.367Z" fill="#EEF5FF" />
		<path d="M403.74 202.956H398.934V216.164H403.74V202.956Z" fill="#EEF5FF" />
		<path d="M413.256 202.956H408.449V216.164H413.256V202.956Z" fill="#EEF5FF" />
		<path d="M422.771 202.956H417.965V216.164H422.771V202.956Z" fill="#EEF5FF" />
		<path d="M432.287 202.956H427.48V216.164H432.287V202.956Z" fill="#EEF5FF" />
		<path opacity="0.29" d="M441.803 202.956H436.997V216.164H441.803V202.956Z" fill="#EEF5FF" />
		<path opacity="0.29" d="M451.319 202.956H446.513V216.164H451.319V202.956Z" fill="#EEF5FF" />
		<path opacity="0.29" d="M403.74 223.539H398.934V236.747H403.74V223.539Z" fill="#EEF5FF" />
		<path d="M413.256 223.539H408.449V236.747H413.256V223.539Z" fill="#EEF5FF" />
		<path d="M422.771 223.539H417.965V236.747H422.771V223.539Z" fill="#EEF5FF" />
		<path d="M432.287 223.539H427.48V236.747H432.287V223.539Z" fill="#EEF5FF" />
		<path d="M441.803 223.539H436.997V236.747H441.803V223.539Z" fill="#EEF5FF" />
		<path d="M451.319 223.539H446.513V236.747H451.319V223.539Z" fill="#EEF5FF" />
		<path d="M403.74 244.128H398.934V257.336H403.74V244.128Z" fill="#EEF5FF" />
		<path opacity="0.29" d="M413.256 244.128H408.449V257.336H413.256V244.128Z" fill="#EEF5FF" />
		<path d="M422.771 244.128H417.965V257.336H422.771V244.128Z" fill="#EEF5FF" />
		<path opacity="0.29" d="M432.287 244.128H427.48V257.336H432.287V244.128Z" fill="#EEF5FF" />
		<path d="M441.803 244.128H436.997V257.336H441.803V244.128Z" fill="#EEF5FF" />
		<path d="M451.319 244.128H446.513V257.336H451.319V244.128Z" fill="#EEF5FF" />
		<path d="M403.74 264.711H398.934V277.919H403.74V264.711Z" fill="#EEF5FF" />
		<path d="M413.256 264.711H408.449V277.919H413.256V264.711Z" fill="#EEF5FF" />
		<path d="M422.771 264.711H417.965V277.919H422.771V264.711Z" fill="#EEF5FF" />
		<path d="M432.287 264.711H427.48V277.919H432.287V264.711Z" fill="#EEF5FF" />
		<path d="M441.803 264.711H436.997V277.919H441.803V264.711Z" fill="#EEF5FF" />
		<path opacity="0.29" d="M451.319 264.711H446.513V277.919H451.319V264.711Z" fill="#EEF5FF" />
		<path d="M403.74 285.3H398.934V298.508H403.74V285.3Z" fill="#EEF5FF" />
		<path opacity="0.29" d="M413.256 285.3H408.449V298.508H413.256V285.3Z" fill="#EEF5FF" />
		<path opacity="0.29" d="M422.771 285.3H417.965V298.508H422.771V285.3Z" fill="#EEF5FF" />
		<path d="M432.287 285.3H427.48V298.508H432.287V285.3Z" fill="#EEF5FF" />
		<path d="M441.803 285.3H436.997V298.508H441.803V285.3Z" fill="#EEF5FF" />
		<path d="M451.319 285.3H446.513V298.508H451.319V285.3Z" fill="#EEF5FF" />
		<path d="M403.74 305.883H398.934V319.091H403.74V305.883Z" fill="#EEF5FF" />
		<path d="M413.256 305.883H408.449V319.091H413.256V305.883Z" fill="#EEF5FF" />
		<path d="M422.771 305.883H417.965V319.091H422.771V305.883Z" fill="#EEF5FF" />
		<path d="M432.287 305.883H427.48V319.091H432.287V305.883Z" fill="#EEF5FF" />
		<path opacity="0.29" d="M441.803 305.883H436.997V319.091H441.803V305.883Z" fill="#EEF5FF" />
		<path d="M451.319 305.883H446.513V319.091H451.319V305.883Z" fill="#EEF5FF" />
		<path d="M403.74 326.472H398.934V339.68H403.74V326.472Z" fill="#EEF5FF" />
		<path opacity="0.29" d="M413.256 326.472H408.449V339.68H413.256V326.472Z" fill="#EEF5FF" />
		<path d="M422.771 326.472H417.965V339.68H422.771V326.472Z" fill="#EEF5FF" />
		<path d="M432.287 326.472H427.48V339.68H432.287V326.472Z" fill="#EEF5FF" />
		<path d="M441.803 326.472H436.997V339.68H441.803V326.472Z" fill="#EEF5FF" />
		<path d="M451.319 326.472H446.513V339.68H451.319V326.472Z" fill="#EEF5FF" />
		<path d="M403.74 347.055H398.934V360.263H403.74V347.055Z" fill="#EEF5FF" />
		<path d="M413.256 347.055H408.449V360.263H413.256V347.055Z" fill="#EEF5FF" />
		<path d="M422.771 347.055H417.965V360.263H422.771V347.055Z" fill="#EEF5FF" />
		<path opacity="0.29" d="M432.287 347.055H427.48V360.263H432.287V347.055Z" fill="#EEF5FF" />
		<path d="M441.803 347.055H436.997V360.263H441.803V347.055Z" fill="#EEF5FF" />
		<path opacity="0.29" d="M451.319 347.055H446.513V360.263H451.319V347.055Z" fill="#EEF5FF" />
		<path opacity="0.29" d="M403.74 367.638H398.934V380.846H403.74V367.638Z" fill="#EEF5FF" />
		<path d="M413.256 367.638H408.449V380.846H413.256V367.638Z" fill="#EEF5FF" />
		<path opacity="0.29" d="M422.771 367.638H417.965V380.846H422.771V367.638Z" fill="#EEF5FF" />
		<path d="M432.287 367.638H427.48V380.846H432.287V367.638Z" fill="#EEF5FF" />
		<path d="M441.803 367.638H436.997V380.846H441.803V367.638Z" fill="#EEF5FF" />
		<path d="M451.319 367.638H446.513V380.846H451.319V367.638Z" fill="#EEF5FF" />
		<path d="M310.954 161.318H208.81V374.276H310.954V161.318Z" fill="#EEF5FF" />
		<path d="M313.854 157.658H205.904V163.678H313.854V157.658Z" fill="#EEF5FF" />
		<path d="M307.522 149.956H212.242V178.568H307.522V149.956Z" fill="#EEF5FF" />
		<path d="M257.267 138.249H219.536V169.51H257.267V138.249Z" fill="#EEF5FF" />
		<path d="M241.371 147.058H219.536V130.601H235.196L241.371 147.058Z" fill="#EEF5FF" />
		<path d="M230.457 116.946H228.338V153.598H230.457V116.946Z" fill="#EEF5FF" />
		<path d="M229.398 116.946C230.448 116.946 231.299 116.095 231.299 115.046C231.299 113.997 230.448 113.146 229.398 113.146C228.348 113.146 227.497 113.997 227.497 115.046C227.497 116.095 228.348 116.946 229.398 116.946Z" fill="#EEF5FF" />
		<path d="M1156.83 390.49H1045.02L1031.07 77.3828L1156.83 103.478V390.49Z" fill="#EEF5FF" />
		<path d="M669.009 211.681V106.999H651.473V78.9559H645.208V37.8323H610.692V7.61123H607.623V37.8323H600.861V0H597.786V37.8323H575.97V106.999H564.698V211.681H555.037V402.349H675.801V211.681H669.009Z" fill="#EEF5FF" />
		<path d="M1402.01 386.612H66.0537V418.37H1402.01V386.612Z" fill="#EEF5FF" />
		<path d="M852.438 410.589H793.278L816.33 292.186H852.438V410.589Z" fill="#80A1D4" />
		<path d="M1420.81 415.199H18.1172V507H1420.81V415.199Z" fill="#80A1D4" />
		<path d="M803.956 191.485V139.017H784.961V119.045H774.798V102.268H771.232V73.4985H770.312V102.268H766.747V119.045H756.583V139.017H737.733V191.485H733.816V286.74H704.591V395.33H733.816H763.042H807.728V191.485H803.956Z" fill="#80A1D4" />
		<path d="M913.122 251.757H821.178V253.427H825.342V408.81H908.963V253.427H913.122V251.757Z" fill="#80A1D4" />
		<path d="M493.868 290.461H412.354V419.9H493.868V290.461Z" fill="#80A1D4" />
		<path d="M400.077 356.778H259.882V419.9H400.077V356.778Z" fill="#80A1D4" />
		<path d="M365.804 215.752H335.028V370.76H365.804V215.752Z" fill="#80A1D4" />
		<path d="M343.418 174.405H341.82V258.697H343.418V174.405Z" fill="#80A1D4" />
		<path d="M348.618 180.794H347.02V265.086H348.618V180.794Z" fill="#80A1D4" />
		<path d="M356.214 206.163H337.4V226.939H356.214V206.163Z" fill="#80A1D4" />
		<path d="M448.141 313.627H394.581V419.894H448.141V313.627Z" fill="#80A1D4" />
		<path d="M607.622 201.171H507.082V419.895H607.622V201.171Z" fill="#80A1D4" />
		<path d="M597.743 193.657H516.961V230.085H597.743V193.657Z" fill="#80A1D4" />
		<path d="M615.418 205.751H499.291V208.311H615.418V205.751Z" fill="#80A1D4" />
		<path d="M536.241 309.435H488.867V419.894H536.241V309.435Z" fill="#80A1D4" />
		<path d="M203.924 305.242H149.565V419.9H203.924V305.242Z" fill="#80A1D4" />
		<path d="M275.469 274.077H167.15V419.894H275.469V274.077Z" fill="#80A1D4" />
		<path d="M278.266 268.486H160.831V274.077H278.266V268.486Z" fill="#80A1D4" />
		<path d="M219.549 253.306H171.945V282.868H219.549V253.306Z" fill="#80A1D4" />
		<path d="M243.096 253.306H235.1V271.281H243.096V253.306Z" fill="#80A1D4" />
		<path d="M259.881 253.306H251.086V271.281H259.881V253.306Z" fill="#80A1D4" />
		<path d="M176.745 375.552H119.989V419.894H176.745V375.552Z" fill="#80A1D4" />
		<path d="M125.425 356.778H98.5479V419.9H125.425V356.778Z" fill="#80A1D4" />
		<path d="M111.986 397.726H66.0537V419.9H111.986V397.726Z" fill="#80A1D4" />
		<path d="M1163.75 370.76H597.749V419.901H1163.75V370.76Z" fill="#80A1D4" />
		<path d="M1118.55 234.738C1114.98 234.738 1112.07 237.479 1111.77 240.964L1103.81 240.703C1103.83 239.923 1103.84 239.143 1103.84 238.362C1103.84 228.452 1102.13 218.808 1098.85 209.756L1105.5 207.306C1106.54 209.714 1108.94 211.402 1111.74 211.402C1115.5 211.402 1118.54 208.359 1118.54 204.602C1118.54 200.844 1115.5 197.801 1111.74 197.801C1107.98 197.801 1104.93 200.844 1104.93 204.602C1104.93 205.297 1105.04 205.963 1105.23 206.592L1098.58 209.042C1094.79 198.878 1089.01 189.488 1081.44 181.35L1086.64 176.474C1087.86 177.642 1089.52 178.356 1091.34 178.356C1095.1 178.356 1098.14 175.312 1098.14 171.555C1098.14 167.798 1095.1 164.755 1091.34 164.755C1087.58 164.755 1084.53 167.798 1084.53 171.555C1084.53 173.219 1085.13 174.737 1086.12 175.917L1080.92 180.794C1080.38 180.225 1079.83 179.668 1079.28 179.112C1071.39 171.228 1062.22 165.111 1052.22 160.961L1055.09 153.991C1055.73 154.197 1056.43 154.312 1057.14 154.312C1060.9 154.312 1063.95 151.268 1063.95 147.511C1063.95 143.754 1060.9 140.711 1057.14 140.711C1053.38 140.711 1050.34 143.754 1050.34 147.511C1050.34 150.282 1052 152.66 1054.38 153.725L1051.52 160.677C1042.58 157.053 1033 154.995 1023.12 154.638L1023.43 145.109C1023.5 145.109 1023.57 145.109 1023.64 145.109C1027.4 145.109 1030.45 142.066 1030.45 138.309C1030.45 134.552 1027.4 131.508 1023.64 131.508C1019.89 131.508 1016.84 134.552 1016.84 138.309C1016.84 141.733 1019.38 144.565 1022.67 145.037L1022.36 154.608C1021.58 154.584 1020.8 154.578 1020.02 154.578C1010.5 154.578 1001.23 156.151 992.5 159.176L989.758 151.402C992.234 150.385 993.971 147.953 993.971 145.115C993.971 141.358 990.926 138.315 987.167 138.315C983.408 138.315 980.363 141.358 980.363 145.115C980.363 148.873 983.408 151.916 987.167 151.916C987.815 151.916 988.444 151.825 989.037 151.656L991.78 159.436C981.192 163.212 971.41 169.129 962.978 176.97L958.008 171.67C959.122 170.46 959.8 168.844 959.8 167.072C959.8 163.315 956.755 160.271 952.996 160.271C949.237 160.271 946.192 163.315 946.192 167.072C946.192 170.829 949.237 173.872 952.996 173.872C954.709 173.872 956.271 173.237 957.463 172.196L962.427 177.49C961.858 178.029 961.301 178.573 960.744 179.124C953.728 186.136 948.117 194.165 944.031 202.889L937.717 199.973C937.947 199.295 938.074 198.563 938.074 197.807C938.074 194.05 935.029 191.007 931.27 191.007C927.511 191.007 924.466 194.05 924.466 197.807C924.466 201.564 927.511 204.608 931.27 204.608C934 204.608 936.355 202.998 937.439 200.675L943.716 203.573C939.206 213.435 936.652 224.156 936.252 235.258L928.147 234.992C928.044 231.326 925.041 228.385 921.349 228.385C917.656 228.385 914.545 231.428 914.545 235.186C914.545 238.943 917.59 241.986 921.349 241.986C925.108 241.986 927.838 239.245 928.123 235.754L936.228 236.021C936.204 236.801 936.198 237.582 936.198 238.362C936.198 248.272 937.911 257.916 941.192 266.968L934.539 269.418C933.492 267.004 931.095 265.322 928.298 265.322C924.539 265.322 921.494 268.365 921.494 272.122C921.494 275.88 924.539 278.923 928.298 278.923C932.057 278.923 935.102 275.88 935.102 272.122C935.102 271.427 934.999 270.761 934.805 270.132L941.458 267.682C945.247 277.846 951.028 287.236 958.601 295.374L953.395 300.25C952.172 299.082 950.52 298.369 948.698 298.369C944.939 298.369 941.894 301.412 941.894 305.169C941.894 308.926 944.939 311.97 948.698 311.97C952.457 311.97 955.502 308.926 955.502 305.169C955.502 303.505 954.903 301.987 953.916 300.807L959.122 295.93C959.66 296.499 960.205 297.056 960.756 297.612C966.065 302.918 971.967 307.426 978.305 311.074L937.293 386.63H929.932V388.79H926.331V393.079H1113.72V388.79H1110.12V386.63H1102.76L1061.74 311.074C1067.21 307.928 1072.34 304.147 1077.06 299.766L1083.71 306.857C1082.28 308.103 1081.38 309.937 1081.38 311.976C1081.38 315.733 1084.42 318.776 1088.18 318.776C1091.94 318.776 1094.98 315.733 1094.98 311.976C1094.98 308.218 1091.94 305.175 1088.18 305.175C1086.74 305.175 1085.41 305.623 1084.3 306.385L1077.61 299.246C1078.18 298.707 1078.74 298.163 1079.29 297.612C1086.31 290.6 1091.92 282.571 1096.01 273.847L1103.41 277.259C1103.28 277.792 1103.2 278.348 1103.2 278.923C1103.2 282.68 1106.25 285.723 1110.01 285.723C1113.77 285.723 1116.81 282.68 1116.81 278.923C1116.81 275.166 1113.77 272.122 1110.01 272.122C1107.1 272.122 1104.61 273.956 1103.64 276.527L1096.33 273.151C1100.84 263.289 1103.39 252.568 1103.79 241.466L1111.76 241.726C1111.85 245.392 1114.86 248.339 1118.55 248.339C1122.25 248.339 1125.36 245.296 1125.36 241.538C1125.36 237.781 1122.31 234.738 1118.55 234.738H1118.55ZM1101.58 238.362C1101.58 239.118 1101.56 239.875 1101.54 240.631L1078.08 239.869C1078.09 239.366 1078.1 238.864 1078.1 238.362C1078.1 231.453 1076.88 224.815 1074.66 218.662L1096.73 210.543C1099.92 219.34 1101.58 228.724 1101.58 238.362H1101.58ZM1076.94 239.832L1024.59 238.132C1024.58 237.793 1024.52 237.461 1024.44 237.14L1073.58 219.056C1075.77 225.088 1076.96 231.586 1076.96 238.362C1076.96 238.852 1076.96 239.342 1076.94 239.832ZM963.117 236.892L1015.47 238.592C1015.48 238.931 1015.54 239.264 1015.62 239.584L966.477 257.668C964.291 251.636 963.099 245.138 963.099 238.362C963.099 237.872 963.105 237.382 963.117 236.892ZM1023.61 235.524L1061.81 199.749C1066.76 205.104 1070.7 211.402 1073.32 218.348L1024.18 236.432C1024.03 236.105 1023.84 235.803 1023.61 235.524ZM1023.1 234.974C1022.8 234.708 1022.47 234.478 1022.11 234.296L1042.01 185.876C1049.34 188.956 1055.9 193.524 1061.3 199.205L1023.1 234.98V234.974ZM1021.42 234.006C1021.14 233.921 1020.85 233.861 1020.56 233.824L1022.26 181.508C1028.97 181.768 1035.39 183.19 1041.31 185.586L1021.42 234.006ZM1019.81 233.8C1019.49 233.818 1019.18 233.867 1018.88 233.945L1001.47 184.575C1007.29 182.56 1013.54 181.465 1020.04 181.465C1020.53 181.465 1021.02 181.471 1021.51 181.483L1019.81 233.8ZM1018.17 234.193C1017.81 234.351 1017.49 234.55 1017.2 234.78L981.404 196.603C986.949 191.472 993.511 187.431 1000.76 184.817L1018.17 234.187V234.193ZM1016.65 235.301C1016.42 235.549 1016.22 235.821 1016.06 236.117L968.516 214.179C971.549 207.748 975.756 201.97 980.859 197.123L1016.65 235.301H1016.65ZM1015.74 236.801C1015.62 237.134 1015.53 237.479 1015.5 237.842L963.153 236.142C963.444 228.579 965.217 221.391 968.196 214.863L1015.74 236.801H1015.74ZM1015.89 240.298C1016.01 240.558 1016.16 240.812 1016.33 241.042L1016.02 241.617L978.256 276.981C973.305 271.626 969.364 265.328 966.743 258.382L1015.89 240.298ZM1014.87 243.723L991.168 287.399C986.586 284.695 982.415 281.367 978.771 277.537L1014.87 243.723ZM1017.45 242.143C1017.62 242.252 1017.78 242.355 1017.95 242.44L998.057 290.86C996.138 290.055 994.28 289.148 992.476 288.144L1017.45 242.137V242.143ZM1018.66 242.73C1018.93 242.815 1019.22 242.882 1019.51 242.912L1017.81 295.228C1011.1 294.968 1004.69 293.546 998.759 291.151L1018.66 242.73ZM1020.04 295.277C1019.55 295.277 1019.06 295.271 1018.57 295.259L1020.27 242.942C1020.59 242.924 1020.9 242.876 1021.19 242.797L1038.6 292.167C1032.78 294.182 1026.53 295.277 1020.04 295.277ZM1021.91 242.543C1022.16 242.428 1022.4 242.295 1022.62 242.143L1047.6 288.15C1044.96 289.614 1042.19 290.878 1039.32 291.913L1021.91 242.543H1021.91ZM1026.11 245.405L1058.67 280.133C1055.69 282.886 1052.42 285.324 1048.9 287.399L1026.11 245.405ZM1024.69 242.779L1023.75 241.048C1023.84 240.915 1023.93 240.77 1024.02 240.625L1071.56 262.563C1068.53 268.995 1064.32 274.773 1059.22 279.619L1024.69 242.785V242.779ZM1024.33 239.941C1024.46 239.608 1024.54 239.263 1024.58 238.9L1076.92 240.601C1076.63 248.163 1074.86 255.351 1071.88 261.879L1024.33 239.941H1024.33ZM997.633 291.913L988.698 313.664C985.974 312.532 983.311 311.25 980.72 309.822L991.943 289.148C993.783 290.17 995.678 291.096 997.633 291.913ZM998.335 292.197C1004.38 294.642 1010.93 296.094 1017.78 296.36L1017.02 319.817C1007.41 319.466 998.093 317.463 989.401 313.942L998.335 292.191V292.197ZM1018.54 296.39C1019.04 296.402 1019.54 296.408 1020.04 296.408C1026.67 296.408 1033.05 295.289 1038.99 293.232L1046.81 315.4C1038.32 318.34 1029.3 319.871 1020.05 319.871C1019.29 319.871 1018.54 319.859 1017.78 319.841L1018.54 296.39H1018.54ZM1039.7 292.984C1042.63 291.925 1045.45 290.642 1048.14 289.148L1059.37 309.822C1055.56 311.921 1051.6 313.7 1047.52 315.158L1039.7 292.984ZM1096.48 209.847L1074.4 217.973C1071.73 210.888 1067.71 204.456 1062.65 198.993L1079.81 182.923C1087.17 190.837 1092.79 199.967 1096.48 209.847ZM1077.71 180.745C1078.25 181.284 1078.77 181.822 1079.29 182.373L1062.14 198.436C1056.63 192.64 1049.93 187.975 1042.45 184.835L1051.39 163.085C1061.11 167.126 1070.04 173.08 1077.71 180.745ZM1050.69 162.8L1041.76 184.551C1035.71 182.107 1029.16 180.655 1022.31 180.388L1023.08 156.932C1032.68 157.282 1042 159.285 1050.69 162.806V162.8ZM1020.05 156.871C1020.81 156.871 1021.56 156.883 1022.32 156.901L1021.56 180.352C1021.05 180.34 1020.55 180.334 1020.05 180.334C1013.42 180.334 1007.05 181.453 1001.1 183.51L993.281 161.342C1001.77 158.402 1010.79 156.871 1020.04 156.871H1020.05ZM992.572 161.59L1000.39 183.764C993.002 186.433 986.301 190.553 980.647 195.792L964.57 178.646C972.772 171.023 982.276 165.269 992.572 161.596V161.59ZM962.391 180.739C962.929 180.201 963.468 179.674 964.019 179.154L980.09 196.301C974.885 201.244 970.593 207.143 967.494 213.707L946.131 203.851C950.102 195.369 955.562 187.558 962.384 180.739H962.391ZM945.816 204.535L967.173 214.391C964.134 221.058 962.324 228.391 962.027 236.105L938.558 235.343C938.952 224.549 941.434 214.125 945.816 204.535ZM938.504 238.368C938.504 237.612 938.516 236.856 938.534 236.099L961.997 236.862C961.985 237.364 961.979 237.866 961.979 238.368C961.979 245.277 963.196 251.915 965.423 258.068L943.353 266.187C940.163 257.39 938.498 248.006 938.498 238.368H938.504ZM943.619 266.895L965.696 258.77C968.365 265.854 972.391 272.286 977.445 277.749L960.29 293.819C952.929 285.905 947.306 276.775 943.619 266.895ZM962.391 295.997C961.852 295.458 961.325 294.92 960.805 294.369L977.96 278.306C981.689 282.226 985.956 285.627 990.641 288.392L979.419 309.071C973.268 305.526 967.548 301.152 962.391 296.003V295.997ZM1101.06 386.618H939.043L979.649 311.806C982.312 313.276 985.042 314.589 987.845 315.757L984.982 322.727C984.334 322.521 983.638 322.406 982.923 322.406C979.164 322.406 976.12 325.45 976.12 329.207C976.12 332.964 979.164 336.007 982.923 336.007C986.683 336.007 989.727 332.964 989.727 329.207C989.727 326.436 988.069 324.058 985.69 322.993L988.547 316.041C997.488 319.665 1007.07 321.723 1016.95 322.08L1016.72 329.207C1013.03 329.291 1010.07 332.298 1010.07 336.001C1010.07 339.704 1013.12 342.802 1016.88 342.802C1020.64 342.802 1023.68 339.758 1023.68 336.001C1023.68 332.45 1020.95 329.533 1017.48 329.231L1017.71 322.104C1018.49 322.128 1019.27 322.134 1020.05 322.134C1029.56 322.134 1038.83 320.561 1047.57 317.536L1050.01 324.469C1047.7 325.552 1046.1 327.9 1046.1 330.629C1046.1 334.386 1049.14 337.429 1052.9 337.429C1056.66 337.429 1059.7 334.386 1059.7 330.629C1059.7 326.871 1056.66 323.828 1052.9 323.828C1052.14 323.828 1051.4 323.955 1050.72 324.185L1048.29 317.288C1052.48 315.793 1056.55 313.96 1060.45 311.806L1101.07 386.618H1101.06ZM1060.68 309.071L1049.46 288.392C1053.06 286.268 1056.41 283.775 1059.46 280.956L1075.53 298.102C1070.96 302.35 1065.98 306.022 1060.68 309.071ZM1077.71 296.003C1077.17 296.541 1076.64 297.068 1076.08 297.588L1060.01 280.442C1065.22 275.499 1069.51 269.6 1072.61 263.035L1093.97 272.891C1090 281.373 1084.54 289.184 1077.72 296.003H1077.71ZM1094.29 272.207L1072.93 262.351C1075.97 255.684 1077.78 248.351 1078.08 240.637L1101.54 241.399C1101.15 252.193 1098.67 262.618 1094.29 272.207Z" fill="#80A1D4" />
		<path d="M1222.37 291.901H1134.96V419.894H1222.37V291.901Z" fill="#80A1D4" />
		<path d="M1296.98 341.665H1209.58V419.174H1296.98V341.665Z" fill="#80A1D4" />
		<path d="M919.66 330.284H870.628V395.33H919.66V330.284Z" fill="#80A1D4" />
		<path d="M1240.49 170.176H1178.67V419.894H1240.49V170.176Z" fill="#80A1D4" />
		<path d="M1342.28 419.894H1260.74V274.077H1322.57L1342.28 419.894Z" fill="#80A1D4" />
		<path d="M1377.98 386.612H1306.57V419.9H1377.98V386.612Z" fill="#80A1D4" />
		<path d="M1226.63 118.01H1224.5V185.87H1226.63V118.01Z" fill="#80A1D4" />
		<path d="M1233.83 132.567H1231.7V200.427H1233.83V132.567Z" fill="#80A1D4" />
		<path d="M1220.11 141.939H1217.97V209.799H1220.11V141.939Z" fill="#80A1D4" />
		<path d="M1293.11 262.291H1263.94V285.264H1293.11V262.291Z" fill="#80A1D4" />
		<path d="M1289.92 254.105H1267.13V267.016H1289.92V254.105Z" fill="#80A1D4" />
		<path d="M1310.3 269.025H1304.71V278.3H1310.3V269.025Z" fill="#80A1D4" />
		<path d="M1320.28 260.561H1312.29V278.3H1320.28V260.561Z" fill="#80A1D4" />
		<path d="M1218.42 206.036C1218.42 204.989 1217.71 204.136 1216.82 204.136C1215.94 204.136 1215.23 204.989 1215.23 206.036C1215.23 207.082 1215.94 207.935 1216.82 207.935C1217.71 207.935 1218.42 207.082 1218.42 206.036Z" fill="#2E5EAA" />
		<path d="M1392.35 436.962L1382.44 370.76H1362.19V315.824H1364.7V310.857H1354.87V289.457H1353.67V310.857H1346.87V293.323H1345.67V310.857H1304.71V315.824H1307.51V427.288H1260.74V377.361H1234.11V254.674H1236.55V248.654H1231.23V240.946H1225.11V238.054V229.239V221.597H1217.71V207.936H1216.83H1215.94V221.597H1211.96L1209.55 229.239H1193.44V240.946H1151.25V248.654H1145.93V254.674H1148.37V334.495H1113.07V412.931L1073.91 395.585V319.454H1080.23V313.864H1069.11V298.683H1021.5V313.864H1005.95V298.683H997.96V313.864H989.964V298.683H981.174V313.864H962.784V319.454H965.581V424.971H947.73V423.863H944.497V393.8H947.73V391.386H944.497V361.316H947.73V358.902H944.497V328.838H947.73V326.424H944.497V296.354H947.73V293.94H944.497V263.876H947.73V261.462H944.497V230.346H950.036V227.926H952.851V221.325H900.272V213.992H901.979V211.868H873.352V213.992H875.059V221.325H862.033V227.926H864.847V230.346H870.386V261.462H867.154V263.876H870.386V293.94H867.154V296.354H870.386V326.424H867.154V328.838H870.386V358.902H867.154V361.316H870.386V391.386H867.154V393.8H870.386V423.863H867.154V426.277H870.386V450.848H852.438V355.901H780.222V424.971H768.496V209.799H759.822V215.335L743.817 219.25V215.656H735.142V221.373L719.137 225.288V221.161H710.463V227.405L694.452 231.32V227.914H685.777V233.437L669.772 237.352V234.424H661.098V445.723H648.894V333.073H603.694V402.349H557.356V343.274H551.647V323.871H555.037V321.923H540.037V315.824H538.439V321.923H533.645V290.612H532.446V321.923H526.199V323.871H529.873V343.274H499.292V388.336H469.522L453.971 445.723H422.772V258.346H381.464V251.637H383.806V249.283H352.523V251.637H354.98V258.346V269.146V397.472H335.507V348.985H342.426V344.599H293.418V315.304H284.071V309.284H263.199V315.304H246.22V419.894H190.511V342.324H143.603V403.595H102.895V442.795H73.5481V393.515H34.946V435.534H0V507H34.946H46.756H66.0541H73.5481H102.895H143.603H157.284H164.609H190.511H246.22H263.199H284.071H293.418H329.98H335.507H354.98H387.644H403.74H422.772H499.292H516.962H546.793H557.356H604.487H617.151H661.098H665.438H669.772H685.777H694.452H710.463H717.709H719.137H735.142H743.817H757.576H759.822H764.162H768.496H780.222H839.914H848.437H852.438H870.386H901.979H930.901H944.497H965.581H1017.95H1073.32H1073.91H1113.07H1134.97H1148.37H1156.83H1222.37H1234.11H1248.14H1260.74H1307.51H1342.28H1349.4H1362.19H1440V436.962H1392.35Z" fill="#2E5EAA" />
		<g opacity="0.52">
			<path d="M254.658 322.896H251.087V326.466H254.658V322.896Z" fill="white" />
			<path d="M261.838 322.896H258.267V326.466H261.838V322.896Z" fill="white" />
			<path d="M254.658 331.288H251.087V334.858H254.658V331.288Z" fill="white" />
			<path d="M261.838 331.288H258.267V334.858H261.838V331.288Z" fill="white" />
			<path d="M254.658 339.396H251.087V342.965H254.658V339.396Z" fill="white" />
			<path d="M269.816 322.896H266.244V326.466H269.816V322.896Z" fill="white" />
		</g>
		<path opacity="0.5" d="M514.994 215.656H512.555V229.136H514.994V215.656Z" fill="white" />
		<path opacity="0.5" d="M523.391 215.656H520.951V229.136H523.391V215.656Z" fill="white" />
		<path opacity="0.5" d="M531.793 215.656H529.354V229.136H531.793V215.656Z" fill="white" />
		<path opacity="0.5" d="M540.189 215.656H537.749V229.136H540.189V215.656Z" fill="white" />
		<path opacity="0.5" d="M548.585 215.656H546.146V229.136H548.585V215.656Z" fill="white" />
		<path opacity="0.5" d="M556.98 215.656H554.541V229.136H556.98V215.656Z" fill="white" />
		<path opacity="0.5" d="M565.377 215.656H562.938V229.136H565.377V215.656Z" fill="white" />
		<path opacity="0.5" d="M573.778 215.656H571.339V229.136H573.778V215.656Z" fill="white" />
		<path opacity="0.5" d="M582.175 215.656H579.735V229.136H582.175V215.656Z" fill="white" />
		<path opacity="0.5" d="M590.57 215.656H588.131V229.136H590.57V215.656Z" fill="white" />
		<path opacity="0.5" d="M598.967 215.656H596.527V229.136H598.967V215.656Z" fill="white" />
		<path opacity="0.5" d="M514.994 234.423H512.555V247.903H514.994V234.423Z" fill="white" />
		<path opacity="0.5" d="M523.391 234.423H520.951V247.903H523.391V234.423Z" fill="white" />
		<path opacity="0.5" d="M531.793 234.423H529.354V247.903H531.793V234.423Z" fill="white" />
		<path opacity="0.5" d="M540.189 234.423H537.749V247.903H540.189V234.423Z" fill="white" />
		<path opacity="0.5" d="M548.585 234.423H546.146V247.903H548.585V234.423Z" fill="white" />
		<path opacity="0.5" d="M556.98 234.423H554.541V247.903H556.98V234.423Z" fill="white" />
		<path opacity="0.5" d="M565.377 234.423H562.938V247.903H565.377V234.423Z" fill="white" />
		<path opacity="0.5" d="M573.778 234.423H571.339V247.903H573.778V234.423Z" fill="white" />
		<path opacity="0.5" d="M582.175 234.423H579.735V247.903H582.175V234.423Z" fill="white" />
		<path opacity="0.5" d="M590.57 234.423H588.131V247.903H590.57V234.423Z" fill="white" />
		<path opacity="0.5" d="M598.967 234.423H596.527V247.903H598.967V234.423Z" fill="white" />
		<path opacity="0.5" d="M514.994 253.191H512.555V266.671H514.994V253.191Z" fill="white" />
		<path opacity="0.5" d="M523.391 253.191H520.951V266.671H523.391V253.191Z" fill="white" />
		<path opacity="0.5" d="M531.793 253.191H529.354V266.671H531.793V253.191Z" fill="white" />
		<path opacity="0.5" d="M540.189 253.191H537.749V266.671H540.189V253.191Z" fill="white" />
		<path opacity="0.5" d="M548.585 253.191H546.146V266.671H548.585V253.191Z" fill="white" />
		<path opacity="0.5" d="M556.98 253.191H554.541V266.671H556.98V253.191Z" fill="white" />
		<path opacity="0.5" d="M565.377 253.191H562.938V266.671H565.377V253.191Z" fill="white" />
		<path opacity="0.5" d="M573.778 253.191H571.339V266.671H573.778V253.191Z" fill="white" />
		<path opacity="0.5" d="M582.175 253.191H579.735V266.671H582.175V253.191Z" fill="white" />
		<path opacity="0.5" d="M590.57 253.191H588.131V266.671H590.57V253.191Z" fill="white" />
		<path opacity="0.5" d="M598.967 253.191H596.527V266.671H598.967V253.191Z" fill="white" />
		<path opacity="0.5" d="M540.189 271.953H537.749V285.433H540.189V271.953Z" fill="white" />
		<path opacity="0.5" d="M548.585 271.953H546.146V285.433H548.585V271.953Z" fill="white" />
		<path opacity="0.5" d="M556.98 271.953H554.541V285.433H556.98V271.953Z" fill="white" />
		<path opacity="0.5" d="M565.377 271.953H562.938V285.433H565.377V271.953Z" fill="white" />
		<path opacity="0.5" d="M573.778 271.953H571.339V285.433H573.778V271.953Z" fill="white" />
		<path opacity="0.5" d="M582.175 271.953H579.735V285.433H582.175V271.953Z" fill="white" />
		<path opacity="0.5" d="M590.57 271.953H588.131V285.433H590.57V271.953Z" fill="white" />
		<path opacity="0.5" d="M598.967 271.953H596.527V285.433H598.967V271.953Z" fill="white" />
		<path opacity="0.5" d="M548.585 291.762H546.146V305.242H548.585V291.762Z" fill="white" />
		<path opacity="0.5" d="M556.98 291.762H554.541V305.242H556.98V291.762Z" fill="white" />
		<path opacity="0.5" d="M565.377 291.762H562.938V305.242H565.377V291.762Z" fill="white" />
		<path opacity="0.5" d="M573.778 291.762H571.339V305.242H573.778V291.762Z" fill="white" />
		<path opacity="0.5" d="M582.175 291.762H579.735V305.242H582.175V291.762Z" fill="white" />
		<path opacity="0.5" d="M590.57 291.762H588.131V305.242H590.57V291.762Z" fill="white" />
		<path opacity="0.5" d="M598.967 291.762H596.527V305.242H598.967V291.762Z" fill="white" />
		<path opacity="0.33" d="M680.657 249.114H674.9V263.707H680.657V249.114Z" fill="white" />
		<path opacity="0.33" d="M680.657 277.023H674.9V291.617H680.657V277.023Z" fill="white" />
		<path opacity="0.33" d="M680.657 304.939H674.9V319.533H680.657V304.939Z" fill="white" />
		<path opacity="0.33" d="M680.657 332.849H674.9V347.442H680.657V332.849Z" fill="white" />
		<path opacity="0.33" d="M680.657 359.168H674.9V373.761H680.657V359.168Z" fill="white" />
		<path opacity="0.33" d="M680.657 387.078H674.9V401.671H680.657V387.078Z" fill="white" />
		<path opacity="0.33" d="M705.336 249.114H699.579V263.707H705.336V249.114Z" fill="white" />
		<path opacity="0.33" d="M705.336 277.023H699.579V291.617H705.336V277.023Z" fill="white" />
		<path opacity="0.33" d="M705.336 304.939H699.579V319.533H705.336V304.939Z" fill="white" />
		<path opacity="0.33" d="M705.336 332.849H699.579V347.442H705.336V332.849Z" fill="white" />
		<path opacity="0.33" d="M705.336 359.168H699.579V373.761H705.336V359.168Z" fill="white" />
		<path opacity="0.33" d="M705.336 387.078H699.579V401.671H705.336V387.078Z" fill="white" />
		<path opacity="0.33" d="M730.016 249.114H724.259V263.707H730.016V249.114Z" fill="white" />
		<path opacity="0.33" d="M730.016 277.023H724.259V291.617H730.016V277.023Z" fill="white" />
		<path opacity="0.33" d="M730.016 304.939H724.259V319.533H730.016V304.939Z" fill="white" />
		<path opacity="0.33" d="M730.016 332.849H724.259V347.442H730.016V332.849Z" fill="white" />
		<path opacity="0.33" d="M730.016 359.168H724.259V373.761H730.016V359.168Z" fill="white" />
		<path opacity="0.33" d="M730.016 387.078H724.259V401.671H730.016V387.078Z" fill="white" />
		<path opacity="0.33" d="M754.701 249.114H748.944V263.707H754.701V249.114Z" fill="white" />
		<path opacity="0.33" d="M754.701 277.023H748.944V291.617H754.701V277.023Z" fill="white" />
		<path opacity="0.33" d="M754.701 304.939H748.944V319.533H754.701V304.939Z" fill="white" />
		<path opacity="0.33" d="M754.701 332.849H748.944V347.442H754.701V332.849Z" fill="white" />
		<path opacity="0.33" d="M754.701 359.168H748.944V373.761H754.701V359.168Z" fill="white" />
		<path opacity="0.33" d="M754.701 387.078H748.944V401.671H754.701V387.078Z" fill="white" />
		<path opacity="0.5" d="M586.963 45.6069H582.175V58.379H586.963V45.6069Z" fill="white" />
		<path opacity="0.5" d="M598.779 45.6069H593.991V58.379H598.779V45.6069Z" fill="white" />
		<path opacity="0.5" d="M610.595 45.6069H605.807V58.379H610.595V45.6069Z" fill="white" />
		<path opacity="0.5" d="M622.417 45.6069H617.629V58.379H622.417V45.6069Z" fill="white" />
		<path opacity="0.5" d="M586.963 66.8735H582.175V79.6456H586.963V66.8735Z" fill="white" />
		<path opacity="0.5" d="M598.779 66.8735H593.991V79.6456H598.779V66.8735Z" fill="white" />
		<path opacity="0.5" d="M610.595 66.8735H605.807V79.6456H610.595V66.8735Z" fill="white" />
		<path opacity="0.5" d="M622.417 66.8735H617.629V79.6456H622.417V66.8735Z" fill="white" />
		<path opacity="0.5" d="M586.963 88.1465H582.175V100.919H586.963V88.1465Z" fill="white" />
		<path opacity="0.5" d="M598.779 88.1465H593.991V100.919H598.779V88.1465Z" fill="white" />
		<path opacity="0.5" d="M635.819 45.6069H631.031V58.379H635.819V45.6069Z" fill="white" />
		<path opacity="0.4" d="M266.245 174.992H263.2V186.699H266.245V174.992Z" fill="white" />
		<path opacity="0.4" d="M276.995 174.992H273.95V186.699H276.995V174.992Z" fill="white" />
		<path opacity="0.4" d="M289.568 174.992H286.523V186.699H289.568V174.992Z" fill="white" />
		<path opacity="0.4" d="M300.312 174.992H297.268V186.699H300.312V174.992Z" fill="white" />
		<path opacity="0.4" d="M242.364 174.992H239.319V186.699H242.364V174.992Z" fill="white" />
		<path opacity="0.4" d="M253.115 174.992H250.07V186.699H253.115V174.992Z" fill="white" />
		<path opacity="0.4" d="M266.245 195.321H263.2V207.028H266.245V195.321Z" fill="white" />
		<path opacity="0.4" d="M276.995 195.321H273.95V207.028H276.995V195.321Z" fill="white" />
		<path opacity="0.4" d="M289.568 195.321H286.523V207.028H289.568V195.321Z" fill="white" />
		<path opacity="0.4" d="M300.312 195.321H297.268V207.028H300.312V195.321Z" fill="white" />
		<path opacity="0.4" d="M242.364 195.321H239.319V207.028H242.364V195.321Z" fill="white" />
		<path opacity="0.4" d="M253.115 195.321H250.07V207.028H253.115V195.321Z" fill="white" />
		<path opacity="0.4" d="M266.245 215.649H263.2V227.357H266.245V215.649Z" fill="white" />
		<path opacity="0.4" d="M276.995 215.649H273.95V227.357H276.995V215.649Z" fill="white" />
		<path opacity="0.4" d="M289.568 215.649H286.523V227.357H289.568V215.649Z" fill="white" />
		<path opacity="0.4" d="M300.312 215.649H297.268V227.357H300.312V215.649Z" fill="white" />
		<path opacity="0.4" d="M242.364 215.649H239.319V227.357H242.364V215.649Z" fill="white" />
		<path opacity="0.4" d="M253.115 215.649H250.07V227.357H253.115V215.649Z" fill="white" />
		<path opacity="0.5" d="M836.36 264.711H831.639V282.868H836.36V264.711Z" fill="white" />
		<path opacity="0.5" d="M850.798 264.711H846.076V282.868H850.798V264.711Z" fill="white" />
		<path opacity="0.5" d="M864.393 264.711H859.672V282.868H864.393V264.711Z" fill="white" />
		<path opacity="0.33" d="M1160.41 268.486H1156.83V278.699H1160.41V268.486Z" fill="white" />
		<path opacity="0.33" d="M1171.64 268.486H1168.06V278.699H1171.64V268.486Z" fill="white" />
		<path opacity="0.33" d="M1160.41 268.486H1156.83V278.699H1160.41V268.486Z" fill="white" />
		<path opacity="0.33" d="M1171.64 268.486H1168.06V278.699H1171.64V268.486Z" fill="white" />
		<path opacity="0.33" d="M1182.26 268.486H1178.67V278.699H1182.26V268.486Z" fill="white" />
		<path opacity="0.33" d="M1193.48 268.486H1189.9V278.699H1193.48V268.486Z" fill="white" />
		<path opacity="0.33" d="M1160.41 286.794H1156.83V297.007H1160.41V286.794Z" fill="white" />
		<path opacity="0.33" d="M1171.64 286.794H1168.06V297.007H1171.64V286.794Z" fill="white" />
		<path opacity="0.33" d="M1160.41 286.794H1156.83V297.007H1160.41V286.794Z" fill="white" />
		<path opacity="0.33" d="M1171.64 286.794H1168.06V297.007H1171.64V286.794Z" fill="white" />
		<path opacity="0.33" d="M1182.26 286.794H1178.67V297.007H1182.26V286.794Z" fill="white" />
		<path opacity="0.33" d="M1193.48 286.794H1189.9V297.007H1193.48V286.794Z" fill="white" />
		<path opacity="0.33" d="M1160.41 306.283H1156.83V316.496H1160.41V306.283Z" fill="white" />
		<path opacity="0.33" d="M1171.64 306.283H1168.06V316.496H1171.64V306.283Z" fill="white" />
		<path opacity="0.33" d="M1160.41 306.283H1156.83V316.496H1160.41V306.283Z" fill="white" />
		<path opacity="0.33" d="M1171.64 306.283H1168.06V316.496H1171.64V306.283Z" fill="white" />
		<path opacity="0.33" d="M1182.26 306.283H1178.67V316.496H1182.26V306.283Z" fill="white" />
		<path opacity="0.33" d="M1193.48 306.283H1189.9V316.496H1193.48V306.283Z" fill="white" />
		<path opacity="0.33" d="M1205.76 268.486H1202.18V278.699H1205.76V268.486Z" fill="white" />
		<path opacity="0.33" d="M1205.76 286.794H1202.18V297.007H1205.76V286.794Z" fill="white" />
		<path opacity="0.33" d="M1216.99 268.486H1213.41V278.699H1216.99V268.486Z" fill="white" />
		<path opacity="0.33" d="M880.908 238.187H877.058V254.105H880.908V238.187Z" fill="white" />
		<path opacity="0.33" d="M900.054 238.187H896.204V254.105H900.054V238.187Z" fill="white" />
		<path opacity="0.33" d="M919.201 238.187H915.351V254.105H919.201V238.187Z" fill="white" />
		<path opacity="0.33" d="M938.354 238.187H934.504V254.105H938.354V238.187Z" fill="white" />
		<path opacity="0.33" d="M880.908 270.949H877.058V286.867H880.908V270.949Z" fill="white" />
		<path opacity="0.33" d="M900.054 270.949H896.204V286.867H900.054V270.949Z" fill="white" />
		<path opacity="0.33" d="M919.201 270.949H915.351V286.867H919.201V270.949Z" fill="white" />
		<path opacity="0.33" d="M938.354 270.949H934.504V286.867H938.354V270.949Z" fill="white" />
		<path opacity="0.33" d="M880.908 304.528H877.058V320.446H880.908V304.528Z" fill="white" />
		<path opacity="0.33" d="M900.054 304.528H896.204V320.446H900.054V304.528Z" fill="white" />
		<path opacity="0.33" d="M919.201 304.528H915.351V320.446H919.201V304.528Z" fill="white" />
		<path opacity="0.33" d="M938.354 304.528H934.504V320.446H938.354V304.528Z" fill="white" />
		<path opacity="0.33" d="M880.908 338.107H877.058V354.025H880.908V338.107Z" fill="white" />
		<path opacity="0.33" d="M900.054 338.107H896.204V354.025H900.054V338.107Z" fill="white" />
		<path opacity="0.33" d="M919.201 338.107H915.351V354.025H919.201V338.107Z" fill="white" />
		<path opacity="0.33" d="M938.354 338.107H934.504V354.025H938.354V338.107Z" fill="white" />
		<path opacity="0.33" d="M880.908 368.606H877.058V384.525H880.908V368.606Z" fill="white" />
		<path opacity="0.33" d="M900.054 368.606H896.204V384.525H900.054V368.606Z" fill="white" />
		<path opacity="0.33" d="M919.201 368.606H915.351V384.525H919.201V368.606Z" fill="white" />
		<path opacity="0.33" d="M880.908 402.627H877.058V418.545H880.908V402.627Z" fill="white" />
		<path opacity="0.33" d="M900.054 402.627H896.204V418.545H900.054V402.627Z" fill="white" />
		<path opacity="0.33" d="M919.201 402.627H915.351V418.545H919.201V402.627Z" fill="white" />
		<path opacity="0.33" d="M938.354 368.606H934.504V384.525H938.354V368.606Z" fill="white" />
		<path opacity="0.33" d="M1316.28 322.346H1312.35V331.482H1316.28V322.346Z" fill="white" />
		<path opacity="0.33" d="M1316.28 337.097H1312.35V346.233H1316.28V337.097Z" fill="white" />
		<path opacity="0.33" d="M1326.37 322.346H1322.44V331.482H1326.37V322.346Z" fill="white" />
	</g>
	<defs>
		<clipPath id="clip0_4235_61464">
			<rect width="1440" height="507" fill="white" />
		</clipPath>
	</defs>
</svg>
