<svg width="106" height="105" viewBox="0 0 106 105" fill="none" xmlns="http://www.w3.org/2000/svg">
<path d="M53.433 92.4754C77.1442 92.4754 96.366 87.161 96.366 80.6054C96.366 74.0497 77.1442 68.7354 53.433 68.7354C29.7218 68.7354 10.5 74.0497 10.5 80.6054C10.5 87.161 29.7218 92.4754 53.433 92.4754Z" fill="#F8F9FB"/>
<path d="M67.6764 21.2568H39.6924C34.1695 21.2568 29.6924 25.734 29.6924 31.2568V70.8578C29.6924 76.3807 34.1695 80.8578 39.6924 80.8578H67.6764C73.1992 80.8578 77.6764 76.3807 77.6764 70.8578V31.2568C77.6764 25.734 73.1992 21.2568 67.6764 21.2568Z" fill="#FDFDFD"/>
<path d="M72.6255 81.4899H34.7435C33.2371 81.488 31.793 80.8888 30.7278 79.8236C29.6626 78.7584 29.0634 77.3143 29.0615 75.8079V26.3079C29.0644 24.8022 29.6641 23.359 30.7292 22.2947C31.7943 21.2304 33.2378 20.6317 34.7435 20.6299H72.6255C74.1319 20.6307 75.5765 21.2289 76.6424 22.2933C77.7084 23.3578 78.3086 24.8015 78.3115 26.3079V75.8079C78.3097 77.315 77.7099 78.7597 76.6438 79.825C75.5778 80.8903 74.1326 81.4891 72.6255 81.4899ZM34.7435 21.8899C33.5716 21.8909 32.448 22.357 31.6193 23.1856C30.7906 24.0143 30.3246 25.138 30.3235 26.3099V75.8099C30.3246 76.9818 30.7906 78.1054 31.6193 78.9341C32.448 79.7628 33.5716 80.2288 34.7435 80.2299H72.6255C73.7975 80.2288 74.9211 79.7628 75.7498 78.9341C76.5784 78.1054 77.0445 76.9818 77.0455 75.8099V26.3099C77.0445 25.138 76.5784 24.0143 75.7498 23.1856C74.9211 22.357 73.7975 21.8909 72.6255 21.8899H34.7435Z" fill="#72818D"/>
<path d="M71.132 65.2002H37.25C36.1454 65.2002 35.25 66.0956 35.25 67.2002V67.2412C35.25 68.3458 36.1454 69.2412 37.25 69.2412H71.132C72.2366 69.2412 73.132 68.3458 73.132 67.2412V67.2002C73.132 66.0956 72.2366 65.2002 71.132 65.2002Z" fill="#ECEFF4"/>
<path d="M71.132 54.5928H37.25C36.1454 54.5928 35.25 55.4882 35.25 56.5928V56.6338C35.25 57.7383 36.1454 58.6338 37.25 58.6338H71.132C72.2366 58.6338 73.132 57.7383 73.132 56.6338V56.5928C73.132 55.4882 72.2366 54.5928 71.132 54.5928Z" fill="#ECEFF4"/>
<path d="M71.132 42.9766H37.25C36.1454 42.9766 35.25 43.872 35.25 44.9766V45.0176C35.25 46.1221 36.1454 47.0176 37.25 47.0176H71.132C72.2366 47.0176 73.132 46.1221 73.132 45.0176V44.9766C73.132 43.872 72.2366 42.9766 71.132 42.9766Z" fill="#ECEFF4"/>
<path d="M71.132 32.3691H37.25C36.1454 32.3691 35.25 33.2646 35.25 34.3691V34.4101C35.25 35.5147 36.1454 36.4101 37.25 36.4101H71.132C72.2366 36.4101 73.132 35.5147 73.132 34.4101V34.3691C73.132 33.2646 72.2366 32.3691 71.132 32.3691Z" fill="#ECEFF4"/>
<path d="M65.5548 59.1408C75.0392 59.1408 82.7278 51.565 82.7278 42.2198C82.7278 32.8746 75.0392 25.2988 65.5548 25.2988C56.0704 25.2988 48.3818 32.8746 48.3818 42.2198C48.3818 51.565 56.0704 59.1408 65.5548 59.1408Z" fill="white"/>
<path d="M65.5549 55.099C72.8075 55.099 78.6869 49.2196 78.6869 41.967C78.6869 34.7144 72.8075 28.835 65.5549 28.835C58.3022 28.835 52.4229 34.7144 52.4229 41.967C52.4229 49.2196 58.3022 55.099 65.5549 55.099Z" fill="white"/>
<path d="M65.4504 55.5023C62.8531 55.5023 60.3142 54.7321 58.1546 53.2891C55.9951 51.8462 54.3119 49.7952 53.318 47.3957C52.324 44.9961 52.064 42.3557 52.5707 39.8084C53.0774 37.261 54.3281 34.9211 56.1646 33.0846C58.0012 31.248 60.3411 29.9973 62.8884 29.4906C65.4358 28.9839 68.0762 29.244 70.4758 30.2379C72.8753 31.2318 74.9263 32.915 76.3692 35.0745C77.8122 37.2341 78.5824 39.773 78.5824 42.3703C78.5784 45.8519 77.1936 49.1898 74.7317 51.6516C72.2698 54.1135 68.932 55.4983 65.4504 55.5023ZM65.4504 30.2473C63.0529 30.2473 60.7092 30.9582 58.7157 32.2902C56.7223 33.6222 55.1686 35.5154 54.2511 37.7304C53.3336 39.9454 53.0936 42.3827 53.5613 44.7342C54.029 47.0856 55.1835 49.2455 56.8788 50.9408C58.5741 52.6361 60.734 53.7906 63.0855 54.2584C65.4369 54.7261 67.8743 54.486 70.0893 53.5686C72.3043 52.6511 74.1975 51.0974 75.5294 49.1039C76.8614 47.1105 77.5724 44.7668 77.5724 42.3693C77.5687 39.1555 76.2903 36.0743 74.0178 33.8018C71.7453 31.5293 68.6642 30.251 65.4504 30.2473Z" fill="#72818D"/>
<mask id="mask0_2454_143400" style="mask-type:alpha" maskUnits="userSpaceOnUse" x="54" y="31" width="23" height="23">
<circle cx="65.3184" cy="42.2373" r="11" fill="#C4C4C4"/>
</mask>
<g mask="url(#mask0_2454_143400)">
<path d="M66.9864 34.3896H53.3494C51.6754 34.3896 50.3184 35.7464 50.3184 37.4201C50.3184 39.0938 51.6754 40.4506 53.3494 40.4506H66.9864C68.6603 40.4506 70.0174 39.0938 70.0174 37.4201C70.0174 35.7464 68.6603 34.3896 66.9864 34.3896Z" fill="#F5F7F9"/>
<path d="M67.2394 47.0166H53.0964C51.5621 47.0166 50.3184 48.2604 50.3184 49.7946C50.3184 51.3288 51.5621 52.5726 53.0964 52.5726H67.2394C68.7736 52.5726 70.0174 51.3288 70.0174 49.7946C70.0174 48.2604 68.7736 47.0166 67.2394 47.0166Z" fill="#F5F7F9"/>
</g>
<path d="M77.984 53.4633L75.9277 55.5195L79.3544 58.9462L81.4106 56.8899L77.984 53.4633Z" fill="white"/>
<path d="M83.9757 57.3995C82.8401 56.2639 80.999 56.2637 79.8635 57.3992C78.7281 58.5346 78.7282 60.3757 79.8639 61.5113L83.6328 65.2802C84.7684 66.4159 86.6095 66.416 87.7449 65.2806C88.8804 64.1451 88.8802 62.304 87.7446 61.1684L83.9757 57.3995Z" fill="#BDC9D4"/>
<path d="M88.0143 61.4385L83.7053 57.1285C83.3659 56.7912 82.9375 56.5574 82.4703 56.4544C82.003 56.3513 81.5161 56.3833 81.0663 56.5465L78.2663 53.7465C81.2628 50.4545 82.8715 46.132 82.7564 41.6819C82.6413 37.2318 80.8113 32.9983 77.6486 29.8655C74.4859 26.7328 70.2352 24.9432 65.7842 24.8705C61.3332 24.7977 57.0262 26.4476 53.7629 29.4753C50.4995 32.503 48.5322 36.6745 48.2718 41.1185C48.0114 45.5625 49.478 49.9352 52.3654 53.3233C55.2528 56.7115 59.3376 58.8531 63.7666 59.3007C68.1956 59.7483 72.6264 58.4674 76.1333 55.7255L79.0063 58.5985C78.8432 59.0484 78.8114 59.5354 78.9146 60.0027C79.0179 60.4699 79.2518 60.8982 79.5893 61.2375L83.8983 65.5465C84.1328 65.7811 84.4112 65.9673 84.7176 66.0943C85.0241 66.2213 85.3526 66.2866 85.6843 66.2866C86.016 66.2866 86.3445 66.2213 86.6509 66.0943C86.9574 65.9673 87.2358 65.7811 87.4703 65.5465L88.0103 65.0065C88.2449 64.772 88.4311 64.4936 88.558 64.1872C88.685 63.8807 88.7504 63.5522 88.7504 63.2205C88.7504 62.8888 88.685 62.5603 88.558 62.2539C88.4311 61.9474 88.2449 61.669 88.0103 61.4345L88.0143 61.4385ZM49.6453 42.2185C49.6453 39.0718 50.5784 35.9958 52.3266 33.3794C54.0748 30.763 56.5596 28.7238 59.4668 27.5196C62.374 26.3154 65.5729 26.0003 68.6592 26.6142C71.7454 27.2281 74.5803 28.7434 76.8054 30.9684C79.0304 33.1935 80.5457 36.0284 81.1596 39.1146C81.7735 42.2009 81.4584 45.3998 80.2542 48.307C79.05 51.2142 77.0108 53.699 74.3944 55.4472C71.778 57.1954 68.702 58.1285 65.5553 58.1285C61.3372 58.1235 57.2934 56.4456 54.3108 53.463C51.3282 50.4804 49.6503 46.4366 49.6453 42.2185ZM77.9823 54.5345L80.3373 56.8895L79.3523 57.8745L76.9973 55.5195L77.9823 54.5345ZM87.1203 64.1175L86.5813 64.6575C86.3409 64.8875 86.021 65.0158 85.6883 65.0158C85.3556 65.0158 85.0357 64.8875 84.7953 64.6575L80.4823 60.3485C80.3648 60.2314 80.2716 60.0922 80.208 59.939C80.1443 59.7857 80.1116 59.6214 80.1116 59.4555C80.1116 59.2896 80.1443 59.1253 80.208 58.9721C80.2716 58.8188 80.3648 58.6797 80.4823 58.5625L81.0213 58.0225C81.2583 57.7859 81.5794 57.6531 81.9143 57.6531C82.2491 57.6531 82.5703 57.7859 82.8073 58.0225L87.1163 62.3325C87.2336 62.4496 87.3267 62.5888 87.3903 62.7419C87.4538 62.895 87.4865 63.0592 87.4865 63.225C87.4865 63.3908 87.4538 63.555 87.3903 63.7081C87.3267 63.8613 87.2336 64.0004 87.1163 64.1175H87.1203Z" fill="#72818D"/>
<path d="M63.8458 48.5465C63.8448 48.3239 63.889 48.1034 63.9758 47.8985C64.0584 47.7004 64.1798 47.5209 64.3328 47.3705C64.6537 47.058 65.0849 46.8848 65.5328 46.8885C65.7587 46.8868 65.9825 46.931 66.1908 47.0185C66.3891 47.1011 66.57 47.2205 66.7238 47.3705C66.8776 47.5215 67.0008 47.7008 67.0868 47.8985C67.1758 48.1036 67.2217 48.3249 67.2217 48.5485C67.2217 48.7721 67.1758 48.9933 67.0868 49.1985C67 49.3942 66.8768 49.5717 66.7238 49.7215C66.5706 49.8706 66.3895 49.9882 66.1908 50.0675C65.9817 50.1513 65.7581 50.1934 65.5328 50.1915C65.3042 50.1941 65.0773 50.1519 64.8648 50.0675C64.5611 49.9464 64.301 49.7362 64.119 49.4645C63.9369 49.1929 63.8414 48.8725 63.8448 48.5455L63.8458 48.5465ZM66.9008 35.0225V40.9455C66.9006 41.5681 66.8672 42.1903 66.8008 42.8095C66.7342 43.4235 66.6428 44.0618 66.5268 44.7245H64.6008C64.4835 44.0625 64.3918 43.4241 64.3258 42.8095C64.2594 42.1903 64.226 41.5681 64.2258 40.9455V35.0225H66.9008Z" fill="#F3A72E"/>
<path d="M81.7871 19.8543C81.6584 19.8547 81.5327 19.8157 81.4268 19.7426C81.3209 19.6695 81.2399 19.5657 81.1946 19.4453C81.1494 19.3248 81.142 19.1934 81.1735 19.0686C81.2051 18.9439 81.274 18.8318 81.3711 18.7473L84.6191 15.9143C84.6816 15.8598 84.7542 15.8181 84.8328 15.7917C84.9114 15.7653 84.9945 15.7546 85.0772 15.7603C85.1599 15.7659 85.2407 15.7878 85.315 15.8247C85.3893 15.8616 85.4556 15.9128 85.5101 15.9753C85.5646 16.0378 85.6062 16.1104 85.6326 16.189C85.6591 16.2676 85.6698 16.3507 85.6641 16.4334C85.6584 16.5162 85.6365 16.597 85.5996 16.6712C85.5627 16.7455 85.5116 16.8118 85.4491 16.8663L82.2011 19.6993C82.0865 19.7996 81.9393 19.8547 81.7871 19.8543Z" fill="#72818D"/>
<path d="M83.4096 22.1225C83.244 22.1259 83.0837 22.0641 82.9633 21.9503C82.8429 21.8366 82.7721 21.6801 82.766 21.5146C82.76 21.3491 82.8193 21.1879 82.9311 21.0657C83.0428 20.9435 83.1982 20.8702 83.3635 20.8615L87.7925 20.5345C87.8754 20.5274 87.9589 20.537 88.038 20.5626C88.1171 20.5882 88.1903 20.6294 88.2533 20.6837C88.3163 20.738 88.3677 20.8044 88.4047 20.8789C88.4417 20.9534 88.4634 21.0345 88.4685 21.1175C88.4807 21.2844 88.4261 21.4493 88.3168 21.576C88.2075 21.7028 88.0524 21.781 87.8856 21.7935L83.4566 22.1205L83.4096 22.1225Z" fill="#72818D"/>
<path d="M79.466 18.4385C79.2987 18.4382 79.1383 18.3717 79.0201 18.2534C78.9018 18.1351 78.8352 17.9748 78.835 17.8075V13.6315C78.835 13.464 78.9015 13.3034 79.0199 13.185C79.1383 13.0665 79.299 13 79.4664 13C79.6339 13 79.7946 13.0665 79.913 13.185C80.0314 13.3034 80.0979 13.464 80.0979 13.6315V17.8065C80.0979 17.8895 80.0816 17.9717 80.0499 18.0484C80.0181 18.125 79.9715 18.1947 79.9128 18.2534C79.8542 18.3121 79.7845 18.3586 79.7078 18.3904C79.6311 18.4222 79.549 18.4385 79.466 18.4385Z" fill="#72818D"/>
</svg>
