<svg width="180" height="149" viewBox="0 0 180 149" fill="none" xmlns="http://www.w3.org/2000/svg">
	<path d="M90.8429 136.737C129.041 136.737 159.957 106.106 159.957 68.3135C159.957 30.5207 129.041 0 90.8429 0C52.7573 0 21.7288 30.6309 21.7288 68.4237C21.7288 106.217 52.7573 136.737 90.8429 136.737Z" fill="#EAEEF9" />
	<path d="M123.882 136.482C113.352 136.813 100.695 136.482 91.7332 136.372C82.8839 136.703 70.114 136.813 59.5845 136.482C70.002 130.643 73.6986 119.735 74.1466 112.573H109.096C109.88 119.624 113.576 130.643 123.882 136.482Z" fill="#D5DDEA" />
	<g filter="url(#filter0_d_1269_22960)">
		<path d="M157.711 21.3411V111.361C157.711 113.675 155.919 115.327 153.902 115.327H30.2363C28.108 115.327 26.4277 113.564 26.4277 111.361V21.3411C26.4277 19.2476 28.22 17.3745 30.2363 17.3745H153.678C156.031 17.4847 157.711 19.2476 157.711 21.3411Z" fill="white" />
	</g>
	<path d="M157.416 20.8107V100.133H26.136V20.8107C26.136 18.6502 27.9742 16.7983 29.9656 16.7983H153.434C155.731 16.7983 157.416 18.6502 157.416 20.8107Z" fill="#989FB0" />
	<path d="M152.697 22.5059H30.7021V95.5663H152.85V22.5059H152.697Z" fill="white" />
	<rect x="35.9053" y="27.8066" width="37.8267" height="28.3865" fill="#EAEEF9" />
	<rect x="82.7385" y="27.8066" width="63.0445" height="11.532" fill="#EAEEF9" />
	<rect x="82.7385" y="62.4028" width="63.0445" height="11.532" fill="#EAEEF9" />
	<rect x="82.7385" y="43.7739" width="63.0445" height="5.32248" fill="#EAEEF9" />
	<rect x="82.7385" y="78.3701" width="63.0445" height="5.32249" fill="#EAEEF9" />
	<rect x="35.9053" y="62.4028" width="37.8267" height="28.3865" fill="#EAEEF9" />
	<path d="M91.8454 109.928C93.6377 109.928 95.0939 108.606 95.0939 106.733C95.0939 104.97 93.7497 103.538 91.8454 103.538C90.0531 103.538 88.5969 104.86 88.5969 106.733C88.5969 108.496 89.9411 109.928 91.8454 109.928Z" fill="#D6DDE8" />
	<path d="M1 136.703H177.986" stroke="#D6DDE8" stroke-width="2" stroke-miterlimit="10" stroke-linecap="round" stroke-linejoin="round" />
	<path d="M13.4396 60.16C16.016 60.16 18.0323 58.1767 18.0323 55.6425C18.0323 53.1083 16.016 51.125 13.4396 51.125C10.8632 51.125 8.84692 53.1083 8.84692 55.6425C8.84692 58.1767 10.9752 60.16 13.4396 60.16Z" fill="#EAEEF9" />
	<path d="M8.84691 45.5057C10.5272 45.5057 11.9834 44.0733 11.9834 42.4206C11.9834 40.7678 10.5272 39.3354 8.84691 39.3354C7.16666 39.3354 5.71045 40.7678 5.71045 42.4206C5.71045 44.1835 7.16666 45.5057 8.84691 45.5057Z" fill="#EAEEF9" />
	<path d="M173.175 71.5089C176.424 71.5089 179 68.9747 179 65.7793C179 62.584 176.424 60.0498 173.175 60.0498C169.927 60.0498 167.35 62.584 167.35 65.7793C167.35 68.9747 169.927 71.5089 173.175 71.5089Z" fill="#EAEEF9" />
	<path d="M120.565 59.2982C120.565 63.1327 119.916 66.6476 118.456 70.0028C115.212 78.3108 108.237 84.7016 99.6397 87.5774C96.7199 88.5361 93.6379 89.0154 90.3937 89.0154C73.6859 89.0154 60.2224 75.7545 60.2224 59.2982C60.2224 42.8419 73.6859 29.5811 90.3937 29.5811C107.101 29.5811 120.565 43.0017 120.565 59.2982Z" fill="url(#paint0_linear_1269_22960)" />
	<path d="M97.1544 55.547V49.6605C97.1544 46.4496 94.368 43.7739 91.0243 43.7739C89.3525 43.7739 87.8664 44.4874 86.5661 45.5577C85.4516 46.628 84.7085 48.0551 84.7085 49.8389V55.7254C83.0367 56.7957 81.7364 58.0443 80.6218 59.8281C79.693 61.4336 79.1357 63.3957 79.1357 65.3579C79.1357 71.6012 84.337 76.5959 90.8386 76.5959C97.3402 76.5959 102.541 71.6012 102.541 65.3579C102.727 61.0768 100.498 57.5092 97.1544 55.547ZM92.3247 66.4282V69.4607C92.3247 69.8174 91.9532 70.1742 91.5816 70.1742H90.2813C89.9098 70.1742 89.5383 69.8174 89.5383 69.4607V67.4985V66.4282C88.4237 65.8931 87.8664 64.6444 88.0522 63.3957C88.238 62.3255 89.1668 61.4336 90.2813 61.2552C92.1389 60.8984 93.8107 62.3255 93.8107 63.9309C93.8107 65.0012 93.2535 65.8931 92.3247 66.4282ZM94.1823 54.2984C93.0677 53.9416 92.1389 53.7632 90.8386 53.7632C89.724 53.7632 88.6095 53.9416 87.4949 54.2984V49.8389C87.4949 48.947 87.8664 48.0551 88.4237 47.5199C88.981 46.9848 89.9098 46.628 90.8386 46.628C92.6962 46.628 94.1823 48.0551 94.1823 49.8389V54.2984Z" fill="white" />
	<defs>
		<filter id="filter0_d_1269_22960" x="4.42773" y="6.37451" width="175.283" height="141.953" filterUnits="userSpaceOnUse" color-interpolation-filters="sRGB">
			<feFlood flood-opacity="0" result="BackgroundImageFix" />
			<feColorMatrix in="SourceAlpha" type="matrix" values="0 0 0 0 0 0 0 0 0 0 0 0 0 0 0 0 0 0 127 0" result="hardAlpha" />
			<feOffset dy="11" />
			<feGaussianBlur stdDeviation="11" />
			<feColorMatrix type="matrix" values="0 0 0 0 0.397708 0 0 0 0 0.47749 0 0 0 0 0.575 0 0 0 0.27 0" />
			<feBlend mode="normal" in2="BackgroundImageFix" result="effect1_dropShadow_1269_22960" />
			<feBlend mode="normal" in="SourceGraphic" in2="effect1_dropShadow_1269_22960" result="shape" />
		</filter>
		<linearGradient id="paint0_linear_1269_22960" x1="60.1948" y1="59.3047" x2="120.576" y2="59.3047" gradientUnits="userSpaceOnUse">
			<stop stop-color="#B0BACC" />
			<stop offset="1" stop-color="#969EAE" />
		</linearGradient>
	</defs>
</svg>
