<svg width="128" height="113" viewBox="0 0 128 113" fill="none" xmlns="http://www.w3.org/2000/svg">
	<path d="M65.1896 110.027C93.4896 110.027 116.49 86.9266 116.49 58.4266C116.49 29.9266 93.4896 6.72656 65.1896 6.72656C36.8896 6.72656 13.8896 29.8266 13.8896 58.3266C13.8896 86.8266 36.8896 110.027 65.1896 110.027Z" fill="#F2F2F2" />
	<path d="M102.99 15.4265L121.29 43.5265L121.59 43.8265L65.7898 112.527L10.2898 43.8265L10.7898 43.5265L28.7898 15.4265H102.99Z" fill="white" />
	<path d="M84.9898 43.5265L65.7898 112.527L47.7898 43.5265L65.7898 15.4265L84.9898 43.5265Z" fill="#F2F2F2" />
	<path d="M121.49 43.8265L65.7898 112.527L84.9898 43.5265L102.99 15.4265L121.49 43.8265Z" fill="#CCCCCC" />
	<path d="M10.7898 43.5265L28.7898 15.4265L47.7898 43.5265H10.7898Z" fill="#F2F2F2" />
	<path d="M42.8897 36.4264L47.7897 34.9264C48.1897 34.8264 48.1897 34.3264 47.7897 34.2264L42.8897 32.7264C42.7897 32.7264 42.6897 32.6264 42.5897 32.4264L41.1897 27.6264C41.0897 27.2264 40.5897 27.2264 40.4897 27.6264L38.9897 32.5264C38.9897 32.6264 38.8897 32.7264 38.6897 32.8264L33.7897 34.3264C33.3897 34.4264 33.3897 34.9264 33.7897 35.0264L38.6897 36.5264C38.7897 36.5264 38.8897 36.6264 38.9897 36.8264L40.4897 41.7264C40.5897 42.1264 41.0897 42.1264 41.1897 41.7264L42.6897 36.8264C42.6897 36.5264 42.7897 36.4264 42.8897 36.4264Z" fill="#999999" />
	<path d="M8.2896 55.0264L11.6896 52.2264C11.8896 52.0264 11.7896 51.6264 11.4896 51.6264L7.0896 52.0264C6.9896 52.0264 6.8896 52.0264 6.7896 51.9264L3.9896 48.5264C3.7896 48.3264 3.3896 48.4264 3.3896 48.7264L3.7896 53.1264C3.7896 53.2264 3.7896 53.3264 3.6896 53.4264L0.289599 56.2264C0.0895987 56.4264 0.189599 56.8264 0.489599 56.8264L4.8896 56.4264C4.9896 56.4264 5.0896 56.4264 5.1896 56.5264L7.9896 59.9264C8.1896 60.1264 8.5896 60.0264 8.5896 59.7264L8.1896 55.3264C8.0896 55.2264 8.1896 55.1264 8.2896 55.0264Z" fill="#999999" />
	<path d="M41.7895 4.82642L44.0896 3.02642C44.2896 2.92642 44.1896 2.62642 43.8896 2.62642L40.9895 2.92642C40.8895 2.92642 40.8895 2.92642 40.7895 2.82642L38.9895 0.526415C38.8895 0.326415 38.5896 0.426415 38.5896 0.726415L38.8896 3.62642C38.8896 3.72642 38.8895 3.72642 38.7895 3.82642L36.4895 5.62641C36.2895 5.72641 36.3896 6.02641 36.6896 6.02641L39.5896 5.72642C39.6896 5.72642 39.6895 5.72642 39.7895 5.82642L41.5896 8.12641C41.6896 8.32641 41.9895 8.22641 41.9895 7.92641L41.6896 5.02641C41.6896 4.92641 41.6895 4.82642 41.7895 4.82642Z" fill="#999999" />
	<path d="M116.49 93.6264L120.49 95.7264C120.79 95.9264 121.09 95.5264 120.89 95.2264L118.69 91.2264C118.59 91.1264 118.59 91.0264 118.69 90.9264L120.79 86.9264C120.99 86.6264 120.59 86.3264 120.29 86.5264L116.29 88.7264C116.19 88.8264 116.09 88.8264 115.99 88.7264L111.99 86.6264C111.69 86.4264 111.39 86.8264 111.59 87.1264L113.79 91.1264C113.89 91.2264 113.89 91.3264 113.79 91.4264L111.69 95.4264C111.49 95.7264 111.89 96.0264 112.19 95.8264L116.19 93.6264C116.29 93.6264 116.39 93.6264 116.49 93.6264Z" fill="#999999" />
	<path d="M32.6896 87.9265L35.7896 89.5265C35.9896 89.6265 36.2896 89.4265 36.0896 89.2265L34.3896 86.2265C34.3896 86.1265 34.3896 86.0265 34.3896 86.0265L35.9896 82.9265C36.0896 82.7265 35.8896 82.4265 35.6896 82.6265L32.6896 84.3265C32.5896 84.3265 32.4896 84.3265 32.4896 84.3265L29.3896 82.7265C29.1896 82.6265 28.8896 82.8265 29.0896 83.0265L30.7896 86.0265C30.7896 86.1265 30.7896 86.2265 30.7896 86.2265L29.1896 89.3265C29.0896 89.5265 29.2896 89.8265 29.4896 89.6265L32.4896 87.9265C32.5896 87.9265 32.6896 87.9265 32.6896 87.9265Z" fill="#999999" />
	<path d="M30.5898 110.427L33.5898 111.927C33.7898 112.027 34.0898 111.827 33.8898 111.627L32.1898 108.727C32.1898 108.627 32.1898 108.527 32.1898 108.527L33.6898 105.527C33.7898 105.327 33.5898 105.027 33.3898 105.227L30.4898 106.827C30.3898 106.827 30.2898 106.827 30.2898 106.827L27.2898 105.327C27.0898 105.227 26.7898 105.427 26.9898 105.627L28.6898 108.527C28.6898 108.627 28.6898 108.727 28.6898 108.727L27.1898 111.727C27.0898 111.927 27.2898 112.227 27.4898 112.027L30.3898 110.327C30.4898 110.427 30.5898 110.427 30.5898 110.427Z" fill="#999999" />
	<path d="M87.4896 5.2266L90.4896 6.7266C90.6896 6.8266 90.8896 6.6266 90.7896 6.4266L89.1896 3.5266C89.1896 3.4266 89.1896 3.3266 89.1896 3.3266L90.6896 0.426599C90.7896 0.226599 90.5896 0.0265986 90.3896 0.126599L87.4896 1.7266C87.3896 1.7266 87.2896 1.7266 87.2896 1.7266L84.1896 0.0265986C83.9896 -0.0734014 83.7896 0.126599 83.8896 0.326599L85.4896 3.2266C85.4896 3.3266 85.4896 3.4266 85.4896 3.4266L83.9896 6.4266C83.8896 6.6266 84.0896 6.8266 84.2896 6.7266L87.1896 5.2266C87.2896 5.1266 87.3896 5.1266 87.4896 5.2266Z" fill="#999999" />
	<path d="M121.49 43.8265L84.9897 43.5265L102.99 15.4265L121.49 43.8265Z" fill="#F2F2F2" />
	<path d="M84.9898 43.5265H47.7898L65.7898 15.4265L84.9898 43.5265Z" fill="#F2F2F2" />
	<path d="M68.6896 17.3265L74.2896 15.6265C74.6896 15.5265 74.6896 14.9265 74.2896 14.8265L68.6896 13.1265C68.5896 13.1265 68.3896 13.0265 68.3896 12.8265L66.6896 7.22651C66.5896 6.82651 65.9896 6.82651 65.8896 7.22651L64.1896 12.8265C64.1896 12.9265 64.0896 13.1265 63.8896 13.1265L58.1896 14.8265C57.7896 14.9265 57.7896 15.5265 58.1896 15.6265L63.7896 17.3265C63.8896 17.3265 64.0897 17.4265 64.0897 17.6265L65.7896 23.2265C65.8896 23.6265 66.4897 23.6265 66.5897 23.2265L68.2896 17.6265C68.3896 17.5265 68.4896 17.4265 68.6896 17.3265Z" fill="#999999" />
	<path d="M123.19 44.6266L127.59 43.3266C127.89 43.2266 127.89 42.7266 127.59 42.7266L123.19 41.4266C123.09 41.4266 122.99 41.3266 122.99 41.2266L121.69 36.8266C121.59 36.5266 121.09 36.5266 121.09 36.8266L119.79 41.2266C119.79 41.3266 119.69 41.4266 119.59 41.4266L115.19 42.7266C114.89 42.8266 114.89 43.3266 115.19 43.3266L119.59 44.6266C119.69 44.6266 119.79 44.7266 119.79 44.8266L121.09 49.2266C121.19 49.5266 121.69 49.5266 121.69 49.2266L122.99 44.8266C122.99 44.7266 123.09 44.6266 123.19 44.6266Z" fill="#999999" />
</svg>
