<svg width="61" height="24" viewBox="0 0 61 24" fill="none" xmlns="http://www.w3.org/2000/svg">
	<path d="M9.03823 0.577042H13.6287C13.9366 0.577042 14.2764 0.805385 14.3827 1.09891L22.3482 22.875C22.4534 23.169 22.2887 23.4027 21.9819 23.4027H17.4541C17.1456 23.4027 16.8127 23.1642 16.7167 22.8687L15.1459 18.1667H7.1042L5.53665 22.8687C5.43802 23.1642 5.10644 23.4027 4.79474 23.4027H0.511098C0.20138 23.4027 0.0392782 23.169 0.145415 22.875L8.27921 1.09891C8.386 0.805385 8.72495 0.577042 9.03823 0.577042ZM13.9152 14.1613L11.1432 5.53477L8.29988 14.1613H13.9152Z" fill="#344D9E" />
	<path d="M44.0162 0.577042H52.0145C53.4309 0.577042 54.627 0.737039 55.6092 1.06743C56.5915 1.40046 57.3888 1.83989 58.0057 2.38558C58.6191 2.93641 59.0643 3.5673 59.3396 4.28721C59.6109 5.00488 59.7496 5.75323 59.7496 6.52727C59.7496 7.25995 59.6189 7.90743 59.3572 8.46524C59.0946 9.02213 58.7866 9.50001 58.4327 9.90111C58.0776 10.3005 57.7045 10.6151 57.3038 10.8437C56.9034 11.0701 56.5635 11.2177 56.2945 11.2879C56.706 11.3786 57.1766 11.5454 57.7138 11.7796C58.2485 12.0244 58.7577 12.3671 59.2376 12.8117C59.7159 13.2563 60.1204 13.8137 60.452 14.4892C60.7804 15.1576 60.9478 15.9508 60.9478 16.8629C60.9478 18.0539 60.7346 19.0581 60.3133 19.8779C59.8919 20.7029 59.2986 21.3732 58.5336 21.8947C57.7676 22.4246 56.8338 22.8024 55.7288 23.0458C54.6212 23.2821 53.3831 23.4027 52.0141 23.4027H44.0158C43.7064 23.4027 43.4562 23.1505 43.4562 22.8399V1.13393C43.4562 0.823553 43.7065 0.577177 44.0158 0.577177L44.0162 0.577042ZM51.5352 9.71123C51.9219 9.71123 52.3036 9.66949 52.6798 9.57481C53.0576 9.4829 53.3889 9.34081 53.6739 9.15026C53.9597 8.95406 54.1954 8.69109 54.3773 8.3628C54.5567 8.03215 54.6504 7.6234 54.6504 7.14644C54.6504 6.64118 54.5567 6.22519 54.3773 5.89664C54.1954 5.56361 53.9528 5.30104 53.6561 5.108C53.3601 4.91152 53.0235 4.77733 52.6478 4.69648C52.27 4.62089 51.8988 4.58007 51.5353 4.58007H48.4907V9.7111H51.5353L51.5352 9.71123ZM51.8424 19.4339C52.2074 19.4339 52.618 19.4072 53.0747 19.3478C53.5323 19.2912 53.9528 19.1617 54.3429 18.9522C54.7293 18.7513 55.0527 18.4533 55.317 18.0609C55.581 17.6738 55.7097 17.1399 55.7097 16.4535C55.7097 15.8382 55.5865 15.3396 55.3357 14.9494C55.081 14.5602 54.7646 14.26 54.3772 14.0431C53.9879 13.8255 53.5663 13.6812 53.108 13.5965C52.652 13.5177 52.2306 13.4758 51.8424 13.4758H48.4905V19.4339H51.8424Z" fill="#344D9E" />
	<path d="M33.925 16.0751C31.6726 16.0751 29.8453 14.2499 29.8453 11.9967C29.8453 9.74717 31.6726 7.92151 33.925 7.92151C36.1727 7.92151 37.9959 9.74717 37.9959 11.9967C37.9959 14.2499 36.1727 16.0751 33.925 16.0751Z" fill="#00AFEF" />
	<path d="M38.4422 17.3285C37.21 18.5029 35.5684 19.2232 33.7637 19.2232C29.9258 19.2232 26.8115 15.9893 26.8115 11.9966C26.8115 8.01093 29.9258 4.77456 33.7637 4.77456C35.5068 4.77456 37.1032 5.44338 38.3218 6.54622C38.551 6.75428 38.8989 6.76376 39.1176 6.54437L41.5813 4.0823C41.7991 3.86002 41.8011 3.50092 41.5813 3.2876C39.4465 1.2498 36.5685 0 33.3939 0C26.8164 0 21.476 5.37239 21.476 11.9966C21.476 18.6254 26.8164 24 33.3939 24C36.6296 24 39.554 22.6966 41.7009 20.5885C41.9235 20.37 41.9152 20.0078 41.6955 19.7855L39.2316 17.3238C39.0151 17.104 38.6703 17.1136 38.4424 17.3285H38.4422Z" fill="#344D9E" />
</svg>
