<svg width="40" height="40" viewBox="0 0 40 40" fill="none" xmlns="http://www.w3.org/2000/svg">
<g clip-path="url(#clip0_872_14510)">
<rect width="40" height="40" rx="6" fill="#2196F3"/>
<mask id="mask0_872_14510" style="mask-type:alpha" maskUnits="userSpaceOnUse" x="0" y="0" width="40" height="40">
<rect width="40" height="40" rx="6" fill="white"/>
</mask>
<g mask="url(#mask0_872_14510)">
<path fill-rule="evenodd" clip-rule="evenodd" d="M8.53256 18.34C8.64222 17.9508 8.74571 17.4911 8.84647 17.0437C8.87508 16.9161 8.90328 16.7915 8.93107 16.6704C9.06852 17.224 9.22116 17.8307 9.37339 18.3379L10.0156 20.5245H7.92145L8.53256 18.34ZM4.5966 25.5366H6.23609C6.504 25.5366 6.73878 25.3579 6.81038 25.0999L7.48146 22.6813H10.4601L11.1907 25.1122C11.2666 25.3641 11.4985 25.5367 11.7614 25.5367H13.5051C13.6946 25.5367 13.8727 25.4468 13.985 25.2943C14.0973 25.1419 14.1305 24.9452 14.0745 24.7642L10.9091 14.5567C10.8318 14.3072 10.6011 14.1372 10.3399 14.1372H7.71596C7.45394 14.1372 7.22258 14.3085 7.14592 14.5591L4.02601 24.7667C3.97084 24.9474 4.00451 25.1436 4.11691 25.2954C4.22985 25.4469 4.40768 25.5366 4.5966 25.5366Z" fill="white"/>
<path fill-rule="evenodd" clip-rule="evenodd" d="M13.6948 16.5245H16.0863V24.9403C16.0863 25.2694 16.3531 25.5364 16.6822 25.5364H18.2905C18.6197 25.5364 18.8866 25.2696 18.8866 24.9403V16.5245H21.3275C21.6566 16.5245 21.9235 16.2577 21.9235 15.9284V14.7328C21.9235 14.4035 21.6568 14.1367 21.3275 14.1367H13.6947C13.3656 14.1367 13.0986 14.4035 13.0986 14.7328V15.9284C13.0988 16.2577 13.3657 16.5245 13.6948 16.5245Z" fill="white"/>
<path fill-rule="evenodd" clip-rule="evenodd" d="M23.1334 25.5365H24.5343C24.8527 25.5365 25.1148 25.2864 25.1298 24.9684L25.307 21.1875C25.3609 20.2781 25.401 19.2291 25.4396 18.2146C25.4473 18.0103 25.4551 17.8064 25.463 17.6039C25.6885 18.6878 25.9728 19.8604 26.2746 20.9452L27.3707 24.9176C27.442 25.1762 27.6768 25.3551 27.945 25.3551H29.2227C29.4836 25.3551 29.714 25.1855 29.7918 24.9365L31.0434 20.9221C31.4092 19.8105 31.7701 18.5876 32.0678 17.4557C32.0818 18.8229 32.1244 20.1201 32.1624 21.1469L32.3104 24.9636C32.3229 25.2835 32.5857 25.5365 32.9059 25.5365H34.4401C34.6037 25.5365 34.7603 25.4692 34.8729 25.3502C34.9855 25.2312 35.0441 25.0712 35.0351 24.9077L34.4749 14.7002C34.4577 14.3841 34.1963 14.1369 33.8798 14.1369H31.3635C31.1043 14.1369 30.8753 14.304 30.7959 14.5504L29.7115 17.9239C29.71 17.9288 29.7087 17.9337 29.707 17.9387C29.3596 19.1237 29.0228 20.4279 28.7714 21.4415C28.5676 20.4442 28.2953 19.3215 27.9282 17.9573C27.9272 17.9529 27.9258 17.9487 27.9247 17.9444L26.9335 14.5651C26.8591 14.3113 26.6261 14.1367 26.3615 14.1367H23.7845C23.4701 14.1367 23.2097 14.3811 23.1896 14.6949L22.5383 24.9024C22.5278 25.0668 22.586 25.2281 22.6986 25.3481C22.8112 25.4683 22.9686 25.5365 23.1334 25.5365Z" fill="white"/>
</g>
</g>
<defs>
<clipPath id="clip0_872_14510">
<rect width="40" height="40" fill="white"/>
</clipPath>
</defs>
</svg>
