<svg width="40" height="40" viewBox="0 0 40 40" fill="none" xmlns="http://www.w3.org/2000/svg">
<g clip-path="url(#clip0_872_9813)">
<path d="M20 40C31.0457 40 40 31.0457 40 20C40 8.9543 31.0457 0 20 0C8.9543 0 0 8.9543 0 20C0 31.0457 8.9543 40 20 40Z" fill="#2F80ED"/>
<rect width="40" height="40" rx="6" fill="#07A35D"/>
<path fill-rule="evenodd" clip-rule="evenodd" d="M30.4998 16.4997H24.6664C23.9998 16.4997 23.4998 15.9997 23.4998 15.333V9.49967C23.4998 8.83301 23.9998 8.33301 24.6664 8.33301H30.4998C31.1664 8.33301 31.6664 8.83301 31.6664 9.49967V15.333C31.6664 15.9997 31.1664 16.4997 30.4998 16.4997ZM25.8331 14.1663H29.3331V10.6663H25.8331V14.1663ZM30.4998 31.6667H24.6664C23.9998 31.6667 23.4998 31.1667 23.4998 30.5V24.6667C23.4998 24 23.9998 23.5 24.6664 23.5H30.4998C31.1664 23.5 31.6664 24 31.6664 24.6667V30.5C31.6664 31.1667 31.1664 31.6667 30.4998 31.6667ZM25.8331 29.3333H29.3331V25.8333H25.8331V29.3333ZM9.49967 31.6667H15.333C15.9997 31.6667 16.4997 31.1667 16.4997 30.5V24.6667C16.4997 24 15.9997 23.5 15.333 23.5H9.49967C8.83301 23.5 8.33301 24 8.33301 24.6667V30.5C8.33301 31.1667 8.83301 31.6667 9.49967 31.6667ZM14.1663 29.3333H10.6663V25.8333H14.1663V29.3333ZM15.333 16.4997H9.49967C8.83301 16.4997 8.33301 15.9997 8.33301 15.333V9.49967C8.33301 8.83301 8.83301 8.33301 9.49967 8.33301H15.333C15.9997 8.33301 16.4997 8.83301 16.4997 9.49967V15.333C16.4997 15.9997 15.9997 16.4997 15.333 16.4997ZM10.6663 14.1663H14.1663V10.6663H10.6663V14.1663ZM10.6664 21.1663H18.833V23.9997C18.833 24.6663 19.333 25.1663 19.9997 25.1663C20.6663 25.1663 21.1663 24.833 21.1663 24.1663V21.1663H23.4998C24.1664 21.1663 24.6664 20.6663 24.6664 19.9997C24.6664 19.333 24.1664 18.833 23.4998 18.833H21.1663V15.9997C21.1663 15.333 20.6663 14.833 19.9997 14.833C19.333 14.833 18.833 15.333 18.833 15.9997V18.833H10.6664C9.99976 18.833 9.49976 19.333 9.49976 19.9997C9.49976 20.6663 9.99976 21.1663 10.6664 21.1663ZM29.3331 21.1663H28.1664C27.4998 21.1663 26.9998 20.6663 26.9998 19.9997C26.9998 19.333 27.4998 18.833 28.1664 18.833H29.3331C29.9998 18.833 30.4998 19.333 30.4998 19.9997C30.4998 20.6663 29.9998 21.1663 29.3331 21.1663ZM18.833 28.8333C18.833 29.5 19.333 30 19.9997 30C20.6663 30 21.1663 29.5 21.1663 28.8333V27.6667C21.1663 27 20.6663 26.5 19.9997 26.5C19.333 26.5 18.833 27 18.833 27.6667V28.8333ZM18.833 11.8333C18.833 12.5 19.333 13 19.9997 13C20.6663 13 21.1663 12.5 21.1663 11.8333V10.6667C21.1663 10 20.6663 9.5 19.9997 9.5C19.333 9.5 18.833 10 18.833 10.6667V11.8333Z" fill="white"/>
</g>
<defs>
<clipPath id="clip0_872_9813">
<rect width="40" height="40" fill="white"/>
</clipPath>
</defs>
</svg>
