<svg width="40" height="40" viewBox="0 0 40 40" fill="none" xmlns="http://www.w3.org/2000/svg">
<g clip-path="url(#clip0_872_688)">
<rect width="40" height="40" rx="6" fill="white"/>
<mask id="mask0_872_688" style="mask-type:alpha" maskUnits="userSpaceOnUse" x="0" y="0" width="40" height="40">
<rect width="40" height="40" rx="6" fill="white"/>
</mask>
<g mask="url(#mask0_872_688)">
<path d="M-6 6C-6 2.68629 -3.31371 0 0 0H39.1111C42.4248 0 45.1111 2.68629 45.1111 6V11.1111H-6V6Z" fill="#293688"/>
<rect x="-6" y="11.1113" width="51.1111" height="17.7778" fill="#F3F2F2"/>
<path d="M-6 28.8887H45.1111V33.9998C45.1111 37.3135 42.4248 39.9998 39.1111 39.9998H2.38419e-06C-3.31371 39.9998 -6 37.3135 -6 33.9998V28.8887Z" fill="#F7981D"/>
<path fill-rule="evenodd" clip-rule="evenodd" d="M14.3633 23.8351L15.8935 14.7993H18.3709L16.8407 23.8351H14.3633Z" fill="#293688"/>
<path fill-rule="evenodd" clip-rule="evenodd" d="M25.6601 15.033C25.1692 14.8499 24.3999 14.6538 23.4394 14.6538C20.9909 14.6538 19.2662 15.8796 19.2514 17.6358C19.2378 18.9339 20.4825 19.6579 21.4228 20.0905C22.3872 20.5325 22.7115 20.8162 22.7068 21.2111C22.7008 21.8168 21.9363 22.0936 21.224 22.0936C20.2325 22.0934 19.7055 21.9566 18.8917 21.6195L18.5725 21.4755L18.2246 23.4983C18.8034 23.7506 19.8738 23.9694 20.9849 23.9805C23.5889 23.9799 25.2801 22.7693 25.2992 20.8933C25.3086 19.8655 24.6484 19.0833 23.2189 18.4383C22.3528 18.0208 21.8222 17.742 21.8281 17.3183C21.8281 16.9428 22.2773 16.5412 23.247 16.5412C24.0573 16.5286 24.6443 16.7042 25.1018 16.8873L25.3235 16.9915L25.6601 15.033Z" fill="#293688"/>
<path fill-rule="evenodd" clip-rule="evenodd" d="M28.7577 20.6428C28.9623 20.1224 29.7443 18.1173 29.7443 18.1173C29.7301 18.141 29.948 17.5944 30.0731 17.2553L30.2407 18.0339C30.2407 18.0339 30.7146 20.1909 30.8141 20.643H28.7577V20.6428ZM29.8836 14.7993C29.2901 14.7993 28.8612 14.9806 28.6004 15.5689L24.9287 23.8354H27.5517L28.0617 22.4508H31.1956L31.4868 23.8354H33.8187L31.7786 14.7996H29.8837L29.8836 14.7993Z" fill="#293688"/>
<path fill-rule="evenodd" clip-rule="evenodd" d="M9.84538 20.9932L9.62715 19.7544C9.175 18.3105 7.77171 16.7481 6.19922 15.9653L8.38808 23.8351H11.0117L14.9464 14.7993H12.3234L9.84538 20.9932Z" fill="#293688"/>
<path fill-rule="evenodd" clip-rule="evenodd" d="M3.50586 14.7993V14.9452C6.61455 15.6929 8.77278 17.5831 9.62721 19.7546L8.7289 15.5705C8.57894 14.9986 8.12451 14.8192 7.58679 14.7994L3.50586 14.7993Z" fill="#F7981D"/>
</g>
</g>
<defs>
<clipPath id="clip0_872_688">
<rect width="40" height="40" fill="white"/>
</clipPath>
</defs>
</svg>
