<svg width="26" height="24" viewBox="0 0 26 24" fill="none" xmlns="http://www.w3.org/2000/svg">
<path d="M7.45749 13.7106C7.13183 15.7464 7.15046 18.2717 6.47657 19.8162C6.36965 20.097 5.46229 20.9238 5.24158 20.8029C5.13074 20.7434 5.14349 20.5348 5.14349 20.4675C5.16213 19.8191 4.93161 17.9861 4.5 15.1673L7.45749 13.7106Z" fill="#E5242C"/>
<path d="M7.17202 13.1753C5.28472 12.3231 3.17671 10.9132 1.51011 10.6168C1.21583 10.5515 0.0210657 10.846 0.00046623 11.0966C-0.010324 11.2214 0.169185 11.3286 0.22706 11.3637C0.781284 11.7059 2.18891 12.9091 4.31851 14.8221L7.17202 13.1753Z" fill="#E5242C"/>
<path d="M1.50892 10.6168C3.17649 10.9093 5.28352 12.3231 7.17083 13.1753L5.69944 14.0255L1.04102 10.6471C1.19435 10.6122 1.35233 10.602 1.50892 10.6168Z" fill="#2C2C2C"/>
<path d="M7.45694 13.7106C7.13127 15.7464 7.14991 18.2717 6.47601 19.8162C6.40538 19.95 6.31327 20.0715 6.20332 20.176L5.94141 14.4565L7.45694 13.7106Z" fill="#2C2C2C"/>
<path d="M20.2239 11.1445L20.7008 12.0266C20.7538 12.1248 20.7168 12.2471 20.618 12.2999L18.8933 13.2211C18.7945 13.2738 18.6714 13.237 18.6183 13.1388L18.1415 12.2567C18.0884 12.1585 18.1255 12.0362 18.2242 11.9834L19.949 11.0622C20.0477 11.0095 20.1709 11.0463 20.2239 11.1445Z" fill="#2C2C2C"/>
<path d="M19.6614 15.9641L20.1383 16.8461C20.1913 16.9443 20.1543 17.0667 20.0555 17.1195L18.3308 18.0406C18.232 18.0934 18.1089 18.0565 18.0558 17.9584L17.579 17.0763C17.5259 16.9781 17.563 16.8557 17.6617 16.803L19.3865 15.8818C19.4852 15.829 19.6084 15.8659 19.6614 15.9641Z" fill="#2C2C2C"/>
<path d="M15.4642 2.49098L15.941 3.37306C15.9941 3.47125 15.957 3.59362 15.8582 3.64638L14.1335 4.56753C14.0347 4.62029 13.9116 4.58346 13.8585 4.48527L13.3817 3.60319C13.3286 3.505 13.3657 3.38263 13.4645 3.32987L15.1892 2.40872C15.288 2.35596 15.4111 2.39279 15.4642 2.49098Z" fill="#2C2C2C"/>
<path d="M10.9427 0.513953L11.4195 1.39603C11.4726 1.49422 11.4355 1.61659 11.3368 1.66935L9.61204 2.5905C9.51325 2.64326 9.39014 2.60643 9.33706 2.50824L8.86023 1.62616C8.80715 1.52797 8.84421 1.4056 8.94299 1.35284L10.6677 0.431696C10.7665 0.378936 10.8896 0.415763 10.9427 0.513953Z" fill="#2C2C2C"/>
<path d="M19.8466 7.63911C20.5402 7.2764 21.1405 6.95659 21.629 6.68749C22.4745 6.22728 22.8738 5.9962 23.3613 5.64421C23.7249 5.37205 24.0661 5.07144 24.3815 4.74524C24.9524 4.16023 25.021 3.92427 25.022 3.73317C25.0251 3.59448 24.995 3.45704 24.9343 3.33213C24.8736 3.20722 24.784 3.09839 24.6728 3.01458C24.5609 2.94066 24.4295 2.9013 24.2951 2.90147C23.3593 2.91415 22.1371 3.50209 22.1371 3.50209C21.2239 3.8921 20.1753 4.40788 18.6852 5.34586C17.8024 5.06408 16.64 4.67894 15.2824 4.1885C13.402 3.51086 12.2788 3.10525 10.8751 2.47929C7.90386 1.15423 7.34375 0.477566 5.43879 0.145082C4.5457 -0.00684547 3.6362 -0.0396347 2.73437 0.0475807L12.7751 8.76429C12.4809 8.93004 12.0679 9.1699 11.5706 9.46533C10.6073 10.0367 9.33797 10.7923 7.81656 11.8424C6.97038 12.4052 6.15505 13.0126 5.37405 13.6618C4.74037 14.1961 4.23323 14.6768 3.87127 15.0366C3.83301 15.0873 3.74375 15.217 3.78887 15.3096C3.84086 15.4169 4.04391 15.4139 4.1322 15.413C5.0425 15.3993 7.25645 14.3736 7.25645 14.3736C7.76359 14.1386 7.10342 14.4711 8.52283 13.8403C10.468 12.9764 12.6682 11.9273 14.0405 11.2652C14.8096 15.5105 15.5783 19.7554 16.3467 24C16.5774 23.9116 16.7921 23.7865 16.9823 23.6295C17.2496 23.4068 17.4626 23.1268 17.6052 22.8105C17.8014 22.3737 17.8014 22.0958 17.8848 21.2504C17.9289 20.8 17.8946 20.7795 17.9907 20.1097C18.1938 18.69 18.3076 17.208 18.3282 16.9535C18.4184 15.8615 18.7598 13.4327 19.8466 7.63911Z" fill="#E5242C"/>
<path d="M24.2309 4.19338C24.2549 4.14806 24.2717 4.09941 24.281 4.04907C24.2867 3.99731 24.2841 3.94497 24.2731 3.89404C24.2665 3.85096 24.255 3.80876 24.2388 3.76827C24.1926 3.66995 24.1189 3.5869 24.0266 3.52899C23.9342 3.47109 23.8271 3.44077 23.7179 3.44163C23.5562 3.4469 23.3965 3.47988 23.2461 3.53914C23.415 3.57571 23.5709 3.65688 23.6973 3.77412C23.7335 3.80301 23.7663 3.8357 23.7954 3.87162C23.8204 3.90611 23.8411 3.94342 23.8572 3.98277C23.9001 4.08776 23.922 4.20001 23.922 4.31331C23.9135 4.42626 23.8917 4.53784 23.8572 4.64579C24.0235 4.5344 24.1534 4.37715 24.2309 4.19338Z" fill="#2C2C2C"/>
<path d="M18.4515 9.96844L19.5226 9.39415C18.6908 13.9348 18.4103 15.9765 18.3298 16.9564C18.3092 17.2109 18.1954 18.6929 17.9924 20.1126C17.8943 20.7824 17.9306 20.8029 17.8864 21.2534C17.8423 21.7038 17.8217 21.9963 17.7805 22.2362L16.8516 22.1484L18.4515 9.96844Z" fill="#2C2C2C"/>
<path d="M4.44922 0.601392L4.71897 0.0505047C4.94949 0.0739055 5.18884 0.104131 5.43898 0.148007C7.34688 0.48049 7.90404 1.15715 10.8753 2.48221C12.279 3.10818 13.4021 3.51379 15.2826 4.19143C15.8574 4.39878 16.394 4.58696 16.8923 4.75597L16.0742 5.36048L4.44922 0.601392Z" fill="#2C2C2C"/>
</svg>
