<svg width="32" height="20" viewBox="0 0 56 16" fill="none" xmlns="http://www.w3.org/2000/svg">
	<g clip-path="url(#clip0_4525_40500)">
		<path d="M15.548 0.452039C14.9364 -0.159461 13.9419 -0.149242 13.3431 0.474727L10.0654 3.89026L2.06659 1.24316L0.3875 2.92229L7.05475 7.02745L3.68112 10.5429L1.51766 10.1877L0 11.7054L3.18062 12.8194L4.29466 16L5.81231 14.4824L5.45713 12.3189L8.97256 8.94529L13.0777 15.6125L14.7568 13.9334L12.1098 5.9346L15.5253 2.65695C16.1493 2.05813 16.1595 1.06357 15.548 0.452039Z" fill="#023E8A" />
	</g>
	<g clip-path="url(#clip1_4525_40500)">
		<path d="M35.548 0.452039C34.9364 -0.159461 33.9419 -0.149242 33.3431 0.474727L30.0654 3.89026L22.0666 1.24316L20.3875 2.92229L27.0547 7.02745L23.6811 10.5429L21.5177 10.1877L20 11.7054L23.1806 12.8194L24.2947 16L25.8123 14.4824L25.4571 12.3189L28.9726 8.94529L33.0777 15.6125L34.7568 13.9334L32.1098 5.9346L35.5253 2.65695C36.1493 2.05813 36.1595 1.06357 35.548 0.452039Z" fill="#2E5EAA" />
	</g>
	<g clip-path="url(#clip2_4525_40500)">
		<path d="M55.548 0.452039C54.9364 -0.159461 53.9419 -0.149242 53.3431 0.474727L50.0654 3.89026L42.0666 1.24316L40.3875 2.92229L47.0547 7.02745L43.6811 10.5429L41.5177 10.1877L40 11.7054L43.1806 12.8194L44.2947 16L45.8123 14.4824L45.4571 12.3189L48.9726 8.94529L53.0777 15.6125L54.7568 13.9334L52.1098 5.9346L55.5253 2.65695C56.1493 2.05813 56.1595 1.06357 55.548 0.452039Z" fill="#80A1D4" />
	</g>
	<defs>
		<clipPath id="clip0_4525_40500">
			<rect width="16" height="16" fill="white" />
		</clipPath>
		<clipPath id="clip1_4525_40500">
			<rect width="16" height="16" fill="white" transform="translate(20)" />
		</clipPath>
		<clipPath id="clip2_4525_40500">
			<rect width="16" height="16" fill="white" transform="translate(40)" />
		</clipPath>
	</defs>
</svg>
