<svg width="40" height="20" viewBox="0 0 40 20" fill="none" xmlns="http://www.w3.org/2000/svg">
<g clip-path="url(#clip0_24_3407)">
<g clip-path="url(#clip1_24_3407)">
<path d="M12.529 5.47099C12.1621 5.10409 11.5653 5.11022 11.206 5.4846L9.23942 7.53392L4.44015 5.94567L3.4327 6.95314L7.43305 9.41624L5.40887 11.5255L4.11079 11.3124L3.2002 12.223L5.10857 12.8914L5.77699 14.7998L6.68758 13.8892L6.47447 12.5911L8.58373 10.5669L11.0468 14.5673L12.0543 13.5598L10.4661 8.76053L12.5153 6.79394C12.8897 6.43465 12.8959 5.83791 12.529 5.47099Z" fill="#023E8A"/>
</g>
<g clip-path="url(#clip2_24_3407)">
<path d="M24.529 5.47099C24.1621 5.10409 23.5653 5.11022 23.206 5.4846L21.2394 7.53392L16.4402 5.94567L15.4327 6.95314L19.433 9.41624L17.4089 11.5255L16.1108 11.3124L15.2002 12.223L17.1086 12.8914L17.777 14.7998L18.6876 13.8892L18.4745 12.5911L20.5837 10.5669L23.0468 14.5673L24.0543 13.5598L22.4661 8.76053L24.5153 6.79394C24.8897 6.43465 24.8959 5.83791 24.529 5.47099Z" fill="#2E5EAA"/>
</g>
<g clip-path="url(#clip3_24_3407)">
<path d="M36.529 5.47099C36.1621 5.10409 35.5653 5.11022 35.206 5.4846L33.2394 7.53392L28.4402 5.94567L27.4327 6.95314L31.433 9.41624L29.4089 11.5255L28.1108 11.3124L27.2002 12.223L29.1086 12.8914L29.777 14.7998L30.6876 13.8892L30.4745 12.5911L32.5837 10.5669L35.0468 14.5673L36.0543 13.5598L34.4661 8.76053L36.5153 6.79394C36.8897 6.43465 36.8959 5.83791 36.529 5.47099Z" fill="#80A1D4"/>
</g>
</g>
<defs>
<clipPath id="clip0_24_3407">
<rect width="40" height="20" fill="white"/>
</clipPath>
<clipPath id="clip1_24_3407">
<rect width="9.6" height="9.6" fill="white" transform="translate(3.2002 5.20001)"/>
</clipPath>
<clipPath id="clip2_24_3407">
<rect width="9.6" height="9.6" fill="white" transform="translate(15.2002 5.20001)"/>
</clipPath>
<clipPath id="clip3_24_3407">
<rect width="9.6" height="9.6" fill="white" transform="translate(27.2002 5.20001)"/>
</clipPath>
</defs>
</svg>
