<svg width="80" height="80" viewBox="0 0 80 80" fill="none" xmlns="http://www.w3.org/2000/svg">
	<rect width="80" height="80" fill="white" />
	<path d="M72.8737 46.6708C72.8797 51.2242 71.9344 55.7286 70.0983 59.8954H9.90136C7.93485 55.4182 6.99194 50.5587 7.14132 45.671C7.2907 40.7833 8.52862 35.9904 10.7649 31.6417C13.0011 27.293 16.1794 23.4979 20.068 20.5331C23.9567 17.5682 28.4579 15.5082 33.2435 14.5032C38.0291 13.4982 42.9787 13.5734 47.7315 14.7235C52.4843 15.8736 56.9207 18.0696 60.7174 21.1513C64.5141 24.2331 67.5755 28.123 69.6785 32.5378C71.7814 36.9525 72.873 41.7808 72.8737 46.6708Z" fill="#E7FFF4" />
	<path d="M3.40918 59.8954H77.7661" stroke="#07A35D" stroke-width="1.5" stroke-miterlimit="10" stroke-linecap="round" />
	<path d="M53.8891 67.0215H51.6553L49.8091 66.0308C49.6728 65.958 49.5206 65.92 49.366 65.92C49.2115 65.92 49.0593 65.958 48.923 66.0308L47.4891 66.7877C47.3527 66.8604 47.2006 66.8985 47.046 66.8985C46.8915 66.8985 46.7393 66.8604 46.603 66.7877L45.1691 66.0308C45.0327 65.958 44.8806 65.92 44.726 65.92C44.5715 65.92 44.4193 65.958 44.283 66.0308L42.8491 66.7877C42.7127 66.8604 42.5606 66.8985 42.406 66.8985C42.2515 66.8985 42.0993 66.8604 41.963 66.7877L40.4922 66.0308C40.3569 65.9581 40.2058 65.92 40.0522 65.92C39.8986 65.92 39.7475 65.9581 39.6122 66.0308L38.1537 66.7877C38.0185 66.8604 37.8673 66.8985 37.7137 66.8985C37.5602 66.8985 37.409 66.8604 37.2737 66.7877L35.8337 66.0308C35.6974 65.958 35.5452 65.92 35.3906 65.92C35.2361 65.92 35.0839 65.958 34.9476 66.0308L33.5137 66.7877C33.3774 66.8604 33.2252 66.8985 33.0707 66.8985C32.9161 66.8985 32.7639 66.8604 32.6276 66.7877L31.1937 66.0308C31.0574 65.958 30.9052 65.92 30.7507 65.92C30.5961 65.92 30.4439 65.958 30.3076 66.0308L28.6583 66.9046C28.5084 66.983 28.3414 67.0232 28.1722 67.0215H26.1107C25.9365 67.0089 25.7743 66.9282 25.6591 66.7969C25.544 66.6657 25.4851 66.4943 25.4953 66.32V23.0708C25.4851 22.8964 25.544 22.7251 25.6591 22.5938C25.7743 22.4626 25.9365 22.3819 26.1107 22.3692H53.8891C54.0633 22.3819 54.2255 22.4626 54.3406 22.5938C54.4558 22.7251 54.5147 22.8964 54.5045 23.0708V66.32C54.5147 66.4943 54.4558 66.6657 54.3406 66.7969C54.2255 66.9282 54.0633 67.0089 53.8891 67.0215Z" fill="white" />
	<path d="M54.5048 23.0708V27.8708H25.4894V23.0708C25.4792 22.8964 25.5381 22.7251 25.6533 22.5938C25.7684 22.4626 25.9306 22.3819 26.1048 22.3692H53.8833C54.0585 22.3803 54.2223 22.4603 54.3387 22.5918C54.4552 22.7232 54.5149 22.8954 54.5048 23.0708Z" fill="#42BA84" />
	<path d="M53.8891 67.0215H51.6553L49.8091 66.0308C49.6728 65.958 49.5206 65.92 49.366 65.92C49.2115 65.92 49.0593 65.958 48.923 66.0308L47.4891 66.7877C47.3527 66.8604 47.2006 66.8985 47.046 66.8985C46.8915 66.8985 46.7393 66.8604 46.603 66.7877L45.1691 66.0308C45.0328 65.958 44.8806 65.92 44.726 65.92C44.5715 65.92 44.4193 65.958 44.283 66.0308L42.8491 66.7877C42.7127 66.8604 42.5606 66.8985 42.406 66.8985C42.2515 66.8985 42.0993 66.8604 41.963 66.7877L40.4922 66.0308C40.3569 65.9581 40.2058 65.92 40.0522 65.92C39.8986 65.92 39.7475 65.9581 39.6122 66.0308L38.1537 66.7877C38.0185 66.8604 37.8673 66.8985 37.7137 66.8985C37.5602 66.8985 37.409 66.8604 37.2737 66.7877L35.8337 66.0308C35.6974 65.958 35.5452 65.92 35.3907 65.92C35.2361 65.92 35.0839 65.958 34.9476 66.0308L33.5137 66.7877C33.3774 66.8604 33.2252 66.8985 33.0707 66.8985C32.9161 66.8985 32.7639 66.8604 32.6276 66.7877L31.1937 66.0308C31.0574 65.958 30.9052 65.92 30.7507 65.92C30.5961 65.92 30.4439 65.958 30.3076 66.0308L28.6583 66.9046C28.5084 66.983 28.3414 67.0232 28.1722 67.0215H26.1107C25.9365 67.0089 25.7743 66.9282 25.6591 66.7969C25.544 66.6657 25.4851 66.4943 25.4953 66.32V23.0708C25.4851 22.8964 25.544 22.7251 25.6591 22.5938C25.7743 22.4626 25.9365 22.3819 26.1107 22.3692H53.8891C54.0633 22.3819 54.2255 22.4626 54.3406 22.5938C54.4558 22.7251 54.5147 22.8964 54.5045 23.0708V66.32C54.5147 66.4943 54.4558 66.6657 54.3406 66.7969C54.2255 66.9282 54.0633 67.0089 53.8891 67.0215V67.0215Z" stroke="#07A35D" stroke-width="1.5" stroke-linecap="round" stroke-linejoin="round" />
	<path d="M34.8307 35.0769C34.8425 35.5327 34.6745 35.9748 34.363 36.3077C34.0474 36.6638 33.6065 36.8842 33.1322 36.9231V37.7723C33.1355 37.7908 33.1342 37.8098 33.1286 37.8277C33.1229 37.8456 33.113 37.8619 33.0998 37.8752C33.0865 37.8885 33.0702 37.8984 33.0523 37.904C33.0344 37.9097 33.0154 37.9109 32.9969 37.9077H32.4738C32.3815 37.9077 32.3322 37.8646 32.3322 37.7723V36.9231C31.694 36.8451 31.0905 36.5893 30.5907 36.1846C30.5746 36.1747 30.5608 36.1616 30.5502 36.146C30.5395 36.1305 30.5322 36.1129 30.5287 36.0943C30.5252 36.0758 30.5256 36.0567 30.53 36.0384C30.5343 36.02 30.5424 36.0027 30.5538 35.9877L30.9476 35.3723C30.9603 35.3557 30.9766 35.3423 30.9952 35.333C31.0139 35.3238 31.0345 35.319 31.0553 35.319C31.0762 35.319 31.0967 35.3238 31.1154 35.333C31.1341 35.3423 31.1504 35.3557 31.163 35.3723C31.5893 35.714 32.1127 35.9121 32.6584 35.9385C33.3538 35.9385 33.7476 35.5938 33.7476 35.0892C33.7476 33.7292 30.6707 34.2523 30.6707 32.0862C30.7036 31.6518 30.8891 31.2431 31.1943 30.9323C31.4995 30.6214 31.9047 30.4286 32.3384 30.3877V29.5385C32.3365 29.5194 32.3388 29.5001 32.3453 29.4821C32.3517 29.4641 32.3621 29.4477 32.3756 29.4341C32.3891 29.4206 32.4055 29.4102 32.4236 29.4038C32.4416 29.3973 32.4609 29.395 32.4799 29.3969H33.003C33.0953 29.3969 33.1384 29.4462 33.1384 29.5385V30.3446C33.6157 30.422 34.0734 30.5913 34.4861 30.8431C34.5031 30.8519 34.5181 30.8643 34.53 30.8793C34.5419 30.8944 34.5505 30.9118 34.5551 30.9304C34.5598 30.9491 34.5604 30.9685 34.557 30.9873C34.5536 31.0062 34.5462 31.0242 34.5353 31.04L34.1107 31.6554C34.1005 31.6729 34.0864 31.6879 34.0696 31.6993C34.0528 31.7107 34.0336 31.7181 34.0135 31.7211C33.9934 31.724 33.9729 31.7224 33.9535 31.7164C33.9341 31.7103 33.9163 31.7 33.9015 31.6862C33.5575 31.4432 33.1471 31.3122 32.7261 31.3108C32.1784 31.3108 31.7292 31.6123 31.7292 32.0492C31.7538 33.3415 34.8307 32.8431 34.8307 35.0769Z" fill="#84BAA2" />
	<path d="M29.7168 41.5323H50.7076" stroke="#84BAA2" stroke-width="1.5" stroke-linecap="round" stroke-linejoin="round" />
	<path d="M29.7168 45.2492H50.7076" stroke="#84BAA2" stroke-width="1.5" stroke-linecap="round" stroke-linejoin="round" />
	<path d="M29.7168 48.9662H50.7076" stroke="#84BAA2" stroke-width="1.5" stroke-linecap="round" stroke-linejoin="round" />
	<path d="M29.7168 52.6831H50.7076" stroke="#84BAA2" stroke-width="1.5" stroke-linecap="round" stroke-linejoin="round" />
	<path d="M29.7168 56.4062H50.7076" stroke="#84BAA2" stroke-width="1.5" stroke-linecap="round" stroke-linejoin="round" />
	<path d="M55.8211 75.4646C62.8631 75.4646 68.5719 69.7559 68.5719 62.7138C68.5719 55.6718 62.8631 49.9631 55.8211 49.9631C48.779 49.9631 43.0703 55.6718 43.0703 62.7138C43.0703 69.7559 48.779 75.4646 55.8211 75.4646Z" fill="#07A35D" />
	<path d="M49.8034 63.9261L53.9511 68.3077C54.0476 68.4013 54.1767 68.4537 54.3111 68.4537C54.4455 68.4537 54.5746 68.4013 54.6711 68.3077L63.5019 59.2677C63.5401 59.2236 63.5687 59.172 63.5858 59.1162C63.6029 59.0604 63.6082 59.0016 63.6012 58.9436C63.5943 58.8857 63.5753 58.8298 63.5454 58.7797C63.5156 58.7295 63.4756 58.6861 63.428 58.6523L61.5019 57.0031C61.414 56.9384 61.3044 56.9106 61.1964 56.9255C61.0883 56.9404 60.9904 56.997 60.9234 57.0831L54.6403 63.7908C54.6038 63.8357 54.5582 63.8726 54.5067 63.8991C54.4551 63.9255 54.3986 63.941 54.3408 63.9444C54.2829 63.9479 54.225 63.9393 54.1706 63.9192C54.1162 63.8991 54.0666 63.868 54.0249 63.8277L51.9634 61.7723C51.9247 61.7289 51.8773 61.6942 51.8243 61.6705C51.7713 61.6467 51.7138 61.6344 51.6557 61.6344C51.5976 61.6344 51.5402 61.6467 51.4871 61.6705C51.4341 61.6942 51.3867 61.7289 51.348 61.7723L49.8096 63.3846C49.7433 63.4589 49.7062 63.5547 49.7051 63.6542C49.704 63.7538 49.7389 63.8503 49.8034 63.9261Z" fill="white" />
	<path d="M27.9443 10.1908V17.0708" stroke="#07A35D" stroke-width="1.5" stroke-linecap="round" stroke-linejoin="round" />
	<path d="M13.1631 25.7415H20.6031" stroke="#07A35D" stroke-width="1.5" stroke-linecap="round" stroke-linejoin="round" />
	<path d="M16.6094 13.9754L22.2586 19.6308" stroke="#07A35D" stroke-width="1.5" stroke-linecap="round" stroke-linejoin="round" />
</svg>
