<svg width="24" height="24" viewBox="0 0 24 24" fill="none" xmlns="http://www.w3.org/2000/svg">
	<path d="M1.23916 18.3887L10.1497 3.95489C10.3277 3.66664 10.594 3.42543 10.92 3.25719C11.246 3.08895 11.6194 3.00005 12 3.00005C12.3806 3.00005 12.754 3.08895 13.08 3.25719C13.406 3.42543 13.6723 3.66664 13.8503 3.95489L22.7608 18.3887C22.9281 18.6611 23.0101 18.9659 22.999 19.2736C22.9879 19.5812 22.8839 19.8811 22.6973 20.1441C22.5106 20.4071 22.2477 20.6241 21.934 20.7741C21.6204 20.9241 21.2667 21.002 20.9075 21H3.08847C2.72962 21.0014 2.37647 20.9231 2.06336 20.7729C1.75026 20.6226 1.48787 20.4055 1.3017 20.1426C1.11553 19.8797 1.01193 19.5801 1.00097 19.2727C0.99001 18.9654 1.07207 18.6608 1.23916 18.3887Z" fill="#FCB40A" />
	<path d="M12 18.7501C11.5858 18.7501 11.25 18.4143 11.25 18.0001L11.25 17.9901C11.25 17.5759 11.5858 17.2401 12 17.2401C12.4142 17.2401 12.75 17.5759 12.75 17.9901L12.75 18.0001C12.75 18.4143 12.4142 18.7501 12 18.7501Z" fill="#2C2C2C" />
	<path d="M12 15.75C11.5858 15.75 11.25 15.4142 11.25 15L11.25 8.00003C11.25 7.58582 11.5858 7.25003 12 7.25003C12.4142 7.25003 12.75 7.58582 12.75 8.00003L12.75 15C12.75 15.4142 12.4142 15.75 12 15.75Z" fill="#2C2C2C" />
</svg>
