<?xml version="1.0" encoding="UTF-8"?>
<!DOCTYPE svg PUBLIC "-//W3C//DTD SVG 1.1//EN" "http://www.w3.org/Graphics/SVG/1.1/DTD/svg11.dtd">
<svg xmlns="http://www.w3.org/2000/svg" version="1.1" width="1024px" height="1024px" style="shape-rendering:geometricPrecision; text-rendering:geometricPrecision; image-rendering:optimizeQuality; fill-rule:evenodd; clip-rule:evenodd" xmlns:xlink="http://www.w3.org/1999/xlink">
	<g>
		<path style="opacity:0.429" fill="#fffefc" d="M 20.5,-0.5 C 22.8333,-0.5 25.1667,-0.5 27.5,-0.5C 28.7694,4.04268 30.6028,8.37602 33,12.5C 36.3493,9.31795 39.516,5.98462 42.5,2.5C 40.4565,1.93476 38.7898,0.934756 37.5,-0.5C 43.1667,-0.5 48.8333,-0.5 54.5,-0.5C 57.8482,1.25536 61.3482,2.92203 65,4.5C 66.2575,4.84987 66.5908,5.51654 66,6.5C 64.6487,8.01899 63.1487,9.35232 61.5,10.5C 57.2692,8.36875 52.9359,6.86875 48.5,6C 44.1667,10.3333 39.8333,14.6667 35.5,19C 37.3575,22.9019 39.0242,26.9019 40.5,31C 39.1502,35.1428 36.9835,35.9762 34,33.5C 29.2101,22.2578 24.7101,10.9244 20.5,-0.5 Z" />
	</g>
	<g>
		<path style="opacity:0.283" fill="#fffcf6" d="M 67.5,-0.5 C 69.1667,-0.5 70.8333,-0.5 72.5,-0.5C 70.8333,2.16667 69.1667,2.16667 67.5,-0.5 Z" />
	</g>
	<g>
		<path style="opacity:0.433" fill="#fffefb" d="M 313.5,-0.5 C 315.5,-0.5 317.5,-0.5 319.5,-0.5C 320.092,2.12717 320.425,4.79384 320.5,7.5C 329.913,9.01051 339.246,10.8438 348.5,13C 346.65,15.0176 344.65,16.8509 342.5,18.5C 335.563,16.8438 328.563,15.5105 321.5,14.5C 322.51,21.563 323.844,28.563 325.5,35.5C 323.851,37.6499 322.018,39.6499 320,41.5C 318.705,37.3504 317.538,33.1837 316.5,29C 316.833,28.6667 317.167,28.3333 317.5,28C 316.485,23.577 315.652,19.077 315,14.5C 306.64,12.4625 298.14,11.1291 289.5,10.5C 289.943,7.37622 291.61,5.04289 294.5,3.5C 300.742,5.20778 307.075,6.04111 313.5,6C 313.784,4.0438 313.784,1.87713 313.5,-0.5 Z" />
	</g>
	<g>
		<path style="opacity:0.401" fill="#fffefb" d="M 350.5,-0.5 C 352.167,-0.5 353.833,-0.5 355.5,-0.5C 356.29,0.794229 357.29,1.9609 358.5,3C 356.667,4.83333 354.833,6.66667 353,8.5C 351.167,6.66667 349.333,4.83333 347.5,3C 348.71,1.9609 349.71,0.794229 350.5,-0.5 Z" />
	</g>
	<g>
		<path style="opacity:0.424" fill="#fffefe" d="M 881.5,-0.5 C 884.833,-0.5 888.167,-0.5 891.5,-0.5C 893.127,1.62976 894.96,3.62976 897,5.5C 899.04,3.62976 900.873,1.62976 902.5,-0.5C 905.833,-0.5 909.167,-0.5 912.5,-0.5C 909.189,3.14662 905.855,6.81329 902.5,10.5C 906.833,15.1667 911.167,19.8333 915.5,24.5C 914.185,26.3159 912.685,27.9825 911,29.5C 900.964,19.6317 891.131,9.63173 881.5,-0.5 Z" />
	</g>
	<g>
		<path style="opacity:0.409" fill="#fffefb" d="M 923.5,-0.5 C 926.833,-0.5 930.167,-0.5 933.5,-0.5C 934.476,0.814858 935.476,2.14819 936.5,3.5C 935.185,5.31585 933.685,6.98252 932,8.5C 928.264,6.26627 925.43,3.26627 923.5,-0.5 Z" />
	</g>
	<g>
		<path style="opacity:0.432" fill="#fffefc" d="M 869.5,9.5 C 878.936,8.93857 884.602,13.2719 886.5,22.5C 886.222,25.3211 885.722,27.9878 885,30.5C 885.333,30.1667 885.667,29.8333 886,29.5C 892.46,31.2266 898.96,32.8932 905.5,34.5C 903.851,36.6499 902.018,38.6499 900,40.5C 893.544,38.7608 887.044,37.0941 880.5,35.5C 876.604,38.2057 873.77,41.539 872,45.5C 875.833,49.3333 879.667,53.1667 883.5,57C 881.667,58.8333 879.833,60.6667 878,62.5C 867.5,52 857,41.5 846.5,31C 853.761,23.2334 861.428,16.0667 869.5,9.5 Z M 869.5,16.5 C 879.309,17.4512 881.642,22.1178 876.5,30.5C 873.151,33.682 869.984,37.0154 867,40.5C 863.318,36.9848 859.818,33.3181 856.5,29.5C 860.548,24.7852 864.881,20.4519 869.5,16.5 Z" />
	</g>
	<g>
		<path style="opacity:0.422" fill="#fffefc" d="M 576.5,10.5 C 587.812,20.479 598.479,31.1457 608.5,42.5C 607.284,45.2505 605.284,46.4172 602.5,46C 596,39.5 589.5,33 583,26.5C 586.741,36.3543 590.908,46.1877 595.5,56C 594.5,57 593.5,58 592.5,59C 581.5,54.6667 570.5,50.3333 559.5,46C 567.167,53.6667 574.833,61.3333 582.5,69C 581,70.5 579.5,72 578,73.5C 567.319,62.9859 556.819,52.3193 546.5,41.5C 548.202,38.9633 550.369,36.9633 553,35.5C 562.621,39.6133 572.454,44.1133 582.5,49C 583.5,49.6667 584.5,49.6667 585.5,49C 580.773,38.2128 575.773,27.5461 570.5,17C 572.706,14.9633 574.706,12.7966 576.5,10.5 Z" />
	</g>
	<g>
		<path style="opacity:0.445" fill="#fffefb" d="M 283.5,13.5 C 287,13.4954 288.5,15.1621 288,18.5C 281.833,24.6667 275.667,30.8333 269.5,37C 272.769,39.6895 275.936,42.5228 279,45.5C 284.5,40 290,34.5 295.5,29C 298.094,28.5507 300.094,29.5507 301.5,32C 295.5,38 289.5,44 283.5,50C 286.784,53.4055 289.95,56.9055 293,60.5C 299.5,54 306,47.5 312.5,41C 314.568,41.0173 316.234,42.0173 317.5,44C 309,52.5 300.5,61 292,69.5C 281.319,58.9859 270.819,48.3193 260.5,37.5C 268.188,29.4794 275.855,21.4794 283.5,13.5 Z" />
	</g>
	<g>
		<path style="opacity:0.396" fill="#fffefe" d="M 839.5,37.5 C 850.298,47.7979 860.965,58.2979 871.5,69C 869.667,70.8333 867.833,72.6667 866,74.5C 855.5,64 845,53.5 834.5,43C 836.373,41.2962 838.04,39.4628 839.5,37.5 Z" />
	</g>
	<g>
		<path style="opacity:0.427" fill="#fffefc" d="M 252.5,44.5 C 263.913,54.4098 274.913,64.9098 285.5,76C 283.983,77.6851 282.316,79.1851 280.5,80.5C 275.22,76.7225 270.386,72.3892 266,67.5C 260.833,72.6667 255.667,77.8333 250.5,83C 255.167,87.6667 259.833,92.3333 264.5,97C 262.983,98.6851 261.316,100.185 259.5,101.5C 248.639,91.4724 238.305,80.9724 228.5,70C 229.292,68.0403 230.625,66.5403 232.5,65.5C 236.833,69.5 241.167,73.5 245.5,77.5C 250.985,72.515 256.319,67.3484 261.5,62C 257.367,58.8689 253.534,55.3689 250,51.5C 249.333,50.1667 249.333,48.8333 250,47.5C 251.045,46.6266 251.878,45.6266 252.5,44.5 Z" />
	</g>
	<g>
		<path style="opacity:0.435" fill="#fffefb" d="M 536.5,54.5 C 550.571,54.4026 559.738,61.0693 564,74.5C 564.997,90.0129 557.83,99.3462 542.5,102.5C 523.314,99.4255 515.481,88.0922 519,68.5C 523.288,61.6927 529.121,57.0261 536.5,54.5 Z M 536.5,61.5 C 546.114,61.9268 552.948,66.5935 557,75.5C 558.602,86.7424 553.769,93.4091 542.5,95.5C 528.512,92.0439 523.012,83.3773 526,69.5C 528.855,65.7893 532.355,63.1226 536.5,61.5 Z" />
	</g>
	<g>
		<path style="opacity:0.436" fill="#fffefb" d="M 818.5,58.5 C 833.149,64.8235 847.816,71.1568 862.5,77.5C 861.129,79.7054 859.296,81.372 857,82.5C 853.032,80.6685 849.365,79.0018 846,77.5C 841.667,81.8333 837.333,86.1667 833,90.5C 833.742,94.841 835.242,99.0077 837.5,103C 835.667,104.833 833.833,106.667 832,108.5C 825.452,94.1977 819.285,79.6977 813.5,65C 814.985,62.683 816.652,60.5164 818.5,58.5 Z M 821.5,68.5 C 821.56,67.9569 821.893,67.6236 822.5,67.5C 828.008,70.2834 833.674,72.7834 839.5,75C 836.318,78.3493 832.985,81.516 829.5,84.5C 827.006,78.9751 824.339,73.6418 821.5,68.5 Z" />
	</g>
	<g>
		<path style="opacity:0.997" fill="#ffc80d" d="M 1023.5,58.5 C 1023.5,91.1667 1023.5,123.833 1023.5,156.5C 1019.49,155.164 1015.49,155.33 1011.5,157C 1004.82,162.346 998.821,168.346 993.5,175C 1002.99,185.66 1012.99,195.826 1023.5,205.5C 1023.5,289.5 1023.5,373.5 1023.5,457.5C 1019.52,453.855 1015.52,450.189 1011.5,446.5C 1009.5,447.833 1007.83,449.5 1006.5,451.5C 1012.04,463.487 1017.38,475.487 1022.5,487.5C 1011.06,481.388 999.395,475.721 987.5,470.5C 985.35,472.149 983.35,473.982 981.5,476C 991.681,486.348 1002.01,496.514 1012.5,506.5C 1014.48,505.725 1015.31,504.391 1015,502.5C 1007.32,494.986 999.819,487.319 992.5,479.5C 992.833,479.167 993.167,478.833 993.5,478.5C 1003.04,483.105 1012.71,487.439 1022.5,491.5C 1022.5,492.167 1022.83,492.5 1023.5,492.5C 1023.5,525.167 1023.5,557.833 1023.5,590.5C 1022.5,636.33 1022.17,682.33 1022.5,728.5C 1021.82,729.154 1020.82,729.154 1019.5,728.5C 1017.84,729.787 1016.17,731.12 1014.5,732.5C 1017.28,733.515 1019.94,734.515 1022.5,735.5C 1022.5,741.5 1022.5,747.5 1022.5,753.5C 1021.88,753.389 1021.38,753.056 1021,752.5C 1014.99,758.682 1008.82,764.682 1002.5,770.5C 999.516,768.016 996.682,765.35 994,762.5C 993.333,761.5 993.333,760.5 994,759.5C 999.667,753.833 1005.33,748.167 1011,742.5C 1011.31,740.609 1010.48,739.275 1008.5,738.5C 1001.17,746.5 993.5,754.167 985.5,761.5C 995.319,771.819 1005.32,781.986 1015.5,792C 1018.08,791.035 1020.41,789.535 1022.5,787.5C 1022.18,791.702 1022.52,795.702 1023.5,799.5C 1023.5,799.833 1023.5,800.167 1023.5,800.5C 1022.17,845.5 1022.17,890.5 1023.5,935.5C 1023.5,935.833 1023.5,936.167 1023.5,936.5C 1022.17,938.833 1022.17,941.167 1023.5,943.5C 1023.5,943.833 1023.5,944.167 1023.5,944.5C 1021.9,948.99 1020.4,953.657 1019,958.5C 1013.96,964.301 1007.79,965.801 1000.5,963C 993.554,960.194 986.888,956.861 980.5,953C 955.742,936.634 931.409,919.801 907.5,902.5C 907.923,901.735 908.257,900.902 908.5,900C 906.564,895.526 905.064,891.026 904,886.5C 908.167,882.333 912.333,878.167 916.5,874C 921.19,874.674 925.69,876.174 930,878.5C 932.556,877.781 933.723,876.114 933.5,873.5C 919.384,868.525 905.551,862.859 892,856.5C 889.061,857.718 887.395,859.718 887,862.5C 892.69,874.554 897.856,886.888 902.5,899.5C 838.524,856.174 774.857,812.507 711.5,768.5C 813.532,537.434 915.198,306.1 1016.5,74.5C 1016.15,73.3044 1015.65,73.3044 1015,74.5C 970.92,152.996 926.586,231.329 882,309.5C 880.991,311.025 880.491,312.692 880.5,314.5C 880.167,314.5 879.833,314.5 879.5,314.5C 875.49,309.308 870.823,305.141 865.5,302C 864.333,303.167 863.167,304.333 862,305.5C 864.86,312.894 868.026,320.228 871.5,327.5C 871.5,328.167 871.5,328.833 871.5,329.5C 869.412,331.336 868.079,333.669 867.5,336.5C 859.336,332.924 851.003,329.591 842.5,326.5C 839.196,327.287 837.696,329.287 838,332.5C 844.703,339.035 851.203,345.702 857.5,352.5C 856.083,355.669 854.417,358.669 852.5,361.5C 845.32,347.575 834.32,343.075 819.5,348C 803.285,361.654 803.618,374.988 820.5,388C 825.595,390.177 830.928,391.01 836.5,390.5C 773.638,501.721 710.638,612.887 647.5,724C 648.056,724.383 648.389,724.883 648.5,725.5C 604.967,715.887 561.634,705.887 518.5,695.5C 517.609,694.89 516.609,694.557 515.5,694.5C 512.803,686.465 509.637,678.799 506,671.5C 514.667,680.167 523.333,688.833 532,697.5C 533.167,696.333 534.333,695.167 535.5,694C 525.319,683.652 514.986,673.486 504.5,663.5C 502.5,664.833 500.833,666.5 499.5,668.5C 503.462,676.752 507.128,685.085 510.5,693.5C 510.167,693.5 509.833,693.5 509.5,693.5C 500.629,691.033 491.629,689.033 482.5,687.5C 482.5,686.833 482.167,686.5 481.5,686.5C 481.167,686.5 480.833,686.5 480.5,686.5C 333.426,652.676 186.093,618.676 38.5,584.5C 37.8333,584.5 37.5,584.167 37.5,583.5C 41.1774,579.989 45.0107,576.656 49,573.5C 53.7887,577.286 58.2887,581.453 62.5,586C 64.5676,585.983 66.2343,584.983 67.5,583C 57.3192,572.652 46.9859,562.486 36.5,552.5C 35.0186,553.48 33.6853,554.647 32.5,556C 37.0153,560.348 41.3487,564.848 45.5,569.5C 41.479,574.188 37.1456,578.521 32.5,582.5C 31.8333,582.5 31.1667,582.5 30.5,582.5C 29.1667,582.5 27.8333,582.5 26.5,582.5C 26.5,581.833 26.1667,581.5 25.5,581.5C 24.391,581.443 23.391,581.11 22.5,580.5C 20.7059,578.203 18.7059,576.037 16.5,574C 14.9343,573.7 13.601,574.2 12.5,575.5C 12.1667,575.5 11.8333,575.5 11.5,575.5C 5.82956,571.82 1.82956,566.82 -0.5,560.5C -0.5,555.833 -0.5,551.167 -0.5,546.5C 1.8011,540.69 5.46777,535.857 10.5,532C 38.6455,518.345 66.9788,505.178 95.5,492.5C 95.0766,493.265 94.7432,494.098 94.5,495C 95.583,501.496 96.583,507.996 97.5,514.5C 91.0893,514.043 84.7559,513.043 78.5,511.5C 76.2586,512.071 74.5919,513.404 73.5,515.5C 81.766,517.354 90.0993,518.687 98.5,519.5C 99.8356,528.848 101.336,538.182 103,547.5C 104.685,545.983 106.185,544.316 107.5,542.5C 105.841,535.232 104.508,527.899 103.5,520.5C 110.585,521.317 117.585,522.65 124.5,524.5C 126.898,523.611 128.898,522.111 130.5,520C 121.5,518.333 112.5,516.667 103.5,515C 101.595,507.119 99.9283,499.285 98.5,491.5C 98.5,490.833 98.8333,490.5 99.5,490.5C 107.257,486.288 115.257,482.621 123.5,479.5C 123.833,479.5 124.167,479.5 124.5,479.5C 127.912,485.445 132.579,490.278 138.5,494C 151.057,497.595 160.557,493.762 167,482.5C 168.669,478.008 168.835,473.508 167.5,469C 165.888,468.28 164.388,468.446 163,469.5C 164.752,483.502 158.585,490.336 144.5,490C 137.396,487.962 132.73,483.462 130.5,476.5C 130.5,476.167 130.5,475.833 130.5,475.5C 142.29,470.438 153.957,465.105 165.5,459.5C 166.167,459.167 166.833,458.833 167.5,458.5C 177.659,465.713 187.159,464.713 196,455.5C 199.187,452.126 201.02,448.126 201.5,443.5C 202.167,442.833 202.833,442.167 203.5,441.5C 207.496,439.836 211.496,438.169 215.5,436.5C 216.167,436.5 216.5,436.167 216.5,435.5C 217.167,435.5 217.5,435.167 217.5,434.5C 357.291,369.771 496.958,304.771 636.5,239.5C 636.833,239.5 637.167,239.5 637.5,239.5C 627.7,251.214 628.366,262.381 639.5,273C 655.165,282.761 666.999,279.261 675,262.5C 675.667,259.167 675.667,255.833 675,252.5C 673.474,250.415 671.64,250.415 669.5,252.5C 671.521,266.315 665.521,273.148 651.5,273C 641.225,268.931 636.058,261.431 636,250.5C 639.738,241.398 646.404,237.398 656,238.5C 657.795,234.558 656.295,232.892 651.5,233.5C 651.5,233.167 651.5,232.833 651.5,232.5C 655.043,230.562 658.71,228.895 662.5,227.5C 662.833,227.5 663.167,227.5 663.5,227.5C 670.076,243.621 681.41,248.787 697.5,243C 710.093,233.215 711.759,222.049 702.5,209.5C 702.5,209.167 702.5,208.833 702.5,208.5C 704.751,207.305 707.085,206.305 709.5,205.5C 710.167,205.5 710.833,205.5 711.5,205.5C 714.629,209.131 717.963,212.631 721.5,216C 723.661,216.722 725.328,216.055 726.5,214C 722.917,210.247 719.251,206.747 715.5,203.5C 715.5,203.167 715.5,202.833 715.5,202.5C 718.232,201.134 720.899,199.801 723.5,198.5C 724.5,198.5 725.5,198.5 726.5,198.5C 728.885,200.263 731.552,201.763 734.5,203C 736.906,203.779 738.573,202.946 739.5,200.5C 738.212,198.261 737.212,195.928 736.5,193.5C 736.5,193.167 736.5,192.833 736.5,192.5C 739.485,191.674 742.151,190.341 744.5,188.5C 745.5,188.5 746.5,188.5 747.5,188.5C 748.85,191.106 750.35,191.106 752,188.5C 752.692,187.563 752.525,186.897 751.5,186.5C 751.5,186.167 751.5,185.833 751.5,185.5C 842.167,143.167 932.833,100.833 1023.5,58.5 Z" />
	</g>
	<g>
		<path style="opacity:1" fill="#ffe208" d="M 711.5,768.5 C 690.221,754.55 669.221,740.217 648.5,725.5C 648.389,724.883 648.056,724.383 647.5,724C 710.638,612.887 773.638,501.721 836.5,390.5C 849.389,385.694 854.723,376.694 852.5,363.5C 852.5,362.833 852.5,362.167 852.5,361.5C 854.417,358.669 856.083,355.669 857.5,352.5C 860.119,355.119 862.785,357.785 865.5,360.5C 868.184,361.666 870.184,360.833 871.5,358C 868.297,354.629 864.964,351.462 861.5,348.5C 861.707,345.759 862.707,343.426 864.5,341.5C 869.8,343.772 875.133,346.105 880.5,348.5C 883.144,347.259 883.977,345.259 883,342.5C 880.428,336.234 877.594,330.234 874.5,324.5C 874.5,323.833 874.5,323.167 874.5,322.5C 875.674,321.486 876.34,320.153 876.5,318.5C 876.833,318.5 877.167,318.5 877.5,318.5C 882.63,324.131 887.964,329.631 893.5,335C 896,335.167 897.167,334 897,331.5C 891.297,325.965 885.797,320.298 880.5,314.5C 880.491,312.692 880.991,311.025 882,309.5C 926.586,231.329 970.92,152.996 1015,74.5C 1015.65,73.3044 1016.15,73.3044 1016.5,74.5C 915.198,306.1 813.532,537.434 711.5,768.5 Z" />
	</g>
	<g>
		<path style="opacity:0.435" fill="#fffefb" d="M 220.5,81.5 C 228.233,82.3718 233.233,86.8718 235.5,95C 234.802,97.4537 233.802,99.7871 232.5,102C 239.904,103.455 247.238,105.122 254.5,107C 252.571,109.438 250.238,111.272 247.5,112.5C 240.89,110.677 234.223,109.51 227.5,109C 224.833,111.667 222.167,114.333 219.5,117C 223.682,121.015 227.682,125.182 231.5,129.5C 230.167,131.5 228.5,133.167 226.5,134.5C 215.639,124.472 205.305,113.972 195.5,103C 200.788,96.7098 206.455,90.7098 212.5,85C 215.158,83.522 217.825,82.3554 220.5,81.5 Z M 220.5,88.5 C 226.24,89.9732 228.407,93.6399 227,99.5C 223.368,104.134 219.368,108.467 215,112.5C 211.5,109 208,105.5 204.5,102C 209.168,96.4807 214.502,91.9807 220.5,88.5 Z" />
	</g>
	<g>
		<path style="opacity:0.422" fill="#fffefc" d="M 503.5,87.5 C 507.463,87.0889 511.13,87.9222 514.5,90C 513.111,91.9571 511.611,93.7904 510,95.5C 498.388,94.4429 492.388,99.7763 492,111.5C 494.942,120.612 501.109,125.945 510.5,127.5C 521.721,125.552 526.054,119.052 523.5,108C 524.988,106.283 526.821,105.116 529,104.5C 533.77,118.789 528.937,128.623 514.5,134C 498.914,135.41 489.081,128.577 485,113.5C 484.717,100.278 490.884,91.611 503.5,87.5 Z" />
	</g>
	<g>
		<path style="opacity:0.414" fill="#fffefc" d="M 186.5,110.5 C 187.552,110.351 188.552,110.517 189.5,111C 199.333,120.833 209.167,130.667 219,140.5C 218.805,142.745 217.638,144.578 215.5,146C 214.833,146.667 214.167,146.667 213.5,146C 203.667,136.167 193.833,126.333 184,116.5C 183.333,115.5 183.333,114.5 184,113.5C 185.045,112.627 185.878,111.627 186.5,110.5 Z" />
	</g>
	<g>
		<path style="opacity:0.427" fill="#fffefb" d="M 459.5,127.5 C 460.931,127.881 461.764,128.881 462,130.5C 463.308,137.82 464.474,145.154 465.5,152.5C 475.014,153.77 484.348,155.603 493.5,158C 491.667,159.833 489.833,161.667 488,163.5C 480.924,161.845 473.757,160.512 466.5,159.5C 467.994,167.12 468.827,174.787 469,182.5C 467.667,183.833 466.333,185.167 465,186.5C 463.126,177.678 461.293,168.678 459.5,159.5C 450.592,157.413 441.925,155.58 433.5,154C 435.35,151.982 437.35,150.149 439.5,148.5C 445.489,149.819 451.822,150.819 458.5,151.5C 458.019,145.424 457.019,139.424 455.5,133.5C 456.432,131.235 457.765,129.235 459.5,127.5 Z" />
	</g>
	<g>
		<path style="opacity:0.429" fill="#fffefb" d="M 165.5,131.5 C 168.647,131.737 171.647,132.57 174.5,134C 186.717,139.609 199.05,144.942 211.5,150C 209.667,151.833 207.833,153.667 206,155.5C 202.008,153.242 197.841,151.742 193.5,151C 189.167,155.333 184.833,159.667 180.5,164C 182.26,167.775 183.927,171.608 185.5,175.5C 184.167,177.5 182.5,179.167 180.5,180.5C 173.875,166.124 167.542,151.624 161.5,137C 162.65,135.019 163.984,133.186 165.5,131.5 Z M 170.5,140.5 C 176.26,142.365 181.927,144.532 187.5,147C 183.964,150.201 180.797,153.701 178,157.5C 175.017,152.051 172.517,146.384 170.5,140.5 Z" />
	</g>
	<g>
		<path style="opacity:0.391" fill="#fffdfa" d="M 497.5,142.5 C 499.63,144.127 501.63,145.96 503.5,148C 501.667,149.833 499.833,151.667 498,153.5C 496.167,151.667 494.333,149.833 492.5,148C 494.373,146.296 496.04,144.463 497.5,142.5 Z" />
	</g>
	<g>
		<path style="opacity:0.424" fill="#fffefb" d="M 751.5,185.5 C 751.5,185.833 751.5,186.167 751.5,186.5C 749.847,186.66 748.514,187.326 747.5,188.5C 746.5,188.5 745.5,188.5 744.5,188.5C 739.203,182.702 733.703,177.035 728,171.5C 730.458,178.965 733.291,185.965 736.5,192.5C 736.5,192.833 736.5,193.167 736.5,193.5C 734.716,193.893 733.05,194.559 731.5,195.5C 731.5,194.833 731.167,194.5 730.5,194.5C 725.793,183.552 720.793,172.719 715.5,162C 717.667,159.833 719.833,157.667 722,155.5C 732.391,165.057 742.225,175.057 751.5,185.5 Z" />
	</g>
	<g>
		<path style="opacity:1" fill="#ffe282" d="M 1023.5,156.5 C 1023.5,158.833 1023.5,161.167 1023.5,163.5C 1020.99,160.964 1017.99,160.131 1014.5,161C 1009.35,164.982 1004.68,169.482 1000.5,174.5C 1003.83,178.5 1007.5,182.167 1011.5,185.5C 1015.52,181.811 1019.52,178.145 1023.5,174.5C 1023.5,176.833 1023.5,179.167 1023.5,181.5C 1020.06,183.108 1017.39,185.608 1015.5,189C 1017.65,192.321 1020.32,195.154 1023.5,197.5C 1023.5,200.167 1023.5,202.833 1023.5,205.5C 1012.99,195.826 1002.99,185.66 993.5,175C 998.821,168.346 1004.82,162.346 1011.5,157C 1015.49,155.33 1019.49,155.164 1023.5,156.5 Z" />
	</g>
	<g>
		<path style="opacity:0.442" fill="#fffefc" d="M 428.5,158.5 C 431.524,158.364 433.024,159.698 433,162.5C 426.652,168.681 420.485,175.014 414.5,181.5C 417.527,184.527 420.527,187.527 423.5,190.5C 429.819,184.682 435.986,178.682 442,172.5C 443.983,173.766 444.983,175.432 445,177.5C 439.318,183.015 433.818,188.681 428.5,194.5C 431.158,198.157 434.158,201.491 437.5,204.5C 443.986,198.515 450.319,192.348 456.5,186C 459.094,185.551 461.094,186.551 462.5,189C 454.291,197.543 445.791,205.71 437,213.5C 426.028,203.695 415.528,193.361 405.5,182.5C 413.188,174.479 420.855,166.479 428.5,158.5 Z" />
	</g>
	<g>
		<path style="opacity:0.992" fill="#ffc80f" d="M 1023.5,163.5 C 1023.5,167.167 1023.5,170.833 1023.5,174.5C 1019.52,178.145 1015.52,181.811 1011.5,185.5C 1007.5,182.167 1003.83,178.5 1000.5,174.5C 1004.68,169.482 1009.35,164.982 1014.5,161C 1017.99,160.131 1020.99,160.964 1023.5,163.5 Z" />
	</g>
	<g>
		<path style="opacity:0.426" fill="#fffefd" d="M 730.5,194.5 C 730.5,194.833 730.5,195.167 730.5,195.5C 729.167,196.5 727.833,197.5 726.5,198.5C 725.5,198.5 724.5,198.5 723.5,198.5C 717.052,195.93 710.719,193.43 704.5,191C 708.37,194.702 712.037,198.536 715.5,202.5C 715.5,202.833 715.5,203.167 715.5,203.5C 713.847,203.66 712.514,204.326 711.5,205.5C 710.833,205.5 710.167,205.5 709.5,205.5C 703.87,199.369 698.036,193.369 692,187.5C 692.546,184.907 694.046,182.74 696.5,181C 697.5,180.333 698.5,180.333 699.5,181C 709.617,185.984 719.95,190.484 730.5,194.5 Z" />
	</g>
	<g>
		<path style="opacity:0.937" fill="#ffcb19" d="M 1023.5,181.5 C 1023.5,186.833 1023.5,192.167 1023.5,197.5C 1020.32,195.154 1017.65,192.321 1015.5,189C 1017.39,185.608 1020.06,183.108 1023.5,181.5 Z" />
	</g>
	<g>
		<path style="opacity:1" fill="#ffe384" d="M 983.5,183.5 C 993.751,193.249 1003.92,203.249 1014,213.5C 1014.17,216 1013,217.167 1010.5,217C 1000.65,206.986 990.653,197.152 980.5,187.5C 981.524,186.148 982.524,184.815 983.5,183.5 Z" />
	</g>
	<g>
		<path style="opacity:1" fill="#ffe385" d="M 751.5,186.5 C 752.525,186.897 752.692,187.563 752,188.5C 750.35,191.106 748.85,191.106 747.5,188.5C 748.514,187.326 749.847,186.66 751.5,186.5 Z" />
	</g>
	<g>
		<path style="opacity:0.418" fill="#fffefd" d="M 397.5,189.5 C 408.913,199.41 419.913,209.91 430.5,221C 428.796,223.757 426.462,225.09 423.5,225C 419.5,221 415.5,217 411.5,213C 405.528,216.79 400.194,221.623 395.5,227.5C 399.985,232.485 404.651,237.319 409.5,242C 407.983,243.685 406.316,245.185 404.5,246.5C 393.681,236.181 383.014,225.681 372.5,215C 374.017,213.315 375.684,211.815 377.5,210.5C 381.833,214.5 386.167,218.5 390.5,222.5C 396.377,217.806 401.21,212.472 405,206.5C 400.984,202.652 397.151,198.652 393.5,194.5C 394.857,192.814 396.19,191.148 397.5,189.5 Z" />
	</g>
	<g>
		<path style="opacity:1" fill="#ffe17e" d="M 736.5,193.5 C 737.212,195.928 738.212,198.261 739.5,200.5C 738.573,202.946 736.906,203.779 734.5,203C 731.552,201.763 728.885,200.263 726.5,198.5C 727.833,197.5 729.167,196.5 730.5,195.5C 730.833,195.5 731.167,195.5 731.5,195.5C 733.05,194.559 734.716,193.893 736.5,193.5 Z" />
	</g>
	<g>
		<path style="opacity:0.43" fill="#fffefc" d="M 702.5,208.5 C 702.5,208.833 702.5,209.167 702.5,209.5C 700.716,209.893 699.05,210.559 697.5,211.5C 696.833,211.5 696.167,211.5 695.5,211.5C 682.477,202.664 673.477,205.831 668.5,221C 669.252,221.671 669.586,222.504 669.5,223.5C 669.167,224.167 668.833,224.833 668.5,225.5C 666.597,225.796 664.93,226.463 663.5,227.5C 663.167,227.5 662.833,227.5 662.5,227.5C 661.68,209.149 670.68,199.982 689.5,200C 695.158,200.926 699.492,203.759 702.5,208.5 Z" />
	</g>
	<g>
		<path style="opacity:1" fill="#ffe27f" d="M 715.5,203.5 C 719.251,206.747 722.917,210.247 726.5,214C 725.328,216.055 723.661,216.722 721.5,216C 717.963,212.631 714.629,209.131 711.5,205.5C 712.514,204.326 713.847,203.66 715.5,203.5 Z" />
	</g>
	<g>
		<path style="opacity:1" fill="#ffe281" d="M 962.5,204.5 C 977.331,210.42 991.998,216.586 1006.5,223C 1005.27,224.563 1003.77,225.73 1002,226.5C 997.939,224.371 993.772,222.871 989.5,222C 985.333,226.167 981.167,230.333 977,234.5C 976.333,235.833 976.333,237.167 977,238.5C 978.57,241.144 979.737,243.977 980.5,247C 980.505,249.163 979.505,250.663 977.5,251.5C 971.077,237.479 964.744,223.312 958.5,209C 960.041,207.629 961.375,206.129 962.5,204.5 Z" />
	</g>
	<g>
		<path style="opacity:1" fill="#ffe280" d="M 702.5,209.5 C 711.759,222.049 710.093,233.215 697.5,243C 681.41,248.787 670.076,243.621 663.5,227.5C 664.93,226.463 666.597,225.796 668.5,225.5C 673.478,237.155 682.144,241.655 694.5,239C 705.235,230.951 706.235,221.784 697.5,211.5C 699.05,210.559 700.716,209.893 702.5,209.5 Z" />
	</g>
	<g>
		<path style="opacity:0.982" fill="#ffc915" d="M 695.5,211.5 C 696.167,211.5 696.833,211.5 697.5,211.5C 706.235,221.784 705.235,230.951 694.5,239C 682.144,241.655 673.478,237.155 668.5,225.5C 668.833,224.833 669.167,224.167 669.5,223.5C 678.475,220.01 687.142,216.01 695.5,211.5 Z" />
	</g>
	<g>
		<path style="opacity:1" fill="#ffca19" d="M 964.5,209.5 C 970.936,213.052 977.603,216.052 984.5,218.5C 982.351,223.33 979.018,227.33 974.5,230.5C 970.791,223.72 967.457,216.72 964.5,209.5 Z" />
	</g>
	<g>
		<path style="opacity:0.43" fill="#fffefc" d="M 363.5,226.5 C 372.418,226.418 377.752,230.751 379.5,239.5C 379.519,242.206 378.852,244.706 377.5,247C 384.788,247.774 392.122,249.44 399.5,252C 397.571,254.438 395.238,256.272 392.5,257.5C 385.887,256.146 379.387,254.479 373,252.5C 369.984,255.349 367.15,258.349 364.5,261.5C 368.5,265.833 372.5,270.167 376.5,274.5C 375.167,276.5 373.5,278.167 371.5,279.5C 360.681,269.181 350.014,258.681 339.5,248C 346.824,239.83 354.824,232.663 363.5,226.5 Z M 363.5,233.5 C 371.658,234.477 374.158,238.811 371,246.5C 367.333,250.167 363.667,253.833 360,257.5C 356.318,253.985 352.818,250.318 349.5,246.5C 353.609,241.384 358.276,237.051 363.5,233.5 Z" />
	</g>
	<g>
		<path style="opacity:0.424" fill="#fffefc" d="M 68.5,228.5 C 69.552,228.351 70.552,228.517 71.5,229C 81.681,239.014 91.681,249.181 101.5,259.5C 100.284,262.25 98.2842,263.417 95.5,263C 89,256.5 82.5,250 76,243.5C 79.6412,253.212 83.8079,262.879 88.5,272.5C 87.6872,273.814 86.6872,274.981 85.5,276C 74.6448,272.383 63.9782,268.383 53.5,264C 60.8333,271.333 68.1667,278.667 75.5,286C 74,287.5 72.5,289 71,290.5C 60.3191,279.986 49.8191,269.319 39.5,258.5C 41.2021,255.963 43.3688,253.963 46,252.5C 56.6581,257.756 67.4914,262.256 78.5,266C 73.8514,255.343 69.1848,244.676 64.5,234C 65.6502,232.019 66.9835,230.186 68.5,228.5 Z" />
	</g>
	<g>
		<path style="opacity:0.303" fill="#fffdf9" d="M 651.5,232.5 C 651.5,232.833 651.5,233.167 651.5,233.5C 646.597,234.952 641.93,236.952 637.5,239.5C 637.167,239.5 636.833,239.5 636.5,239.5C 640.52,235.326 645.52,232.993 651.5,232.5 Z" />
	</g>
	<g>
		<path style="opacity:1" fill="#ffe281" d="M 651.5,233.5 C 656.295,232.892 657.795,234.558 656,238.5C 646.404,237.398 639.738,241.398 636,250.5C 636.058,261.431 641.225,268.931 651.5,273C 665.521,273.148 671.521,266.315 669.5,252.5C 671.64,250.415 673.474,250.415 675,252.5C 675.667,255.833 675.667,259.167 675,262.5C 666.999,279.261 655.165,282.761 639.5,273C 628.366,262.381 627.7,251.214 637.5,239.5C 641.93,236.952 646.597,234.952 651.5,233.5 Z" />
	</g>
	<g>
		<path style="opacity:0.413" fill="#fffefc" d="M 332.5,254.5 C 343.132,264.631 353.632,274.965 364,285.5C 363.805,287.745 362.638,289.578 360.5,291C 359.833,291.667 359.167,291.667 358.5,291C 348.167,280.667 337.833,270.333 327.5,260C 329.373,258.296 331.04,256.463 332.5,254.5 Z" />
	</g>
	<g>
		<path style="opacity:0.434" fill="#fffefb" d="M 31.5,271.5 C 51.037,274.189 59.2037,285.189 56,304.5C 47.9742,319.382 36.4742,322.882 21.5,315C 6.55355,301.139 6.88688,287.806 22.5,275C 25.4588,273.396 28.4588,272.229 31.5,271.5 Z M 30.5,278.5 C 41.5757,280.057 48.5757,286.557 51.5,298C 47.4353,311.751 39.102,315.418 26.5,309C 13.382,296.771 14.7153,286.605 30.5,278.5 Z" />
	</g>
	<g>
		<path style="opacity:1" fill="#ffe280" d="M 603.5,273.5 C 604.496,273.414 605.329,273.748 606,274.5C 607.308,282.489 608.475,290.489 609.5,298.5C 618.726,299.012 627.726,300.679 636.5,303.5C 635.45,305.873 633.617,306.873 631,306.5C 624.142,305.544 617.309,304.544 610.5,303.5C 612.041,311.448 612.874,319.448 613,327.5C 612,328.5 611,329.5 610,330.5C 608.08,321.228 606.58,311.895 605.5,302.5C 597.051,301.902 588.717,300.569 580.5,298.5C 581.078,295.42 582.912,294.086 586,294.5C 592.146,295.696 598.312,296.696 604.5,297.5C 603.632,291.158 602.632,284.825 601.5,278.5C 601.437,276.486 602.103,274.819 603.5,273.5 Z" />
	</g>
	<g>
		<path style="opacity:0.428" fill="#fffefb" d="M 310.5,276.5 C 326.153,281.499 341.153,287.832 355.5,295.5C 354.185,297.316 352.685,298.983 351,300.5C 346.77,297.957 342.27,296.457 337.5,296C 333.318,300.015 329.318,304.182 325.5,308.5C 327.167,312.5 328.833,316.5 330.5,320.5C 329.167,322.5 327.5,324.167 325.5,325.5C 318.502,311.358 312.169,296.858 306.5,282C 307.65,280.019 308.984,278.186 310.5,276.5 Z M 314.5,285.5 C 314.56,284.957 314.893,284.624 315.5,284.5C 321.008,287.283 326.674,289.783 332.5,292C 329.318,295.349 325.985,298.516 322.5,301.5C 320.012,296.01 317.346,290.677 314.5,285.5 Z" />
	</g>
	<g>
		<path style="opacity:1" fill="#ffe27f" d="M 641.5,288.5 C 647.08,290.918 647.58,293.918 643,297.5C 641.315,295.983 639.815,294.316 638.5,292.5C 639.524,291.148 640.524,289.815 641.5,288.5 Z" />
	</g>
	<g>
		<path style="opacity:1" fill="#ffe383" d="M 879.5,314.5 C 878.4,315.605 877.733,316.938 877.5,318.5C 877.167,318.5 876.833,318.5 876.5,318.5C 873.848,314.81 870.848,312.144 867.5,310.5C 869.874,314.595 872.207,318.595 874.5,322.5C 874.5,323.167 874.5,323.833 874.5,324.5C 873.272,325.306 872.272,326.306 871.5,327.5C 868.026,320.228 864.86,312.894 862,305.5C 863.167,304.333 864.333,303.167 865.5,302C 870.823,305.141 875.49,309.308 879.5,314.5 Z" />
	</g>
	<g>
		<path style="opacity:1" fill="#ffe280" d="M 572.5,304.5 C 574.681,304.284 576.347,305.117 577.5,307C 570.985,313.348 564.652,319.848 558.5,326.5C 561.5,330.167 564.833,333.5 568.5,336.5C 574.833,330.833 580.833,324.833 586.5,318.5C 588.475,319.275 589.309,320.609 589,322.5C 583.121,328.043 577.621,333.877 572.5,340C 575.341,344.521 579.008,347.854 583.5,350C 590,343.5 596.5,337 603,330.5C 604.167,331.667 605.333,332.833 606.5,334C 598.625,342.21 590.458,350.044 582,357.5C 571.167,348 561,337.833 551.5,327C 558.326,319.341 565.326,311.841 572.5,304.5 Z" />
	</g>
	<g>
		<path style="opacity:0.409" fill="#fffefb" d="M -0.5,304.5 C 2.25293,305.022 4.9196,305.856 7.5,307C 6.18107,309.285 4.68107,311.452 3,313.5C 1.88732,312.695 0.72065,312.028 -0.5,311.5C -0.5,309.167 -0.5,306.833 -0.5,304.5 Z" />
	</g>
	<g>
		<path style="opacity:0.964" fill="#ffcc24" d="M 876.5,318.5 C 876.34,320.153 875.674,321.486 874.5,322.5C 872.207,318.595 869.874,314.595 867.5,310.5C 870.848,312.144 873.848,314.81 876.5,318.5 Z" />
	</g>
	<g>
		<path style="opacity:1" fill="#fff081" d="M 879.5,314.5 C 879.833,314.5 880.167,314.5 880.5,314.5C 885.797,320.298 891.297,325.965 897,331.5C 897.167,334 896,335.167 893.5,335C 887.964,329.631 882.63,324.131 877.5,318.5C 877.733,316.938 878.4,315.605 879.5,314.5 Z" />
	</g>
	<g>
		<path style="opacity:0.42" fill="#fffefc" d="M -0.5,351.5 C -0.5,349.167 -0.5,346.833 -0.5,344.5C 6.47967,345.565 11.9797,343.231 16,337.5C 17.4014,332.892 17.9014,328.392 17.5,324C 23.0129,321.404 25.3462,323.238 24.5,329.5C 22.7734,344.919 14.4401,352.253 -0.5,351.5 Z" />
	</g>
	<g>
		<path style="opacity:1" fill="#ffe67f" d="M 874.5,324.5 C 877.594,330.234 880.428,336.234 883,342.5C 883.977,345.259 883.144,347.259 880.5,348.5C 875.133,346.105 869.8,343.772 864.5,341.5C 859.413,338.208 853.913,335.541 848,333.5C 851.477,339.158 855.977,344.158 861.5,348.5C 864.964,351.462 868.297,354.629 871.5,358C 870.184,360.833 868.184,361.666 865.5,360.5C 862.785,357.785 860.119,355.119 857.5,352.5C 851.203,345.702 844.703,339.035 838,332.5C 837.696,329.287 839.196,327.287 842.5,326.5C 851.003,329.591 859.336,332.924 867.5,336.5C 870.767,338.304 874.1,339.804 877.5,341C 875.345,337.187 873.345,333.354 871.5,329.5C 871.5,328.833 871.5,328.167 871.5,327.5C 872.272,326.306 873.272,325.306 874.5,324.5 Z" />
	</g>
	<g>
		<path style="opacity:1" fill="#ffe111" d="M 871.5,329.5 C 873.345,333.354 875.345,337.187 877.5,341C 874.1,339.804 870.767,338.304 867.5,336.5C 868.079,333.669 869.412,331.336 871.5,329.5 Z" />
	</g>
	<g>
		<path style="opacity:0.983" fill="#ffcb1f" d="M 864.5,341.5 C 862.707,343.426 861.707,345.759 861.5,348.5C 855.977,344.158 851.477,339.158 848,333.5C 853.913,335.541 859.413,338.208 864.5,341.5 Z" />
	</g>
	<g>
		<path style="opacity:1" fill="#ffe281" d="M 542.5,335.5 C 553.62,344.786 563.954,354.953 573.5,366C 573.046,367.622 572.046,368.788 570.5,369.5C 565.833,365.5 561.5,361.167 557.5,356.5C 556.5,355.167 555.5,355.167 554.5,356.5C 549.5,361.833 544.5,367.167 539.5,372.5C 543.985,377.485 548.651,382.319 553.5,387C 552.315,388.353 550.981,389.52 549.5,390.5C 538.833,380.5 528.5,370.167 518.5,359.5C 519.427,357.054 521.094,356.221 523.5,357C 527.167,360.667 530.833,364.333 534.5,368C 541.141,363.54 547.141,358.04 552.5,351.5C 548.182,347.682 544.015,343.682 540,339.5C 540.193,337.918 541.026,336.584 542.5,335.5 Z" />
	</g>
	<g>
		<path style="opacity:1" fill="#ffe281" d="M 852.5,361.5 C 852.5,362.167 852.5,362.833 852.5,363.5C 850.926,364.984 849.593,366.651 848.5,368.5C 845.255,356.052 837.255,350.219 824.5,351C 814.303,355.531 811.136,363.031 815,373.5C 819.729,381.783 826.895,385.783 836.5,385.5C 837.376,385.369 838.043,385.702 838.5,386.5C 837.82,387.86 837.153,389.193 836.5,390.5C 830.928,391.01 825.595,390.177 820.5,388C 803.618,374.988 803.285,361.654 819.5,348C 834.32,343.075 845.32,347.575 852.5,361.5 Z" />
	</g>
	<g>
		<path style="opacity:0.997" fill="#ffc911" d="M 848.5,368.5 C 847.607,376.388 843.607,382.055 836.5,385.5C 826.895,385.783 819.729,381.783 815,373.5C 811.136,363.031 814.303,355.531 824.5,351C 837.255,350.219 845.255,356.052 848.5,368.5 Z" />
	</g>
	<g>
		<path style="opacity:1" fill="#ffed7d" d="M 852.5,363.5 C 854.723,376.694 849.389,385.694 836.5,390.5C 837.153,389.193 837.82,387.86 838.5,386.5C 838.043,385.702 837.376,385.369 836.5,385.5C 843.607,382.055 847.607,376.388 848.5,368.5C 849.593,366.651 850.926,364.984 852.5,363.5 Z" />
	</g>
	<g>
		<path style="opacity:1" fill="#ffe281" d="M 507.5,372.5 C 521.186,372.208 525.853,378.542 521.5,391.5C 528.404,393.749 535.404,395.749 542.5,397.5C 541.408,399.596 539.741,400.929 537.5,401.5C 530.946,399.903 524.446,398.237 518,396.5C 515,399.5 512,402.5 509,405.5C 508.333,406.167 508.333,406.833 509,407.5C 513.016,411.348 516.849,415.348 520.5,419.5C 519.52,420.981 518.353,422.315 517,423.5C 506.652,413.319 496.486,402.986 486.5,392.5C 492.257,384.407 499.257,377.74 507.5,372.5 Z" />
	</g>
	<g>
		<path style="opacity:0.422" fill="#fffefc" d="M 217.5,434.5 C 216.833,434.5 216.5,434.833 216.5,435.5C 216.5,436.167 216.167,436.5 215.5,436.5C 205.924,425.42 195.757,414.753 185,404.5C 185.791,401.357 187.791,399.024 191,397.5C 201.658,402.756 212.491,407.256 223.5,411C 218.701,400.283 213.701,389.616 208.5,379C 210.667,376.833 212.833,374.667 215,372.5C 225.681,383.014 236.181,393.681 246.5,404.5C 245.284,407.25 243.284,408.417 240.5,408C 234,401.5 227.5,395 221,388.5C 224.741,398.354 228.908,408.188 233.5,418C 232.5,419 231.5,420 230.5,421C 219.116,417.432 208.116,413.099 197.5,408C 205.167,415.667 212.833,423.333 220.5,431C 219.29,432.039 218.29,433.206 217.5,434.5 Z" />
	</g>
	<g>
		<path style="opacity:1" fill="#ffc812" d="M 507.5,377.5 C 516.365,377.847 519.532,382.181 517,390.5C 512.985,394.682 508.818,398.682 504.5,402.5C 500.5,399.167 496.833,395.5 493.5,391.5C 497.881,386.452 502.548,381.785 507.5,377.5 Z" />
	</g>
	<g>
		<path style="opacity:1" fill="#ffe281" d="M 791.5,378.5 C 795.375,378.085 799.042,378.585 802.5,380C 801.95,381.845 800.95,383.345 799.5,384.5C 790.637,382.684 784.47,386.017 781,394.5C 780.347,403.694 783.847,410.86 791.5,416C 808.399,420.258 816.399,413.758 815.5,396.5C 816.736,395.754 818.07,395.421 819.5,395.5C 821.496,407.343 817.162,416.177 806.5,422C 791.817,425.073 781.651,419.573 776,405.5C 774.99,399.936 775.657,394.602 778,389.5C 781.842,384.805 786.342,381.139 791.5,378.5 Z" />
	</g>
	<g>
		<path style="opacity:1" fill="#ffe281" d="M 476.5,401.5 C 477.552,401.351 478.552,401.517 479.5,402C 488.692,412.27 498.358,422.104 508.5,431.5C 507.5,433.167 506.167,434.5 504.5,435.5C 494.848,425.347 485.014,415.347 475,405.5C 474.7,403.934 475.2,402.601 476.5,401.5 Z" />
	</g>
	<g>
		<path style="opacity:0.437" fill="#fffefb" d="M 203.5,441.5 C 202.833,442.167 202.167,442.833 201.5,443.5C 199.716,443.893 198.05,444.559 196.5,445.5C 196.167,445.5 195.833,445.5 195.5,445.5C 195.965,441.208 195.132,437.208 193,433.5C 184.01,421.161 174.343,420.494 164,431.5C 161.184,440.715 163.684,448.215 171.5,454C 172.793,454.49 174.127,454.657 175.5,454.5C 174.833,455.167 174.167,455.833 173.5,456.5C 171.5,457.167 169.5,457.833 167.5,458.5C 166.833,458.833 166.167,459.167 165.5,459.5C 151.362,444.854 152.362,431.354 168.5,419C 180.985,414.499 191.152,417.666 199,428.5C 200.836,432.846 202.336,437.179 203.5,441.5 Z" />
	</g>
	<g>
		<path style="opacity:1" fill="#ffe280" d="M 749.5,417.5 C 751.292,425.945 753.292,434.445 755.5,443C 764.315,444.038 772.981,445.705 781.5,448C 780.018,450.49 777.852,451.657 775,451.5C 768.539,450.174 762.039,449.174 755.5,448.5C 756.777,456.149 757.61,463.816 758,471.5C 757,472.5 756,473.5 755,474.5C 752.666,465.66 751.166,456.66 750.5,447.5C 741.719,446.711 733.053,445.211 724.5,443C 725.839,440.984 727.672,439.817 730,439.5C 736.501,440.567 743.001,441.567 749.5,442.5C 748.76,436.464 747.76,430.464 746.5,424.5C 746.667,423.167 746.833,421.833 747,420.5C 748.045,419.627 748.878,418.627 749.5,417.5 Z" />
	</g>
	<g>
		<path style="opacity:1" fill="#ffe280" d="M 455.5,421.5 C 470.607,427.082 485.274,433.415 499.5,440.5C 498.663,442.505 497.163,443.505 495,443.5C 490.79,441.797 486.623,440.297 482.5,439C 478.333,443.167 474.167,447.333 470,451.5C 469.333,452.833 469.333,454.167 470,455.5C 471.757,458.684 473.257,462.018 474.5,465.5C 473.5,467.167 472.167,468.5 470.5,469.5C 463.869,455.723 457.869,441.556 452.5,427C 453.124,424.915 454.124,423.082 455.5,421.5 Z" />
	</g>
	<g>
		<path style="opacity:1" fill="#ffc917" d="M 457.5,426.5 C 464.195,430.514 471.195,434.014 478.5,437C 474.985,440.682 471.318,444.182 467.5,447.5C 463.791,440.72 460.457,433.72 457.5,426.5 Z" />
	</g>
	<g>
		<path style="opacity:1" fill="#ffe383" d="M 786.5,433.5 C 792.11,435.969 792.443,438.636 787.5,441.5C 782.691,439.257 782.357,436.591 786.5,433.5 Z" />
	</g>
	<g>
		<path style="opacity:1" fill="#ffe281" d="M 201.5,443.5 C 201.02,448.126 199.187,452.126 196,455.5C 187.159,464.713 177.659,465.713 167.5,458.5C 169.5,457.833 171.5,457.167 173.5,456.5C 184.741,460.045 192.408,456.378 196.5,445.5C 198.05,444.559 199.716,443.893 201.5,443.5 Z" />
	</g>
	<g>
		<path style="opacity:0.908" fill="#ffca21" d="M 195.5,445.5 C 195.833,445.5 196.167,445.5 196.5,445.5C 192.408,456.378 184.741,460.045 173.5,456.5C 174.167,455.833 174.833,455.167 175.5,454.5C 182.171,451.498 188.838,448.498 195.5,445.5 Z" />
	</g>
	<g>
		<path style="opacity:1" fill="#ffe48c" d="M 1023.5,457.5 C 1023.5,459.833 1023.5,462.167 1023.5,464.5C 1020.2,461.704 1017.04,458.704 1014,455.5C 1013.83,455.833 1013.67,456.167 1013.5,456.5C 1016.86,463.227 1020.2,469.894 1023.5,476.5C 1023.5,481.833 1023.5,487.167 1023.5,492.5C 1022.83,492.5 1022.5,492.167 1022.5,491.5C 1022.5,490.167 1022.5,488.833 1022.5,487.5C 1017.38,475.487 1012.04,463.487 1006.5,451.5C 1007.83,449.5 1009.5,447.833 1011.5,446.5C 1015.52,450.189 1019.52,453.855 1023.5,457.5 Z" />
	</g>
	<g>
		<path style="opacity:0.419" fill="#fffefc" d="M 130.5,475.5 C 130.5,475.833 130.5,476.167 130.5,476.5C 128.181,476.992 126.181,477.992 124.5,479.5C 124.167,479.5 123.833,479.5 123.5,479.5C 120.959,463.342 127.959,453.342 144.5,449.5C 152.564,449.535 153.898,452.035 148.5,457C 135.526,456.473 129.526,462.64 130.5,475.5 Z" />
	</g>
	<g>
		<path style="opacity:1" fill="#ffe280" d="M 717.5,449.5 C 719.681,449.284 721.347,450.117 722.5,452C 715.985,458.348 709.652,464.848 703.5,471.5C 706.199,475.033 709.366,478.033 713,480.5C 719.123,475.379 724.957,469.879 730.5,464C 733,463.833 734.167,465 734,467.5C 728.167,473.333 722.333,479.167 716.5,485C 720.015,488.682 723.682,492.182 727.5,495.5C 733.857,487.964 740.857,481.464 748.5,476C 749.357,476.689 750.023,477.522 750.5,478.5C 742.833,486.833 734.833,494.833 726.5,502.5C 716.014,492.514 705.681,482.348 695.5,472C 703.036,464.632 710.369,457.132 717.5,449.5 Z" />
	</g>
	<g>
		<path style="opacity:0.791" fill="#ffca19" d="M 1023.5,464.5 C 1023.5,468.5 1023.5,472.5 1023.5,476.5C 1020.2,469.894 1016.86,463.227 1013.5,456.5C 1013.67,456.167 1013.83,455.833 1014,455.5C 1017.04,458.704 1020.2,461.704 1023.5,464.5 Z" />
	</g>
	<g>
		<path style="opacity:1" fill="#ffe281" d="M 124.5,479.5 C 126.181,477.992 128.181,476.992 130.5,476.5C 132.73,483.462 137.396,487.962 144.5,490C 158.585,490.336 164.752,483.502 163,469.5C 164.388,468.446 165.888,468.28 167.5,469C 168.835,473.508 168.669,478.008 167,482.5C 160.557,493.762 151.057,497.595 138.5,494C 132.579,490.278 127.912,485.445 124.5,479.5 Z" />
	</g>
	<g>
		<path style="opacity:1" fill="#ffe280" d="M 1022.5,487.5 C 1022.5,488.833 1022.5,490.167 1022.5,491.5C 1012.71,487.439 1003.04,483.105 993.5,478.5C 993.167,478.833 992.833,479.167 992.5,479.5C 999.819,487.319 1007.32,494.986 1015,502.5C 1015.31,504.391 1014.48,505.725 1012.5,506.5C 1002.01,496.514 991.681,486.348 981.5,476C 983.35,473.982 985.35,472.149 987.5,470.5C 999.395,475.721 1011.06,481.388 1022.5,487.5 Z" />
	</g>
	<g>
		<path style="opacity:1" fill="#ffe282" d="M 686.5,480.5 C 687.552,480.351 688.552,480.517 689.5,481C 699.348,490.681 709.014,500.514 718.5,510.5C 717.52,511.981 716.353,513.315 715,514.5C 710.319,509.651 705.485,504.985 700.5,500.5C 695.181,505.318 690.015,510.318 685,515.5C 684.333,516.5 684.333,517.5 685,518.5C 689.349,522.682 693.515,527.015 697.5,531.5C 696.52,532.981 695.353,534.315 694,535.5C 683.652,525.319 673.486,514.986 663.5,504.5C 664.48,503.019 665.647,501.685 667,500.5C 671.348,505.015 675.848,509.349 680.5,513.5C 686.319,508.182 691.985,502.682 697.5,497C 693.333,492.833 689.167,488.667 685,484.5C 684.7,482.934 685.2,481.601 686.5,480.5 Z" />
	</g>
	<g>
		<path style="opacity:0.226" fill="#fefffe" d="M 99.5,490.5 C 98.8333,490.5 98.5,490.833 98.5,491.5C 97.8333,491.5 97.1667,491.5 96.5,491.5C 97.221,489.618 98.221,489.285 99.5,490.5 Z" />
	</g>
	<g>
		<path style="opacity:1" fill="#ffe280" d="M 971.5,489.5 C 984.416,490.049 993.249,496.382 998,508.5C 999.106,521.403 993.606,530.236 981.5,535C 962.039,535.539 952.539,526.039 953,506.5C 956.85,498.183 963.016,492.516 971.5,489.5 Z" />
	</g>
	<g>
		<path style="opacity:1" fill="#ffe280" d="M 96.5,491.5 C 97.1667,491.5 97.8333,491.5 98.5,491.5C 99.9283,499.285 101.595,507.119 103.5,515C 112.5,516.667 121.5,518.333 130.5,520C 128.898,522.111 126.898,523.611 124.5,524.5C 117.585,522.65 110.585,521.317 103.5,520.5C 104.508,527.899 105.841,535.232 107.5,542.5C 106.185,544.316 104.685,545.983 103,547.5C 101.336,538.182 99.8356,528.848 98.5,519.5C 90.0993,518.687 81.766,517.354 73.5,515.5C 74.5919,513.404 76.2586,512.071 78.5,511.5C 84.7559,513.043 91.0893,514.043 97.5,514.5C 96.583,507.996 95.583,501.496 94.5,495C 94.7432,494.098 95.0766,493.265 95.5,492.5C 95.5,491.833 95.8333,491.5 96.5,491.5 Z" />
	</g>
	<g>
		<path style="opacity:1" fill="#ffc812" d="M 969.5,495.5 C 983.209,495.202 991.209,501.869 993.5,515.5C 987.252,532.198 977.252,534.865 963.5,523.5C 954.146,511.61 956.146,502.277 969.5,495.5 Z" />
	</g>
	<g>
		<path style="opacity:1" fill="#ffe280" d="M 133.5,506.5 C 139.912,507.69 140.745,510.357 136,514.5C 134.315,512.983 132.815,511.316 131.5,509.5C 132.193,508.482 132.859,507.482 133.5,506.5 Z" />
	</g>
	<g>
		<path style="opacity:1" fill="#ffe281" d="M 652.5,517.5 C 666.263,517.811 670.93,524.478 666.5,537.5C 673.521,538.838 680.521,540.338 687.5,542C 685.983,543.685 684.316,545.185 682.5,546.5C 675.516,544.538 668.516,543.038 661.5,542C 658.449,544.714 655.782,547.714 653.5,551C 657.119,555.622 661.119,559.955 665.5,564C 664.315,565.353 662.981,566.52 661.5,567.5C 651.514,558.014 641.681,548.348 632,538.5C 631.333,537.5 631.333,536.5 632,535.5C 638.138,528.517 644.971,522.517 652.5,517.5 Z" />
	</g>
	<g>
		<path style="opacity:1" fill="#ffe280" d="M 358.5,518.5 C 369.76,528.091 380.427,538.425 390.5,549.5C 389.725,551.475 388.391,552.309 386.5,552C 378,543.5 369.5,535 361,526.5C 365.972,537.373 370.972,548.373 376,559.5C 376.743,561.441 376.576,563.274 375.5,565C 372.076,564.639 368.742,563.639 365.5,562C 356.102,557.884 346.936,553.384 338,548.5C 345.771,557.28 354.105,565.947 363,574.5C 363.854,576.607 363.188,577.941 361,578.5C 350.361,569.028 340.194,559.028 330.5,548.5C 331.22,545.613 333.053,543.947 336,543.5C 346.296,548.396 356.796,552.896 367.5,557C 369.762,560.342 370.595,560.175 370,556.5C 364.837,545.684 359.67,534.851 354.5,524C 355.721,521.966 357.055,520.133 358.5,518.5 Z" />
	</g>
	<g>
		<path style="opacity:1" fill="#ffe281" d="M 66.5,521.5 C 69.0014,521.826 70.1681,523.159 70,525.5C 63.9855,531.682 57.8188,537.682 51.5,543.5C 54.5,547.167 57.8333,550.5 61.5,553.5C 67.8188,547.682 73.9855,541.682 80,535.5C 82.2609,536.772 82.7609,538.438 81.5,540.5C 75.6366,545.529 70.3033,551.029 65.5,557C 68.3414,561.521 72.0081,564.854 76.5,567C 82.5,561 88.5,555 94.5,549C 96.6614,548.278 98.328,548.945 99.5,551C 91.3333,559.167 83.1667,567.333 75,575.5C 64.6524,565.319 54.4857,554.986 44.5,544.5C 51.8548,536.813 59.1881,529.146 66.5,521.5 Z" />
	</g>
	<g>
		<path style="opacity:1" fill="#ffc811" d="M 652.5,522.5 C 661.291,522.785 664.458,527.118 662,535.5C 657.985,539.682 653.818,543.682 649.5,547.5C 645.5,544.167 641.833,540.5 638.5,536.5C 642.881,531.452 647.548,526.785 652.5,522.5 Z" />
	</g>
	<g>
		<path style="opacity:1" fill="#ffe280" d="M 934.5,523.5 C 939.032,523.069 943.365,523.569 947.5,525C 946.643,525.689 945.977,526.522 945.5,527.5C 931.106,527.389 924.606,534.389 926,548.5C 931.593,561.05 940.76,564.884 953.5,560C 958.628,554.976 960.961,548.81 960.5,541.5C 961.736,540.754 963.07,540.421 964.5,540.5C 966.537,550.846 963.204,559.012 954.5,565C 947.217,569.655 939.884,569.655 932.5,565C 914.79,550.174 915.457,536.341 934.5,523.5 Z" />
	</g>
	<g>
		<path style="opacity:1" fill="#ffe283" d="M 621.5,545.5 C 631.751,555.249 641.917,565.249 652,575.5C 652.167,578 651,579.167 648.5,579C 638.653,568.986 628.653,559.152 618.5,549.5C 619.524,548.148 620.524,546.815 621.5,545.5 Z" />
	</g>
	<g>
		<path style="opacity:1" fill="#ffe281" d="M 37.5,583.5 C 35.5853,583.784 33.9187,583.451 32.5,582.5C 37.1456,578.521 41.479,574.188 45.5,569.5C 41.3487,564.848 37.0153,560.348 32.5,556C 33.6853,554.647 35.0186,553.48 36.5,552.5C 46.9859,562.486 57.3192,572.652 67.5,583C 66.2343,584.983 64.5676,585.983 62.5,586C 58.2887,581.453 53.7887,577.286 49,573.5C 45.0107,576.656 41.1774,579.989 37.5,583.5 Z" />
	</g>
	<g>
		<path style="opacity:1" fill="#ffe280" d="M 317.5,562.5 C 327.408,561.536 335.575,564.87 342,572.5C 350.364,589.064 345.864,600.897 328.5,608C 314.432,607.871 305.265,601.037 301,587.5C 300.421,582.484 301.421,577.817 304,573.5C 307.819,568.833 312.319,565.166 317.5,562.5 Z" />
	</g>
	<g>
		<path style="opacity:1" fill="#ffe280" d="M 894.5,562.5 C 896.498,570.793 898.498,579.127 900.5,587.5C 909.3,589.036 917.967,590.869 926.5,593C 925.161,595.016 923.328,596.183 921,596.5C 914.328,595.166 907.662,593.832 901,592.5C 900.5,592.833 900,593.167 899.5,593.5C 900.971,600.292 902.304,607.125 903.5,614C 903.183,616.328 902.016,618.161 900,619.5C 897.604,610.675 896.104,601.675 895.5,592.5C 886.768,591.419 878.101,589.919 869.5,588C 871.061,585.269 873.394,584.103 876.5,584.5C 882.204,585.374 887.87,586.374 893.5,587.5C 893.828,580.822 892.828,574.155 890.5,567.5C 891.857,565.814 893.19,564.148 894.5,562.5 Z" />
	</g>
	<g>
		<path style="opacity:1" fill="#ffe280" d="M 600.5,566.5 C 615.25,572.372 629.916,578.539 644.5,585C 643.223,586.786 641.556,587.952 639.5,588.5C 635.687,586.287 631.687,584.787 627.5,584C 623.333,588.167 619.167,592.333 615,596.5C 614.333,597.833 614.333,599.167 615,600.5C 616.658,603.309 617.825,606.309 618.5,609.5C 617.151,614.118 615.317,614.452 613,610.5C 607.895,597.188 602.395,584.021 596.5,571C 598.041,569.629 599.375,568.129 600.5,566.5 Z" />
	</g>
	<g>
		<path style="opacity:1" fill="#ffc811" d="M 318.5,567.5 C 329.235,567.619 336.735,572.619 341,582.5C 341.677,596.822 334.843,603.322 320.5,602C 309.47,596.774 305.303,588.274 308,576.5C 310.505,572.189 314.005,569.189 318.5,567.5 Z" />
	</g>
	<g>
		<path style="opacity:1" fill="#ffe386" d="M 22.5,580.5 C 18.701,579.579 15.3677,577.912 12.5,575.5C 13.601,574.2 14.9343,573.7 16.5,574C 18.7059,576.037 20.7059,578.203 22.5,580.5 Z" />
	</g>
	<g>
		<path style="opacity:1" fill="#ffca1a" d="M 602.5,573.5 C 602.56,572.957 602.893,572.624 603.5,572.5C 609.78,575.479 616.114,578.146 622.5,580.5C 620.351,585.33 617.018,589.33 612.5,592.5C 609.019,586.244 605.686,579.911 602.5,573.5 Z" />
	</g>
	<g>
		<path style="opacity:0.43" fill="#fffefe" d="M 11.5,575.5 C 11.8333,575.5 12.1667,575.5 12.5,575.5C 15.3677,577.912 18.701,579.579 22.5,580.5C 23.391,581.11 24.391,581.443 25.5,581.5C 26.1667,581.5 26.5,581.833 26.5,582.5C 27.8333,585.167 29.1667,585.167 30.5,582.5C 31.1667,582.5 31.8333,582.5 32.5,582.5C 33.9187,583.451 35.5853,583.784 37.5,583.5C 37.5,584.167 37.8333,584.5 38.5,584.5C 36.5484,585.785 34.8818,587.451 33.5,589.5C 37.9848,594.485 42.6515,599.319 47.5,604C 45.9825,605.685 44.3159,607.185 42.5,608.5C 31.6807,598.181 21.0141,587.681 10.5,577C 11.056,576.617 11.3893,576.117 11.5,575.5 Z M 26.5,582.5 C 27.8333,582.5 29.1667,582.5 30.5,582.5C 29.1667,585.167 27.8333,585.167 26.5,582.5 Z" />
	</g>
	<g>
		<path style="opacity:1" fill="#ffe282" d="M 930.5,578.5 C 936.651,580.48 937.317,583.147 932.5,586.5C 930.833,585.5 929.5,584.167 928.5,582.5C 929.63,581.378 930.297,580.044 930.5,578.5 Z" />
	</g>
	<g>
		<path style="opacity:0.43" fill="#fffefc" d="M -0.5,632.5 C -0.5,627.5 -0.5,622.5 -0.5,617.5C 4.9223,613.922 8.58896,609.089 10.5,603C 9.09042,596.295 5.42375,594.461 -0.5,597.5C -0.5,594.833 -0.5,592.167 -0.5,589.5C 9.44713,587.432 15.4471,591.432 17.5,601.5C 17.5189,604.206 16.8522,606.706 15.5,609C 22.7883,609.774 30.1217,611.44 37.5,614C 35.5709,616.438 33.2376,618.272 30.5,619.5C 23.8873,618.146 17.3873,616.479 11,614.5C 7.98376,617.349 5.15043,620.349 2.5,623.5C 6.5,627.833 10.5,632.167 14.5,636.5C 13.1667,638.5 11.5,640.167 9.5,641.5C 6.14672,638.478 2.81338,635.478 -0.5,632.5 Z" />
	</g>
	<g>
		<path style="opacity:1" fill="#ffe281" d="M 284.5,595.5 C 287.518,595.335 290.518,595.502 293.5,596C 294.308,596.308 294.975,596.808 295.5,597.5C 294.399,601.142 292.233,602.142 289,600.5C 278.011,602.159 273.011,608.492 274,619.5C 278.555,631.522 287.055,636.355 299.5,634C 307.296,629.579 309.962,623.079 307.5,614.5C 309.045,613.548 310.712,613.215 312.5,613.5C 314.727,623.317 311.727,631.151 303.5,637C 290.49,643.553 279.99,640.72 272,628.5C 265.73,616.86 267.896,607.027 278.5,599C 280.727,598.059 282.727,596.892 284.5,595.5 Z" />
	</g>
	<g>
		<path style="opacity:1" fill="#ffe282" d="M 863.5,593.5 C 865.022,594.191 866.022,595.358 866.5,597C 860.5,603.333 854.5,609.667 848.5,616C 851,619.833 854.167,623 858,625.5C 864.123,620.379 869.957,614.879 875.5,609C 878.091,608.699 878.925,609.866 878,612.5C 872.318,618.015 866.818,623.681 861.5,629.5C 864.317,632.818 867.317,635.985 870.5,639C 871.5,639.667 872.5,639.667 873.5,639C 879.5,633 885.5,627 891.5,621C 893.391,620.691 894.725,621.525 895.5,623.5C 887.833,631.833 879.833,639.833 871.5,647.5C 861.014,637.514 850.681,627.348 840.5,617C 848.369,609.298 856.036,601.465 863.5,593.5 Z" />
	</g>
	<g>
		<path style="opacity:1" fill="#ffe282" d="M 832.5,624.5 C 843.146,634.479 853.479,644.812 863.5,655.5C 862.52,656.981 861.353,658.315 860,659.5C 855.319,654.651 850.485,649.985 845.5,645.5C 839.833,650.833 834.167,656.167 828.5,661.5C 832.818,666.319 837.318,670.985 842,675.5C 841.983,677.568 840.983,679.234 839,680.5C 828.652,670.319 818.486,659.986 808.5,649.5C 809.48,648.019 810.647,646.685 812,645.5C 816.348,650.015 820.848,654.349 825.5,658.5C 830.515,653.318 835.681,648.318 841,643.5C 841.667,642.5 841.667,641.5 841,640.5C 836.984,636.652 833.151,632.652 829.5,628.5C 830.524,627.148 831.524,625.815 832.5,624.5 Z" />
	</g>
	<g>
		<path style="opacity:0.428" fill="#fffefc" d="M 243.5,633.5 C 245.474,641.652 247.14,649.985 248.5,658.5C 250.012,659.862 251.512,660.196 253,659.5C 256.667,660.5 260.333,661.5 264,662.5C 264.333,662.167 264.667,661.833 265,661.5C 268.491,662.434 271.991,663.434 275.5,664.5C 273.966,667.379 271.633,669.045 268.5,669.5C 261.891,667.897 255.224,667.064 248.5,667C 250.33,673.655 251.663,680.155 252.5,686.5C 251.272,689.238 249.438,691.571 247,693.5C 245.359,684.512 243.859,675.512 242.5,666.5C 233.944,664.252 225.277,662.419 216.5,661C 218.429,658.562 220.762,656.728 223.5,655.5C 229.701,657.083 235.701,658.083 241.5,658.5C 240.05,652.126 239.05,646.126 238.5,640.5C 239.769,637.895 241.436,635.562 243.5,633.5 Z" />
	</g>
	<g>
		<path style="opacity:0.339" fill="#fffdf8" d="M -0.5,645.5 C 3.5,647.5 3.5,649.5 -0.5,651.5C -0.5,649.5 -0.5,647.5 -0.5,645.5 Z" />
	</g>
	<g>
		<path style="opacity:0.415" fill="#fffdf9" d="M 279.5,649.5 C 286.866,652.212 287.199,655.545 280.5,659.5C 278.5,658.167 276.833,656.5 275.5,654.5C 276.857,652.814 278.19,651.148 279.5,649.5 Z" />
	</g>
	<g>
		<path style="opacity:1" fill="#ffe281" d="M 799.5,661.5 C 811.707,663.779 815.707,670.779 811.5,682.5C 818.633,683.692 825.633,685.192 832.5,687C 830.939,689.731 828.606,690.897 825.5,690.5C 819.205,688.896 812.871,687.729 806.5,687C 803.449,689.714 800.782,692.714 798.5,696C 802.119,700.622 806.119,704.955 810.5,709C 809.315,710.353 807.981,711.52 806.5,712.5C 796.014,702.514 785.681,692.348 775.5,682C 781.167,676.333 786.833,670.667 792.5,665C 794.713,663.384 797.047,662.217 799.5,661.5 Z" />
	</g>
	<g>
		<path style="opacity:1" fill="#ffe282" d="M 515.5,694.5 C 513.958,693.699 512.292,693.366 510.5,693.5C 507.128,685.085 503.462,676.752 499.5,668.5C 500.833,666.5 502.5,664.833 504.5,663.5C 514.986,673.486 525.319,683.652 535.5,694C 534.333,695.167 533.167,696.333 532,697.5C 523.333,688.833 514.667,680.167 506,671.5C 509.637,678.799 512.803,686.465 515.5,694.5 Z" />
	</g>
	<g>
		<path style="opacity:0.445" fill="#fffefd" d="M 211.5,665.5 C 214.524,665.364 216.024,666.698 216,669.5C 209.652,675.681 203.485,682.014 197.5,688.5C 200.167,691.833 203.167,694.833 206.5,697.5C 212.819,691.682 218.986,685.682 225,679.5C 226.983,680.766 227.983,682.432 228,684.5C 222.167,690.333 216.333,696.167 210.5,702C 213.5,705 216.5,708 219.5,711C 220.167,711.667 220.833,711.667 221.5,711C 228,704.5 234.5,698 241,691.5C 242.353,692.685 243.52,694.019 244.5,695.5C 236.5,704.167 228.167,712.5 219.5,720.5C 208.833,710.5 198.5,700.167 188.5,689.5C 196.188,681.479 203.855,673.479 211.5,665.5 Z" />
	</g>
	<g>
		<path style="opacity:1" fill="#ffc917" d="M 797.5,667.5 C 807.438,667.986 810.272,672.653 806,681.5C 802.318,685.349 798.485,689.016 794.5,692.5C 790.301,689.136 786.635,685.302 783.5,681C 787.39,675.609 792.056,671.109 797.5,667.5 Z" />
	</g>
	<g>
		<path style="opacity:0.424" fill="#fffefd" d="M 480.5,686.5 C 480.833,686.5 481.167,686.5 481.5,686.5C 482.167,686.5 482.5,686.833 482.5,687.5C 492.369,693.068 502.703,697.568 513.5,701C 512.551,698.266 511.217,695.766 509.5,693.5C 509.833,693.5 510.167,693.5 510.5,693.5C 512.292,693.366 513.958,693.699 515.5,694.5C 516.609,694.557 517.609,694.89 518.5,695.5C 519.68,699.365 521.013,703.199 522.5,707C 521.73,708.775 520.563,710.275 519,711.5C 508.547,706.514 498.047,702.014 487.5,698C 494.667,705.167 501.833,712.333 509,719.5C 508.95,721.752 507.784,723.418 505.5,724.5C 494.681,714.181 484.014,703.681 473.5,693C 475.729,690.6 478.063,688.433 480.5,686.5 Z" />
	</g>
	<g>
		<path style="opacity:1" fill="#ffe384" d="M 766.5,690.5 C 776.798,700.298 786.965,710.298 797,720.5C 797.167,723 796,724.167 793.5,724C 783.5,714 773.5,704 763.5,694C 764.71,692.961 765.71,691.794 766.5,690.5 Z" />
	</g>
	<g>
		<path style="opacity:0.422" fill="#fffefd" d="M 180.5,696.5 C 191.76,706.091 202.427,716.425 212.5,727.5C 211.167,729.5 209.5,731.167 207.5,732.5C 202.791,727.959 198.291,723.292 194,718.5C 189,723.5 184,728.5 179,733.5C 178.333,734.167 178.333,734.833 179,735.5C 183.349,739.682 187.515,744.015 191.5,748.5C 190.185,750.316 188.685,751.983 187,753.5C 176.5,743 166,732.5 155.5,722C 157.017,720.315 158.684,718.815 160.5,717.5C 164.818,721.318 168.985,725.318 173,729.5C 178.167,724.333 183.333,719.167 188.5,714C 184.655,709.655 180.655,705.488 176.5,701.5C 177.857,699.814 179.19,698.148 180.5,696.5 Z" />
	</g>
	<g>
		<path style="opacity:0.432" fill="#fffefb" d="M 462.5,706.5 C 479.49,705.982 489.49,714.149 492.5,731C 488.463,750.02 477.13,756.686 458.5,751C 441.709,739.083 440.375,725.75 454.5,711C 457.191,709.395 459.858,707.895 462.5,706.5 Z M 462.5,713.5 C 473.482,713.086 480.982,718.086 485,728.5C 485.701,731.928 485.368,735.262 484,738.5C 473.45,749.523 463.45,748.856 454,736.5C 451.516,732.268 451.182,727.935 453,723.5C 455.696,719.639 458.863,716.306 462.5,713.5 Z" />
	</g>
	<g>
		<path style="opacity:1" fill="#ffe281" d="M 745.5,711.5 C 760.425,717.193 775.092,723.36 789.5,730C 788.275,731.563 786.775,732.73 785,733.5C 780.787,731.765 776.62,730.265 772.5,729C 768.333,733.167 764.167,737.333 760,741.5C 760.118,746.203 761.285,750.703 763.5,755C 762.73,756.775 761.563,758.275 760,759.5C 753.829,744.983 747.662,730.483 741.5,716C 743.041,714.629 744.375,713.129 745.5,711.5 Z" />
	</g>
	<g>
		<path style="opacity:1" fill="#ffca1c" d="M 747.5,716.5 C 754.357,719.761 761.024,723.261 767.5,727C 764.527,731.815 760.527,735.315 755.5,737.5C 752.833,730.5 750.167,723.5 747.5,716.5 Z" />
	</g>
	<g>
		<path style="opacity:1" fill="#ffe48b" d="M 1022.5,728.5 C 1022.83,728.5 1023.17,728.5 1023.5,728.5C 1023.5,730.833 1023.5,733.167 1023.5,735.5C 1023.17,735.5 1022.83,735.5 1022.5,735.5C 1019.94,734.515 1017.28,733.515 1014.5,732.5C 1016.17,731.12 1017.84,729.787 1019.5,728.5C 1020.82,729.154 1021.82,729.154 1022.5,728.5 Z" />
	</g>
	<g>
		<path style="opacity:0.434" fill="#fffefc" d="M 146.5,733.5 C 155.418,733.418 160.752,737.751 162.5,746.5C 162.558,749.047 161.891,751.38 160.5,753.5C 167.254,754.935 174.254,756.602 181.5,758.5C 179.833,760.833 177.833,762.833 175.5,764.5C 168.835,762.919 162.501,761.252 156.5,759.5C 152.604,762.206 149.77,765.539 148,769.5C 151.833,773.333 155.667,777.167 159.5,781C 157.667,782.833 155.833,784.667 154,786.5C 143.5,776 133,765.5 122.5,755C 129.824,746.83 137.824,739.663 146.5,733.5 Z M 145.5,740.5 C 155.158,741.146 157.491,745.813 152.5,754.5C 149.151,757.682 145.984,761.015 143,764.5C 139.318,760.985 135.818,757.318 132.5,753.5C 136.548,748.785 140.881,744.452 145.5,740.5 Z" />
	</g>
	<g>
		<path style="opacity:0.427" fill="#fffefc" d="M 429.5,739.5 C 432.85,739.335 436.183,739.502 439.5,740C 441.46,742.285 441.126,744.618 438.5,747C 434.775,746.005 431.108,746.339 427.5,748C 416.765,757.537 417.098,766.871 428.5,776C 437.308,781.359 444.808,779.859 451,771.5C 452.663,767.216 452.996,762.883 452,758.5C 453.958,757.048 455.958,756.715 458,757.5C 460.59,771.108 455.09,780.608 441.5,786C 427.408,787.031 417.908,780.864 413,767.5C 411.568,754.026 417.068,744.692 429.5,739.5 Z" />
	</g>
	<g>
		<path style="opacity:1" fill="#ffe385" d="M 1022.5,753.5 C 1022.83,753.5 1023.17,753.5 1023.5,753.5C 1023.5,755.167 1023.5,756.833 1023.5,758.5C 1023.17,758.5 1022.83,758.5 1022.5,758.5C 1016.85,763.479 1011.52,768.812 1006.5,774.5C 1009.53,778.366 1013.03,781.699 1017,784.5C 1019.73,783.272 1021.56,781.272 1022.5,778.5C 1022.83,778.5 1023.17,778.5 1023.5,778.5C 1023.5,781.167 1023.5,783.833 1023.5,786.5C 1022.83,786.5 1022.5,786.833 1022.5,787.5C 1020.41,789.535 1018.08,791.035 1015.5,792C 1005.32,781.986 995.319,771.819 985.5,761.5C 993.5,754.167 1001.17,746.5 1008.5,738.5C 1010.48,739.275 1011.31,740.609 1011,742.5C 1005.33,748.167 999.667,753.833 994,759.5C 993.333,760.5 993.333,761.5 994,762.5C 996.682,765.35 999.516,768.016 1002.5,770.5C 1008.82,764.682 1014.99,758.682 1021,752.5C 1021.38,753.056 1021.88,753.389 1022.5,753.5 Z" />
	</g>
	<g>
		<path style="opacity:0.968" fill="#ffc916" d="M 1022.5,758.5 C 1022.2,761.059 1022.53,763.393 1023.5,765.5C 1023.5,765.833 1023.5,766.167 1023.5,766.5C 1022.52,770.298 1022.18,774.298 1022.5,778.5C 1021.56,781.272 1019.73,783.272 1017,784.5C 1013.03,781.699 1009.53,778.366 1006.5,774.5C 1011.52,768.812 1016.85,763.479 1022.5,758.5 Z" />
	</g>
	<g>
		<path style="opacity:0.417" fill="#fffefc" d="M 115.5,761.5 C 126.298,771.798 136.965,782.298 147.5,793C 145.667,794.833 143.833,796.667 142,798.5C 131.5,788 121,777.5 110.5,767C 112.373,765.296 114.04,763.463 115.5,761.5 Z" />
	</g>
	<g>
		<path style="opacity:1" fill="#ffe281" d="M 976.5,769.5 C 987.76,779.091 998.427,789.425 1008.5,800.5C 1007.56,801.974 1006.23,802.974 1004.5,803.5C 1000.01,799.515 995.682,795.349 991.5,791C 989.953,790.667 988.62,791.167 987.5,792.5C 983.015,797.485 978.349,802.319 973.5,807C 978,811.5 982.5,816 987,820.5C 986.917,822.285 985.917,823.618 984,824.5C 973.361,815.028 963.194,805.028 953.5,794.5C 954.5,793.167 955.5,791.833 956.5,790.5C 960.863,794.699 965.363,798.699 970,802.5C 975.623,797.879 980.956,792.879 986,787.5C 986.667,786.833 986.667,786.167 986,785.5C 982.333,781.833 978.667,778.167 975,774.5C 975.134,772.811 975.634,771.144 976.5,769.5 Z" />
	</g>
	<g>
		<path style="opacity:0.429" fill="#fffefb" d="M 387.5,778.5 C 388.725,779.152 389.392,780.319 389.5,782C 390.832,789.473 392.165,796.64 393.5,803.5C 402.535,805.394 411.535,807.394 420.5,809.5C 419.027,812.148 416.86,813.815 414,814.5C 407.256,813.348 400.589,812.015 394,810.5C 394.825,817.47 395.991,824.47 397.5,831.5C 396.589,834.082 394.923,836.082 392.5,837.5C 390.397,828.56 388.397,819.56 386.5,810.5C 378.139,808.961 369.806,807.295 361.5,805.5C 363.034,802.621 365.367,800.955 368.5,800.5C 374.482,801.688 380.482,802.688 386.5,803.5C 385.567,797.666 384.567,791.833 383.5,786C 383.667,784.833 383.833,783.667 384,782.5C 385.376,781.295 386.542,779.962 387.5,778.5 Z" />
	</g>
	<g>
		<path style="opacity:0.432" fill="#fffefc" d="M 93.5,783.5 C 109.165,788.868 124.165,794.868 138.5,801.5C 137.082,803.923 135.082,805.589 132.5,806.5C 128.777,805.221 125.277,803.554 122,801.5C 117.667,805.833 113.333,810.167 109,814.5C 108.333,815.833 108.333,817.167 109,818.5C 110.688,821.226 112.188,824.059 113.5,827C 111.667,828.833 109.833,830.667 108,832.5C 101.452,818.198 95.2854,803.698 89.5,789C 90.6502,787.019 91.9835,785.186 93.5,783.5 Z M 97.5,791.5 C 103.435,794.091 109.435,796.591 115.5,799C 112.318,802.349 108.985,805.516 105.5,808.5C 102.549,802.932 99.882,797.266 97.5,791.5 Z" />
	</g>
	<g>
		<path style="opacity:0.399" fill="#fffefb" d="M 424.5,794.5 C 431.866,797.212 432.199,800.545 425.5,804.5C 423.5,803.167 421.833,801.5 420.5,799.5C 421.857,797.814 423.19,796.148 424.5,794.5 Z" />
	</g>
	<g>
		<path style="opacity:0.425" fill="#fffefc" d="M 648.5,807.5 C 659.913,817.41 670.913,827.91 681.5,839C 679.92,841.295 677.92,842.628 675.5,843C 668.302,836.136 661.468,828.97 655,821.5C 654.333,822.5 654.333,823.5 655,824.5C 659.304,833.607 663.47,842.774 667.5,852C 666.73,853.775 665.563,855.275 664,856.5C 653.638,851.389 643.138,846.889 632.5,843C 639.667,850.167 646.833,857.333 654,864.5C 653.95,866.752 652.784,868.418 650.5,869.5C 639.681,859.181 629.014,848.681 618.5,838C 620.683,835.65 623.016,833.483 625.5,831.5C 635.965,836.735 646.631,841.402 657.5,845.5C 653.402,834.631 648.735,823.965 643.5,813.5C 645.19,811.481 646.856,809.481 648.5,807.5 Z" />
	</g>
	<g>
		<path style="opacity:1" fill="#ffe281" d="M 942.5,806.5 C 951.191,806.357 956.525,810.524 958.5,819C 957.923,821.657 956.923,824.157 955.5,826.5C 962.968,828.024 970.301,829.858 977.5,832C 976.13,833.924 974.296,835.091 972,835.5C 965.206,833.755 958.373,832.589 951.5,832C 948.5,835 945.5,838 942.5,841C 946.333,844.833 950.167,848.667 954,852.5C 954.741,855.112 953.741,856.778 951,857.5C 940.833,847.333 930.667,837.167 920.5,827C 927.48,819.51 934.814,812.677 942.5,806.5 Z" />
	</g>
	<g>
		<path style="opacity:0.462" fill="#fffefb" d="M 356.5,809.5 C 359.323,810.148 360.823,811.814 361,814.5C 354.833,820.667 348.667,826.833 342.5,833C 344.963,836.465 347.796,839.631 351,842.5C 356.833,836.667 362.667,830.833 368.5,825C 371.333,825.167 372.833,826.667 373,829.5C 367.167,835.333 361.333,841.167 355.5,847C 358.5,850 361.5,853 364.5,856C 365.167,856.667 365.833,856.667 366.5,856C 373,849.5 379.5,843 386,836.5C 387.353,837.685 388.52,839.019 389.5,840.5C 381.5,849.167 373.167,857.5 364.5,865.5C 353.639,855.472 343.305,844.972 333.5,834C 340.992,825.674 348.659,817.507 356.5,809.5 Z" />
	</g>
	<g>
		<path style="opacity:1" fill="#ffc811" d="M 940.5,812.5 C 950.56,811.716 954.06,816.049 951,825.5C 947,829.5 943,833.5 939,837.5C 935.167,833.667 931.333,829.833 927.5,826C 932.037,821.631 936.37,817.131 940.5,812.5 Z" />
	</g>
	<g>
		<path style="opacity:1" fill="#ffe283" d="M 910.5,835.5 C 921.371,844.866 931.871,854.866 942,865.5C 942.167,868 941,869.167 938.5,869C 928.5,859 918.5,849 908.5,839C 909.823,838.184 910.489,837.017 910.5,835.5 Z" />
	</g>
	<g>
		<path style="opacity:0.43" fill="#fffefc" d="M 325.5,840.5 C 336.479,850.812 347.146,861.479 357.5,872.5C 356.167,874.5 354.5,876.167 352.5,877.5C 347.818,872.985 343.318,868.319 339,863.5C 334,868.5 329,873.5 324,878.5C 323.333,879.167 323.333,879.833 324,880.5C 328.349,884.682 332.515,889.015 336.5,893.5C 335.185,895.316 333.685,896.983 332,898.5C 321.319,887.986 310.819,877.319 300.5,866.5C 301.815,864.684 303.315,863.017 305,861.5C 309.333,865.833 313.667,870.167 318,874.5C 323.167,869.333 328.333,864.167 333.5,859C 330,854.833 326.167,851 322,847.5C 321.333,846.5 321.333,845.5 322,844.5C 323.376,843.295 324.542,841.962 325.5,840.5 Z" />
	</g>
	<g>
		<path style="opacity:0.431" fill="#fffefc" d="M 607.5,851.5 C 623.157,850.644 633.157,857.81 637.5,873C 637.48,885.296 631.48,893.629 619.5,898C 602.423,898.928 592.423,890.928 589.5,874C 591.266,863.072 597.266,855.572 607.5,851.5 Z M 607.5,858.5 C 618.482,858.086 625.982,863.086 630,873.5C 630.364,881.505 626.864,887.339 619.5,891C 608.404,891.927 600.904,887.093 597,876.5C 596.134,867.893 599.634,861.893 607.5,858.5 Z" />
	</g>
	<g>
		<path style="opacity:1" fill="#ffe282" d="M 907.5,902.5 C 907.167,902.5 906.833,902.5 906.5,902.5C 905.564,901.026 904.23,900.026 902.5,899.5C 897.856,886.888 892.69,874.554 887,862.5C 887.395,859.718 889.061,857.718 892,856.5C 905.551,862.859 919.384,868.525 933.5,873.5C 933.723,876.114 932.556,877.781 930,878.5C 925.69,876.174 921.19,874.674 916.5,874C 912.333,878.167 908.167,882.333 904,886.5C 905.064,891.026 906.564,895.526 908.5,900C 908.257,900.902 907.923,901.735 907.5,902.5 Z" />
	</g>
	<g>
		<path style="opacity:1" fill="#ffca19" d="M 892.5,861.5 C 898.54,864.851 904.874,867.684 911.5,870C 912.451,870.718 912.617,871.551 912,872.5C 909.167,875.333 906.333,878.167 903.5,881C 902.5,881.667 901.5,881.667 900.5,881C 897.667,874.51 895,868.01 892.5,861.5 Z" />
	</g>
	<g>
		<path style="opacity:0.436" fill="#fffefc" d="M 290.5,878.5 C 299.692,877.857 305.358,882.023 307.5,891C 307.139,893.449 306.472,895.782 305.5,898C 312.451,899.761 319.451,901.594 326.5,903.5C 324.851,905.65 323.018,907.65 321,909.5C 314.613,907.521 308.113,905.854 301.5,904.5C 298.339,907.491 295.005,910.325 291.5,913C 295.833,917.333 300.167,921.667 304.5,926C 302.667,927.833 300.833,929.667 299,931.5C 288.319,920.986 277.819,910.319 267.5,899.5C 274.312,891.345 281.979,884.345 290.5,878.5 Z M 290.5,885.5 C 299.777,886.061 302.277,890.394 298,898.5C 294.651,902.016 291.151,905.349 287.5,908.5C 283.833,905.5 280.5,902.167 277.5,898.5C 281.548,893.785 285.881,889.452 290.5,885.5 Z" />
	</g>
	<g>
		<path style="opacity:0.423" fill="#fffefc" d="M -0.5,881.5 C 9.63173,891.131 19.6317,900.964 29.5,911C 27.92,913.295 25.92,914.628 23.5,915C 17,908.5 10.5,902 4,895.5C 7.09309,905.202 10.9264,914.702 15.5,924C 14.7082,925.96 13.3749,927.46 11.5,928.5C 7.34714,926.68 3.34714,924.68 -0.5,922.5C -0.5,920.167 -0.5,917.833 -0.5,915.5C 1.62447,917.174 3.9578,918.007 6.5,918C 4.35468,912.883 2.02135,908.383 -0.5,904.5C -0.5,896.833 -0.5,889.167 -0.5,881.5 Z" />
	</g>
	<g>
		<path style="opacity:0.428" fill="#fffefb" d="M 572.5,884.5 C 576.3,884.516 580.3,884.682 584.5,885C 585.308,885.308 585.975,885.808 586.5,886.5C 585.559,888.772 584.226,890.772 582.5,892.5C 575.562,890.425 570.062,892.425 566,898.5C 562.825,912.501 568.325,920.834 582.5,923.5C 594.515,921.092 599.182,914.092 596.5,902.5C 598.599,901.769 600.599,901.769 602.5,902.5C 605.444,918.942 598.444,928.609 581.5,931.5C 568.188,929.023 559.855,921.19 556.5,908C 557.971,897.564 563.304,889.731 572.5,884.5 Z" />
	</g>
	<g>
		<path style="opacity:0.369" fill="#fffefd" d="M 902.5,899.5 C 904.23,900.026 905.564,901.026 906.5,902.5C 906.189,903.478 905.522,904.145 904.5,904.5C 903.05,903.15 902.383,901.484 902.5,899.5 Z" />
	</g>
	<g>
		<path style="opacity:0.417" fill="#fffefc" d="M 259.5,906.5 C 270.913,916.41 281.913,926.91 292.5,938C 290.667,939.833 288.833,941.667 287,943.5C 276.667,933.167 266.333,922.833 256,912.5C 255.333,911.833 255.333,911.167 256,910.5C 257.376,909.295 258.542,907.962 259.5,906.5 Z" />
	</g>
	<g>
		<path style="opacity:0.43" fill="#fffefb" d="M 532.5,923.5 C 533.725,924.152 534.392,925.319 534.5,927C 535.602,934.219 536.936,941.386 538.5,948.5C 547.605,950.182 556.605,952.182 565.5,954.5C 564.027,957.148 561.86,958.815 559,959.5C 552.473,958.228 545.973,956.895 539.5,955.5C 539.765,962.613 540.765,969.78 542.5,977C 541.372,979.296 539.705,981.129 537.5,982.5C 536.808,981.975 536.308,981.308 536,980.5C 534.76,972.15 533.426,963.817 532,955.5C 523.493,953.998 514.993,952.331 506.5,950.5C 508.034,947.621 510.367,945.955 513.5,945.5C 519.511,946.48 525.511,947.48 531.5,948.5C 530.423,942.115 529.09,935.781 527.5,929.5C 529.19,927.481 530.856,925.481 532.5,923.5 Z" />
	</g>
	<g>
		<path style="opacity:0.429" fill="#fffefb" d="M 238.5,927.5 C 253.562,933.526 268.562,939.86 283.5,946.5C 282.082,948.923 280.082,950.589 277.5,951.5C 274.066,949.742 270.566,948.075 267,946.5C 262.694,950.806 258.36,955.14 254,959.5C 254.41,963.963 255.91,968.13 258.5,972C 256.667,973.833 254.833,975.667 253,977.5C 246.467,963.762 240.467,949.762 235,935.5C 234.333,934.167 234.333,932.833 235,931.5C 236.376,930.295 237.542,928.962 238.5,927.5 Z M 242.5,936.5 C 248.15,938.889 253.816,941.389 259.5,944C 256.333,947.167 253.167,950.333 250,953.5C 247.046,947.991 244.546,942.324 242.5,936.5 Z" />
	</g>
	<g>
		<path style="opacity:0.377" fill="#fefffe" d="M -0.5,934.5 C 3.5,936.5 3.5,938.5 -0.5,940.5C -0.5,938.5 -0.5,936.5 -0.5,934.5 Z" />
	</g>
	<g>
		<path style="opacity:0.414" fill="#fffdf8" d="M 569.5,939.5 C 576.866,942.212 577.199,945.545 570.5,949.5C 564.433,946.402 564.1,943.068 569.5,939.5 Z" />
	</g>
	<g>
		<path style="opacity:0.425" fill="#fffefc" d="M 793.5,952.5 C 804.76,962.091 815.427,972.425 825.5,983.5C 824.185,985.316 822.685,986.983 821,988.5C 814,981.5 807,974.5 800,967.5C 803.65,977.247 807.816,986.913 812.5,996.5C 811.687,997.814 810.687,998.981 809.5,1000C 798.678,996.393 788.012,992.393 777.5,988C 784.833,995.333 792.167,1002.67 799.5,1010C 798,1011.5 796.5,1013 795,1014.5C 784.5,1004 774,993.5 763.5,983C 765.683,980.65 768.016,978.483 770.5,976.5C 781.276,982.093 791.943,986.593 802.5,990C 798.073,979.402 793.406,968.902 788.5,958.5C 790.19,956.481 791.856,954.481 793.5,952.5 Z" />
	</g>
	<g>
		<path style="opacity:0.454" fill="#fffefc" d="M 501.5,954.5 C 504.473,954.965 505.64,956.632 505,959.5C 498.833,965.667 492.667,971.833 486.5,978C 489.667,981.167 492.833,984.333 496,987.5C 501.833,981.667 507.667,975.833 513.5,970C 515.568,970.017 517.234,971.017 518.5,973C 512.318,979.014 506.318,985.181 500.5,991.5C 503.484,994.985 506.651,998.318 510,1001.5C 516.5,995 523,988.5 529.5,982C 531.752,982.05 533.418,983.216 534.5,985.5C 526.5,994.167 518.167,1002.5 509.5,1010.5C 498.681,1000.18 488.014,989.681 477.5,979C 485.702,970.965 493.702,962.798 501.5,954.5 Z" />
	</g>
	<g>
		<path style="opacity:0.42" fill="#fffefd" d="M 468.5,1023.5 C 464.5,1023.5 460.5,1023.5 456.5,1023.5C 452.855,1019.52 449.189,1015.52 445.5,1011.5C 446.815,1009.68 448.315,1008.02 450,1006.5C 454.333,1010.83 458.667,1015.17 463,1019.5C 468.348,1014.32 473.515,1008.99 478.5,1003.5C 474.818,999.651 470.985,995.984 467,992.5C 466.91,989.538 468.243,987.204 471,985.5C 481.681,996.014 492.181,1006.68 502.5,1017.5C 501.167,1019.5 499.5,1021.17 497.5,1022.5C 492.845,1017.68 488.012,1013.01 483,1008.5C 477.963,1013.37 473.13,1018.37 468.5,1023.5 Z" />
	</g>
	<g>
		<path style="opacity:0.435" fill="#fffefb" d="M 781.5,1023.5 C 779.5,1023.5 777.5,1023.5 775.5,1023.5C 773.915,1012.4 767.415,1005.4 756,1002.5C 745.021,1005.6 740.521,1012.6 742.5,1023.5C 739.833,1023.5 737.167,1023.5 734.5,1023.5C 734.156,1007.34 741.99,998.008 758,995.5C 773.596,998.887 781.43,1008.22 781.5,1023.5 Z" />
	</g>
</svg>
