<svg width="24" height="24" viewBox="0 0 24 24" fill="none" xmlns="http://www.w3.org/2000/svg">
<g id="zalo-logo-XXTNoE1Z_brandlogos.net 1" clip-path="url(#clip0_5135_643)">
<path id="Vector" d="M10.8914 0.0802612H13.018C15.9396 0.0802612 17.6471 0.509733 19.1629 1.32261C20.6614 2.11372 21.8863 3.33863 22.6774 4.83716C23.4903 6.35295 23.9198 8.06045 23.9198 10.9821V13.0997C23.9198 16.0213 23.4903 17.7288 22.6774 19.2446C21.8863 20.7431 20.6614 21.968 19.1629 22.7592C17.6471 23.572 15.9396 24.0015 13.018 24.0015H10.9003C7.97871 24.0015 6.27122 23.572 4.75543 22.7592C3.25689 21.968 2.03198 20.7431 1.24088 19.2446C0.427996 17.7288 -0.0014801 16.0213 -0.0014801 13.0997V10.9806C-0.0014801 8.05896 0.427996 6.35147 1.24088 4.83568C2.03198 3.33715 3.25689 2.11223 4.75543 1.32113C6.2623 0.509736 7.97871 0.0802612 10.8914 0.0802612Z" fill="#0068FF"/>
<path id="Vector_2" opacity="0.12" d="M23.9198 12.743V13.0923C23.9198 16.0139 23.4903 17.7214 22.6789 19.2372C21.8878 20.7357 20.6629 21.9606 19.1643 22.7517C17.6486 23.5646 15.9411 23.9941 13.0194 23.9941H10.9003C8.50923 23.9941 6.93251 23.7073 5.60694 23.1574L3.4239 20.9164L23.9198 12.743Z" fill="#001A33"/>
<path id="Vector_3" d="M3.66613 20.9922C4.78514 21.1155 6.18353 20.7975 7.17623 20.3146C11.4858 22.6923 18.2296 22.5838 22.3103 19.9728C22.4689 19.735 22.6175 19.4873 22.7562 19.2297C23.572 17.708 24.003 15.9946 24.003 13.0625V10.9375C24.003 8.00545 23.572 6.29202 22.7562 4.77028C21.9621 3.26602 20.7325 2.03643 19.2282 1.24235C17.7065 0.426502 15.9931 -0.00445557 13.0611 -0.00445557H10.9241C8.4275 -0.00445557 6.80619 0.31059 5.44347 0.909475C5.36917 0.975853 5.29635 1.04372 5.22502 1.11307C1.22898 4.96495 0.925822 13.3152 4.31406 17.8521L4.32594 17.8729C4.84755 18.6427 4.34378 19.9891 3.55616 20.7782C3.42836 20.9001 3.47443 20.9744 3.66613 20.9922Z" fill="white"/>
<path id="Vector_4" d="M9.8229 8.18677H5.1403V9.19135H8.39033L5.18637 13.1621C5.05996 13.3335 4.99836 13.5441 5.0125 13.7566V14.0122H9.43058C9.53664 14.011 9.63802 13.9683 9.71302 13.8934C9.78802 13.8184 9.83066 13.717 9.83182 13.6109V13.073H6.41386L9.42612 9.29389L9.59108 9.09327L9.60891 9.06652C9.75947 8.84905 9.8332 8.58758 9.81845 8.32349L9.8229 8.18677Z" fill="#0068FF"/>
<path id="Vector_5" d="M15.785 14.0122H16.4582V8.18677H15.4536V13.6733C15.4532 13.762 15.4878 13.8473 15.5498 13.9107C15.6118 13.9742 15.6963 14.0106 15.785 14.0122Z" fill="#0068FF"/>
<path id="Vector_6" d="M12.3522 9.48407C11.9007 9.48407 11.4594 9.61794 11.0841 9.86876C10.7087 10.1196 10.4161 10.4761 10.2433 10.8932C10.0706 11.3102 10.0254 11.7692 10.1135 12.212C10.2015 12.6548 10.4189 13.0615 10.7382 13.3807C11.0574 13.6999 11.4641 13.9173 11.9069 14.0054C12.3497 14.0935 12.8086 14.0483 13.2257 13.8755C13.6428 13.7028 13.9993 13.4102 14.2501 13.0348C14.5009 12.6594 14.6348 12.2181 14.6348 11.7667C14.6348 11.1613 14.3943 10.5807 13.9662 10.1526C13.5382 9.72456 12.9576 9.48407 12.3522 9.48407ZM12.3522 13.1086C12.0877 13.1086 11.8291 13.0301 11.6091 12.8832C11.3892 12.7362 11.2178 12.5273 11.1165 12.283C11.0153 12.0386 10.9888 11.7696 11.0404 11.5102C11.092 11.2508 11.2194 11.0124 11.4065 10.8254C11.5935 10.6384 11.8318 10.511 12.0913 10.4594C12.3507 10.4078 12.6196 10.4342 12.864 10.5355C13.1084 10.6367 13.3173 10.8081 13.4643 11.0281C13.6112 11.248 13.6897 11.5066 13.6897 11.7711C13.6897 12.1258 13.5487 12.466 13.2979 12.7169C13.0471 12.9677 12.7069 13.1086 12.3522 13.1086Z" fill="#0068FF"/>
<path id="Vector_7" d="M19.4184 9.44696C18.9635 9.44696 18.5187 9.58188 18.1404 9.83465C17.7621 10.0874 17.4672 10.4467 17.2931 10.8671C17.119 11.2874 17.0735 11.7499 17.1622 12.1962C17.251 12.6424 17.4701 13.0523 17.7918 13.374C18.1135 13.6958 18.5234 13.9149 18.9697 14.0036C19.4159 14.0924 19.8784 14.0468 20.2988 13.8727C20.7191 13.6986 21.0784 13.4037 21.3312 13.0254C21.584 12.6471 21.7189 12.2024 21.7189 11.7474C21.7181 11.1375 21.4755 10.5529 21.0442 10.1216C20.613 9.69036 20.0283 9.44775 19.4184 9.44696ZM19.4184 13.1086C19.1513 13.1086 18.8901 13.0294 18.668 12.881C18.4458 12.7325 18.2727 12.5216 18.1704 12.2747C18.0682 12.0279 18.0414 11.7563 18.0936 11.4943C18.1457 11.2322 18.2743 10.9915 18.4633 10.8026C18.6522 10.6137 18.8929 10.485 19.1549 10.4329C19.4169 10.3808 19.6886 10.4075 19.9354 10.5098C20.1822 10.612 20.3932 10.7852 20.5416 11.0073C20.6901 11.2295 20.7693 11.4906 20.7693 11.7578C20.7697 11.9353 20.735 12.1111 20.6673 12.2752C20.5995 12.4393 20.5 12.5883 20.3745 12.7139C20.249 12.8394 20.0999 12.9389 19.9359 13.0066C19.7718 13.0744 19.5959 13.109 19.4184 13.1086Z" fill="#0068FF"/>
<path id="Vector_8" d="M14.1058 14.0121H14.6437V9.61188H13.703V13.6243C13.7072 13.7284 13.7515 13.8268 13.8265 13.8991C13.9015 13.9713 14.0016 14.0118 14.1058 14.0121Z" fill="#0068FF"/>
</g>
<defs>
<clipPath id="clip0_5135_643">
<rect width="24" height="24" fill="white"/>
</clipPath>
</defs>
</svg>
